<svg width="120" height="122" viewBox="0 0 120 122" fill="none" xmlns="http://www.w3.org/2000/svg">
<path d="M76.552 31.7063C79.7828 31.7063 82.4113 29.034 82.4113 25.7493C82.4113 22.4646 79.7828 19.792 76.552 19.792C73.3211 19.792 70.6926 22.4646 70.6926 25.7493C70.6926 27.0908 71.1313 28.3298 71.8703 29.3268L62.2431 43.0044C61.6687 42.8126 61.0558 42.7073 60.4188 42.7073C58.8792 42.7073 57.4771 43.3151 56.4304 44.3059L50.0134 40.604C50.099 40.1998 50.1449 39.7809 50.1449 39.3513C50.1449 36.0666 47.5164 33.3943 44.2856 33.3943C41.0547 33.3943 38.4262 36.0666 38.4262 39.3513C38.4262 39.7809 38.4721 40.1998 38.5577 40.604L32.1407 44.3059C31.094 43.3151 29.692 42.7075 28.1523 42.7075C24.9215 42.7075 22.293 45.3801 22.293 48.6648C22.293 51.9495 24.9215 54.622 28.1523 54.622C31.3832 54.622 34.0117 51.9495 34.0117 48.6648C34.0117 48.2351 33.9658 47.8162 33.8802 47.4121L40.2972 43.7102C41.3439 44.701 42.7459 45.3088 44.2856 45.3088C45.8252 45.3088 47.227 44.701 48.2739 43.7104L54.6909 47.4124C54.6053 47.8165 54.5594 48.2354 54.5594 48.665C54.5594 51.9497 57.1879 54.6223 60.4188 54.6223C63.6499 54.6223 66.2784 51.9497 66.2784 48.665C66.2784 47.3232 65.8394 46.0839 65.1004 45.087L74.7276 31.4094C75.3018 31.601 75.9149 31.7063 76.552 31.7063ZM76.552 23.3662C77.8443 23.3662 78.8957 24.4351 78.8957 25.7493C78.8957 27.0631 77.8443 28.1321 76.552 28.1321C75.2596 28.1321 74.2082 27.0631 74.2082 25.7493C74.208 24.4351 75.2594 23.3662 76.552 23.3662ZM28.1516 51.0473C26.8593 51.0473 25.8079 49.9784 25.8079 48.6643C25.8079 47.3502 26.8593 46.2812 28.1516 46.2812C29.444 46.2812 30.4954 47.3502 30.4954 48.6643C30.4954 49.9784 29.444 51.0473 28.1516 51.0473ZM44.2851 41.7341C42.9927 41.7341 41.9413 40.6652 41.9413 39.3511C41.9413 38.0372 42.9927 36.9683 44.2851 36.9683C45.5774 36.9683 46.6288 38.0372 46.6288 39.3511C46.6291 40.6652 45.5774 41.7341 44.2851 41.7341ZM60.4185 51.0473C59.1262 51.0473 58.0748 49.9784 58.0748 48.6643C58.0748 47.3502 59.1262 46.2812 60.4185 46.2812C61.7111 46.2812 62.7625 47.3502 62.7625 48.6643C62.7625 49.9784 61.7109 51.0473 60.4185 51.0473Z" fill="#007FD8"/>
<path d="M98.1553 89.8234H85.8539H18.8503H4.97227C4.16906 89.8234 3.51562 89.159 3.51562 88.3425V14.6137C3.51562 13.7971 4.16906 13.1328 4.97227 13.1328H13.2588C14.2296 13.1328 15.0166 12.3329 15.0166 11.3457C15.0166 10.3585 14.2296 9.55859 13.2588 9.55859H4.97227C2.23055 9.55859 0 11.8263 0 14.6137V88.3425C0 91.1299 2.23055 93.3976 4.97227 93.3976H17.0925V97.3307C17.0925 99.5712 18.8855 101.394 21.0893 101.394H38.6848L30.402 117.835C29.9595 118.714 30.3009 119.79 31.1651 120.24C31.4215 120.374 31.6952 120.437 31.965 120.437C32.6037 120.437 33.2198 120.082 33.5309 119.464L42.6347 101.394H62.0695L71.1734 119.464C71.4846 120.082 72.1005 120.437 72.7392 120.437C73.009 120.437 73.2827 120.374 73.5391 120.24C74.4033 119.79 74.745 118.714 74.3023 117.835L66.0195 101.394H83.6149C85.8187 101.394 87.6117 99.5715 87.6117 97.3307V93.3976H98.1553C99.1261 93.3976 99.9131 92.5977 99.9131 91.6105C99.9131 90.6233 99.1261 89.8234 98.1553 89.8234ZM84.0961 97.3307C84.0961 97.6004 83.8802 97.8199 83.6149 97.8199H21.0893C20.824 97.8199 20.6081 97.6004 20.6081 97.3307V93.3976H84.0961V97.3307Z" fill="#007FD8"/>
<path d="M20.29 13.133H44.3538H60.3501H99.7317C100.535 13.133 101.188 13.7973 101.188 14.6139V31.606C101.188 32.5932 101.975 33.3931 102.946 33.3931C103.917 33.3931 104.704 32.5932 104.704 31.606V14.6139C104.704 11.8265 102.473 9.55874 99.7317 9.55874H62.1082V6.046C62.1082 3.57383 60.1298 1.5625 57.6979 1.5625H47.0062C44.5746 1.5625 42.596 3.57383 42.596 6.046V9.55874H20.29C19.3193 9.55874 18.5322 10.3587 18.5322 11.3459C18.5322 12.3331 19.3193 13.133 20.29 13.133ZM46.1116 6.046C46.1116 5.54466 46.5129 5.13672 47.0062 5.13672H57.6979C58.1911 5.13672 58.5925 5.54466 58.5925 6.046V9.55874H46.1118V6.046H46.1116Z" fill="#007FD8"/>
<path d="M24.5859 63.7578C23.6152 63.7578 22.8281 64.5577 22.8281 65.5449V81.3363C22.8281 82.3235 23.6152 83.1234 24.5859 83.1234H31.7173C32.688 83.1234 33.4751 82.3235 33.4751 81.3363V65.5449C33.4751 64.5577 32.688 63.7578 31.7173 63.7578H24.5859ZM29.9594 79.5494H26.3437V67.3323H29.9594V79.5494Z" fill="#007FD8"/>
<path d="M40.7197 54.625C39.7489 54.625 38.9619 55.4249 38.9619 56.4121V81.3366C38.9619 82.3238 39.7489 83.1237 40.7197 83.1237H47.8511C48.8218 83.1237 49.6089 82.3238 49.6089 81.3366V56.4121C49.6089 55.4249 48.8218 54.625 47.8511 54.625H40.7197ZM46.0935 79.5494H42.4778V58.1992H46.0935V79.5494Z" fill="#007FD8"/>
<path d="M56.8525 63.7578C55.8818 63.7578 55.0947 64.5577 55.0947 65.5449V81.3363C55.0947 82.3235 55.8818 83.1234 56.8525 83.1234H63.9839C64.9546 83.1234 65.7417 82.3235 65.7417 81.3363V65.5449C65.7417 64.5577 64.9546 63.7578 63.9839 63.7578H56.8525ZM62.2261 79.5494H58.6104V67.3323H62.2261V79.5494Z" fill="#007FD8"/>
<path d="M72.9873 74.3037C72.0165 74.3037 71.2295 75.1036 71.2295 76.0908V81.3371C71.2295 82.3243 72.0165 83.1242 72.9873 83.1242H80.1186C81.0894 83.1242 81.8764 82.3243 81.8764 81.3371C81.8764 80.3499 81.0894 79.55 80.1186 79.55H74.7451V76.0908C74.7451 75.1036 73.9581 74.3037 72.9873 74.3037Z" fill="#007FD8"/>
<path d="M119.104 91.5048L109.019 73.7467C111.574 70.9781 113.435 67.5952 114.428 63.8246C116.017 57.7983 115.201 51.5036 112.133 46.1003C105.799 34.9457 91.7197 31.111 80.7486 37.5505C69.7773 43.9901 66.005 58.3039 72.3392 69.4581C75.4077 74.8613 80.3621 78.7263 86.2897 80.3413C88.2692 80.8806 90.2776 81.1472 92.2733 81.1472C94.0175 81.1472 95.7516 80.9432 97.4476 80.5396L107.53 98.2982C108.766 100.475 111.016 101.694 113.328 101.693C114.46 101.693 115.608 101.401 116.658 100.785C118.719 99.5752 120 97.3193 120 94.8979C120 93.7115 119.69 92.5385 119.104 91.5048ZM87.1995 76.8889C82.179 75.5211 77.9825 72.2474 75.3835 67.671C70.0187 58.2236 73.2139 46.1003 82.5062 40.6458C85.5631 38.8516 88.9037 37.9995 92.2032 37.9995C98.9333 37.9995 105.488 41.5482 109.088 47.8874C111.687 52.4639 112.378 57.7952 111.032 62.8996C109.687 68.0041 106.467 72.27 101.965 74.9123C97.4642 77.5546 92.2203 78.2561 87.1995 76.8889ZM114.901 97.6892C113.388 98.577 111.448 98.0485 110.575 96.5116L100.875 79.4259C101.847 79.0224 102.799 78.5507 103.724 78.0078C104.649 77.4646 105.526 76.8598 106.356 76.205L116.059 93.2914C116.337 93.7825 116.484 94.3382 116.484 94.8982C116.484 96.0462 115.877 97.1159 114.901 97.6892Z" fill="#007FD8"/>
<path d="M108.174 62.8136C109.415 58.7495 109.119 54.3985 107.342 50.5621C106.928 49.6691 105.881 49.2864 105.002 49.7069C104.124 50.1278 103.747 51.1924 104.161 52.0852C105.564 55.1114 105.796 58.5448 104.816 61.7535C103.831 64.9798 101.703 67.6874 98.8228 69.3778C95.7755 71.1668 92.2249 71.6415 88.8262 70.7157C85.4273 69.7898 82.5862 67.5735 80.827 64.4754C77.1949 58.0797 79.3582 49.8723 85.6491 46.1797C90.2487 43.4802 95.9569 43.8409 100.192 47.0987C100.967 47.6944 102.069 47.5393 102.655 46.752C103.24 45.965 103.088 44.8441 102.313 44.2486C96.9483 40.1214 89.7169 39.6646 83.891 43.0842C80.0304 45.3502 77.2687 49.0093 76.1149 53.387C74.9611 57.7647 75.5534 62.3373 77.7823 66.2623C80.0112 70.1875 83.6102 72.9949 87.9162 74.1682C89.3541 74.5599 90.8133 74.7536 92.2629 74.7536C95.1546 74.7536 98.009 73.9826 100.58 72.4731C104.229 70.3319 106.926 66.9016 108.174 62.8136Z" fill="#007FD8"/>
</svg>
