<svg width="60" height="61" viewBox="0 0 60 61" fill="none" xmlns="http://www.w3.org/2000/svg">
<path d="M38.276 15.8531C39.8914 15.8531 41.2057 14.517 41.2057 12.8746C41.2057 11.2323 39.8914 9.896 38.276 9.896C36.6606 9.896 35.3463 11.2323 35.3463 12.8746C35.3463 13.5454 35.5657 14.1649 35.9352 14.6634L31.1216 21.5022C30.8343 21.4063 30.5279 21.3536 30.2094 21.3536C29.4396 21.3536 28.7386 21.6576 28.2152 22.1529L25.0067 20.302C25.0495 20.0999 25.0725 19.8905 25.0725 19.6757C25.0725 18.0333 23.7582 16.6971 22.1428 16.6971C20.5273 16.6971 19.2131 18.0333 19.2131 19.6757C19.2131 19.8905 19.2361 20.0999 19.2788 20.302L16.0704 22.1529C15.547 21.6576 14.846 21.3538 14.0762 21.3538C12.4607 21.3538 11.1465 22.69 11.1465 24.3324C11.1465 25.9747 12.4607 27.311 14.0762 27.311C15.6916 27.311 17.0059 25.9747 17.0059 24.3324C17.0059 24.1176 16.9829 23.9081 16.9401 23.7061L20.1486 21.8551C20.672 22.3505 21.373 22.6544 22.1428 22.6544C22.9126 22.6544 23.6135 22.3505 24.137 21.8552L27.3454 23.7062C27.3027 23.9082 27.2797 24.1177 27.2797 24.3325C27.2797 25.9749 28.5939 27.3111 30.2094 27.3111C31.8249 27.3111 33.1392 25.9749 33.1392 24.3325C33.1392 23.6616 32.9197 23.042 32.5502 22.5435L37.3638 15.7047C37.6509 15.8005 37.9575 15.8531 38.276 15.8531ZM38.276 11.6831C38.9222 11.6831 39.4479 12.2176 39.4479 12.8746C39.4479 13.5316 38.9222 14.066 38.276 14.066C37.6298 14.066 37.1041 13.5316 37.1041 12.8746C37.104 12.2176 37.6297 11.6831 38.276 11.6831ZM14.0758 25.5237C13.4296 25.5237 12.9039 24.9892 12.9039 24.3321C12.9039 23.6751 13.4296 23.1406 14.0758 23.1406C14.722 23.1406 15.2477 23.6751 15.2477 24.3321C15.2477 24.9892 14.722 25.5237 14.0758 25.5237ZM22.1425 20.8671C21.4964 20.8671 20.9707 20.3326 20.9707 19.6755C20.9707 19.0186 21.4964 18.4841 22.1425 18.4841C22.7887 18.4841 23.3144 19.0186 23.3144 19.6755C23.3145 20.3326 22.7887 20.8671 22.1425 20.8671ZM30.2093 25.5237C29.5631 25.5237 29.0374 24.9892 29.0374 24.3321C29.0374 23.6751 29.5631 23.1406 30.2093 23.1406C30.8555 23.1406 31.3813 23.6751 31.3813 24.3321C31.3813 24.9892 30.8554 25.5237 30.2093 25.5237Z" fill="#007FD8"/>
<path d="M49.0777 44.9117H42.927H9.42516H2.48613C2.08453 44.9117 1.75781 44.5795 1.75781 44.1712V7.30686C1.75781 6.89857 2.08453 6.56641 2.48613 6.56641H6.62941C7.1148 6.56641 7.50832 6.16645 7.50832 5.67285C7.50832 5.17925 7.1148 4.7793 6.62941 4.7793H2.48613C1.11527 4.7793 0 5.91316 0 7.30686V44.1712C0 45.5649 1.11527 46.6988 2.48613 46.6988H8.54625V48.6653C8.54625 49.7856 9.44273 50.697 10.5446 50.697H19.3424L15.201 58.9175C14.9797 59.3568 15.1505 59.8952 15.5825 60.1202C15.7107 60.1871 15.8476 60.2186 15.9825 60.2186C16.3018 60.2186 16.6099 60.0411 16.7654 59.7322L21.3173 50.697H31.0348L35.5867 59.7322C35.7423 60.0411 36.0503 60.2186 36.3696 60.2186C36.5045 60.2186 36.6414 60.1868 36.7696 60.1202C37.2016 59.8952 37.3725 59.3568 37.1511 58.9175L33.0097 50.697H41.8075C42.9094 50.697 43.8059 49.7857 43.8059 48.6653V46.6988H49.0777C49.563 46.6988 49.9566 46.2988 49.9566 45.8052C49.9566 45.3116 49.563 44.9117 49.0777 44.9117ZM42.048 48.6653C42.048 48.8002 41.9401 48.9099 41.8075 48.9099H10.5446C10.412 48.9099 10.3041 48.8002 10.3041 48.6653V46.6988H42.048V48.6653Z" fill="#007FD8"/>
<path d="M10.1455 6.56648H22.1774H30.1755H49.8663C50.2679 6.56648 50.5947 6.89864 50.5947 7.30694V15.803C50.5947 16.2966 50.9882 16.6965 51.4736 16.6965C51.9589 16.6965 52.3525 16.2966 52.3525 15.803V7.30694C52.3525 5.91323 51.2372 4.77937 49.8663 4.77937H31.0546V3.023C31.0546 1.78692 30.0654 0.78125 28.8495 0.78125H23.5036C22.2878 0.78125 21.2985 1.78692 21.2985 3.023V4.77937H10.1455C9.66012 4.77937 9.2666 5.17933 9.2666 5.67293C9.2666 6.16653 9.66012 6.56648 10.1455 6.56648ZM23.0563 3.023C23.0563 2.77233 23.2569 2.56836 23.5036 2.56836H28.8495C29.096 2.56836 29.2968 2.77233 29.2968 3.023V4.77937H23.0564V3.023H23.0563Z" fill="#007FD8"/>
<path d="M12.293 31.8789C11.8076 31.8789 11.4141 32.2789 11.4141 32.7725V40.6681C11.4141 41.1617 11.8076 41.5617 12.293 41.5617H15.8586C16.344 41.5617 16.7375 41.1617 16.7375 40.6681V32.7725C16.7375 32.2789 16.344 31.8789 15.8586 31.8789H12.293ZM14.9797 39.7747H13.1719V33.6661H14.9797V39.7747Z" fill="#007FD8"/>
<path d="M20.3604 27.3125C19.875 27.3125 19.4814 27.7125 19.4814 28.2061V40.6683C19.4814 41.1619 19.875 41.5618 20.3604 41.5618H23.926C24.4114 41.5618 24.8049 41.1619 24.8049 40.6683V28.2061C24.8049 27.7125 24.4114 27.3125 23.926 27.3125H20.3604ZM23.0472 39.7747H21.2394V29.0996H23.0472V39.7747Z" fill="#007FD8"/>
<path d="M28.4268 31.8789C27.9414 31.8789 27.5479 32.2789 27.5479 32.7725V40.6681C27.5479 41.1617 27.9414 41.5617 28.4268 41.5617H31.9924C32.4778 41.5617 32.8713 41.1617 32.8713 40.6681V32.7725C32.8713 32.2789 32.4778 31.8789 31.9924 31.8789H28.4268ZM31.1135 39.7747H29.3057V33.6661H31.1135V39.7747Z" fill="#007FD8"/>
<path d="M36.4932 37.1519C36.0078 37.1519 35.6143 37.5518 35.6143 38.0454V40.6685C35.6143 41.1621 36.0078 41.5621 36.4932 41.5621H40.0588C40.5442 41.5621 40.9377 41.1621 40.9377 40.6685C40.9377 40.1749 40.5442 39.775 40.0588 39.775H37.3721V38.0454C37.3721 37.5518 36.9786 37.1519 36.4932 37.1519Z" fill="#007FD8"/>
<path d="M59.5518 45.7524L54.5096 36.8733C55.787 35.489 56.7173 33.7976 57.2141 31.9123C58.0083 28.8991 57.6007 25.7518 56.0665 23.0502C52.8994 17.4728 45.8598 15.5555 40.3743 18.7753C34.8886 21.995 33.0025 29.1519 36.1696 34.729C37.7038 37.4307 40.1811 39.3631 43.1448 40.1707C44.1346 40.4403 45.1388 40.5736 46.1366 40.5736C47.0088 40.5736 47.8758 40.4716 48.7238 40.2698L53.765 49.1491C54.3829 50.2377 55.5081 50.8469 56.6638 50.8467C57.2302 50.8467 57.8039 50.7003 58.3288 50.3925C59.3596 49.7876 60 48.6597 60 47.449C60 46.8558 59.8451 46.2692 59.5518 45.7524ZM43.5998 38.4444C41.0895 37.7606 38.9913 36.1237 37.6918 33.8355C35.0093 29.1118 36.607 23.0502 41.2531 20.3229C42.7816 19.4258 44.4518 18.9997 46.1016 18.9997C49.4666 18.9997 52.7441 20.7741 54.5441 23.9437C55.8435 26.2319 56.1888 28.8976 55.5161 31.4498C54.8434 34.002 53.2334 36.135 50.9827 37.4562C48.7321 38.7773 46.1102 39.1281 43.5998 38.4444ZM57.4503 48.8446C56.6941 49.2885 55.7238 49.0242 55.2875 48.2558L50.4373 39.7129C50.9234 39.5112 51.3994 39.2753 51.8618 39.0039C52.3246 38.7323 52.7629 38.4299 53.1779 38.1025L58.0294 46.6457C58.1686 46.8913 58.2422 47.1691 58.2422 47.4491C58.2422 48.0231 57.9387 48.5579 57.4503 48.8446Z" fill="#007FD8"/>
<path d="M54.0869 31.4068C54.7075 29.3747 54.5597 27.1992 53.6708 25.2811C53.4639 24.8345 52.9403 24.6432 52.5012 24.8535C52.0619 25.0639 51.8737 25.5962 52.0807 26.0426C52.7818 27.5557 52.8982 29.2724 52.4082 30.8767C51.9156 32.4899 50.8513 33.8437 49.4114 34.6889C47.8877 35.5834 46.1125 35.8207 44.4131 35.3579C42.7137 34.8949 41.2931 33.7868 40.4135 32.2377C38.5975 29.0398 39.6791 24.9362 42.8245 23.0898C45.1243 21.7401 47.9784 21.9205 50.0961 23.5494C50.4833 23.8472 51.0344 23.7697 51.3273 23.376C51.6201 22.9825 51.5439 22.4221 51.1567 22.1243C48.4741 20.0607 44.8584 19.8323 41.9455 21.5421C40.0152 22.6751 38.6344 24.5046 38.0575 26.6935C37.4805 28.8823 37.7767 31.1686 38.8911 33.1311C40.0056 35.0937 41.8051 36.4974 43.9581 37.0841C44.677 37.28 45.4066 37.3768 46.1314 37.3768C47.5773 37.3768 49.0045 36.9913 50.2902 36.2365C52.1144 35.1659 53.4628 33.4508 54.0869 31.4068Z" fill="#007FD8"/>
</svg>
