<svg width="94" height="94" viewBox="0 0 94 94" fill="none" xmlns="http://www.w3.org/2000/svg">
<path d="M71.7782 17.993C76.7205 17.993 80.7361 13.9581 80.7361 8.99651C80.7361 4.03491 76.7205 0 71.7782 0C66.8359 0 62.8203 4.05422 62.8203 8.99651C62.8203 13.9388 66.8359 17.993 71.7782 17.993ZM71.7782 4.6527C74.1528 4.6527 76.1027 6.60259 76.1027 9.01581C76.1027 11.429 74.1721 13.3789 71.7782 13.3789C69.3843 13.3789 67.4537 11.4097 67.4537 8.99651C67.4537 6.58328 69.3843 4.6527 71.7782 4.6527Z" fill="#007FD8"/>
<path d="M18.9579 76.0068C14.0156 76.0068 10 80.0418 10 85.0034C10 89.9649 14.0156 93.9999 18.9579 93.9999C23.9002 93.9999 27.9158 89.9649 27.9158 85.0034C27.9158 80.0418 23.8809 76.0068 18.9579 76.0068ZM18.9579 89.3665C16.5833 89.3665 14.6334 87.4166 14.6334 85.0034C14.6334 82.6094 16.564 80.6402 18.9579 80.6402C21.3518 80.6402 23.2824 82.5901 23.2824 85.0034C23.2631 87.3973 21.3325 89.3665 18.9579 89.3665Z" fill="#007FD8"/>
<path d="M41.1008 39.8662C41.5448 40.3102 42.1433 40.5419 42.7418 40.5419C43.3402 40.5419 43.9194 40.3102 44.3828 39.8662C45.2901 38.9588 45.2901 37.4916 44.3828 36.5842L39.5563 31.7577L44.3828 26.9313C45.2901 26.0239 45.2901 24.5567 44.3828 23.6493C43.4754 22.7419 42.0081 22.7419 41.1008 23.6493L36.2743 28.4757L31.4479 23.6493C30.5405 22.7419 29.0733 22.7419 28.1659 23.6493C27.2585 24.5567 27.2585 26.0239 28.1659 26.9313L32.9923 31.7577L28.1659 36.5842C27.2585 37.4916 27.2585 38.9588 28.1659 39.8662C28.6099 40.3102 29.2084 40.5419 29.8069 40.5419C30.4054 40.5419 30.9845 40.3102 31.4479 39.8662L36.2743 35.0397L41.1008 39.8662Z" fill="#007FD8"/>
<path d="M79.8867 60.8133C78.9793 59.906 77.5121 59.906 76.6047 60.8133L71.7782 65.6398L66.9518 60.8133C66.0444 59.906 64.5772 59.906 63.6698 60.8133C62.7624 61.7207 62.7624 63.188 63.6698 64.0953L68.4962 68.9218L63.6698 73.7482C62.7624 74.6556 62.7624 76.1229 63.6698 77.0302C64.1138 77.4743 64.7123 77.7059 65.3108 77.7059C65.9093 77.7059 66.4884 77.4743 66.9518 77.0302L71.7782 72.2038L76.6047 77.0302C77.0487 77.4743 77.6472 77.7059 78.2457 77.7059C78.8442 77.7059 79.4233 77.4743 79.8867 77.0302C80.7941 76.1229 80.7941 74.6556 79.8867 73.7482L75.0602 68.9218L79.8867 64.0953C80.7941 63.1687 80.7941 61.7207 79.8867 60.8133Z" fill="#007FD8"/>
<path d="M52.4336 72.7635C51.5262 71.8562 50.0589 71.8562 49.1516 72.7635L44.3251 77.59L39.4987 72.7635C38.5913 71.8562 37.124 71.8562 36.2167 72.7635C35.3093 73.6709 35.3093 75.1382 36.2167 76.0455L41.0431 80.872L36.2167 85.6984C35.3093 86.6058 35.3093 88.0731 36.2167 88.9804C36.6607 89.4245 37.2592 89.6561 37.8577 89.6561C38.4561 89.6561 39.0353 89.4245 39.4987 88.9804L44.3251 84.154L49.1516 88.9804C49.5956 89.4245 50.1941 89.6561 50.7926 89.6561C51.391 89.6561 51.9702 89.4245 52.4336 88.9804C53.3409 88.0731 53.3409 86.6058 52.4336 85.6984L47.6071 80.872L52.4336 76.0455C53.3216 75.1382 53.3216 73.6709 52.4336 72.7635Z" fill="#007FD8"/>
<path d="M37.4339 55.3502C38.7081 55.3502 39.7506 54.3077 39.7506 53.0335C39.7506 51.7593 38.7081 50.7168 37.4339 50.7168C36.1597 50.7168 35.1172 51.7593 35.1172 53.0335C35.1172 54.3077 36.1404 55.3502 37.4339 55.3502Z" fill="#007FD8"/>
<path d="M20.2704 62.1843C20.6565 62.4353 21.1005 62.5704 21.5446 62.5704C22.2975 62.5704 23.0311 62.2036 23.4752 61.5279C24.1702 60.4661 23.8806 59.0182 22.8188 58.3232C21.7569 57.6282 20.309 57.9178 19.614 58.9796C18.8997 60.0414 19.1893 61.4893 20.2704 62.1843Z" fill="#007FD8"/>
<path d="M27.5095 52.2801C26.3319 52.8013 25.8106 54.1721 26.3318 55.3304C26.718 56.1992 27.5674 56.7011 28.4555 56.7011C28.7644 56.7011 29.0926 56.6432 29.4015 56.5081C30.5791 55.9868 31.1004 54.6161 30.5791 53.4577C30.0384 52.2801 28.6679 51.7588 27.5095 52.2801Z" fill="#007FD8"/>
<path d="M46.6028 55.3502C47.8823 55.3502 48.9195 54.313 48.9195 53.0335C48.9195 51.754 47.8823 50.7168 46.6028 50.7168C45.3234 50.7168 44.2861 51.754 44.2861 53.0335C44.2861 54.313 45.3234 55.3502 46.6028 55.3502Z" fill="#007FD8"/>
<path d="M18.9573 71.2389C19.5751 71.2389 20.1736 70.9879 20.5983 70.5632C21.023 70.1384 21.274 69.54 21.274 68.9222C21.274 68.3044 21.023 67.7059 20.5983 67.2812C20.1736 66.8564 19.5751 66.6055 18.9573 66.6055C18.3395 66.6055 17.7411 66.8564 17.3163 67.2812C16.8916 67.7059 16.6406 68.3044 16.6406 68.9222C16.6406 69.54 16.8916 70.1384 17.3163 70.5632C17.7411 70.9879 18.3395 71.2389 18.9573 71.2389Z" fill="#007FD8"/>
<path d="M82.3576 32.8581L73.3997 23.9003C72.4923 22.9929 71.0251 22.9929 70.1177 23.9003L61.1598 32.8581C60.2525 33.7655 60.2525 35.2328 61.1598 36.1401C62.0672 37.0475 63.5344 37.0475 64.4418 36.1401L69.442 31.1399V37.1247C69.442 44.6154 63.3028 50.6967 55.7542 50.6967C54.48 50.6967 53.4375 51.7392 53.4375 53.0134C53.4375 54.2876 54.48 55.3301 55.7542 55.3301C65.8511 55.3301 74.0754 47.1638 74.0754 37.1247V31.1206L79.0756 36.1208C79.5197 36.5649 80.1181 36.7965 80.7166 36.7965C81.3151 36.7965 81.8943 36.5649 82.3576 36.1208C83.265 35.2328 83.265 33.7655 82.3576 32.8581Z" fill="#007FD8"/>
</svg>
