<svg width="47" height="47" viewBox="0 0 47 47" fill="none" xmlns="http://www.w3.org/2000/svg">
<path d="M36.1293 8.99651C38.6005 8.99651 40.6083 6.97905 40.6083 4.49825C40.6083 2.01746 38.6005 0 36.1293 0C33.6582 0 31.6504 2.02711 31.6504 4.49825C31.6504 6.9694 33.6582 8.99651 36.1293 8.99651ZM36.1293 2.32635C37.3166 2.32635 38.2916 3.30129 38.2916 4.50791C38.2916 5.71452 37.3263 6.68946 36.1293 6.68946C34.9324 6.68946 33.9671 5.70487 33.9671 4.49825C33.9671 3.29164 34.9324 2.32635 36.1293 2.32635Z" fill="#007FD8"/>
<path d="M9.71918 38.0034C7.24804 38.0034 5.24023 40.0209 5.24023 42.5017C5.24023 44.9825 7.24804 46.9999 9.71918 46.9999C12.1903 46.9999 14.1981 44.9825 14.1981 42.5017C14.1981 40.0209 12.1807 38.0034 9.71918 38.0034ZM9.71918 44.6832C8.53187 44.6832 7.55693 43.7083 7.55693 42.5017C7.55693 41.3047 8.52222 40.3201 9.71918 40.3201C10.9161 40.3201 11.8814 41.2951 11.8814 42.5017C11.8718 43.6986 10.9065 44.6832 9.71918 44.6832Z" fill="#007FD8"/>
<path d="M20.7911 19.9331C21.0131 20.1551 21.3124 20.2709 21.6116 20.2709C21.9108 20.2709 22.2004 20.1551 22.4321 19.9331C22.8858 19.4794 22.8858 18.7458 22.4321 18.2921L20.0189 15.8789L22.4321 13.4656C22.8858 13.0119 22.8858 12.2783 22.4321 11.8246C21.9784 11.371 21.2448 11.371 20.7911 11.8246L18.3779 14.2379L15.9647 11.8246C15.511 11.371 14.7773 11.371 14.3237 11.8246C13.87 12.2783 13.87 13.0119 14.3237 13.4656L16.7369 15.8789L14.3237 18.2921C13.87 18.7458 13.87 19.4794 14.3237 19.9331C14.5457 20.1551 14.8449 20.2709 15.1442 20.2709C15.4434 20.2709 15.733 20.1551 15.9647 19.9331L18.3779 17.5199L20.7911 19.9331Z" fill="#007FD8"/>
<path d="M40.1841 30.4067C39.7304 29.953 38.9968 29.953 38.5431 30.4067L36.1298 32.8199L33.7166 30.4067C33.2629 29.953 32.5293 29.953 32.0756 30.4067C31.6219 30.8604 31.6219 31.594 32.0756 32.0477L34.4888 34.4609L32.0756 36.8741C31.6219 37.3278 31.6219 38.0614 32.0756 38.5151C32.2976 38.7371 32.5969 38.853 32.8961 38.853C33.1954 38.853 33.4849 38.7371 33.7166 38.5151L36.1298 36.1019L38.5431 38.5151C38.7651 38.7371 39.0643 38.853 39.3636 38.853C39.6628 38.853 39.9524 38.7371 40.1841 38.5151C40.6377 38.0614 40.6377 37.3278 40.1841 36.8741L37.7708 34.4609L40.1841 32.0477C40.6377 31.5843 40.6377 30.8604 40.1841 30.4067Z" fill="#007FD8"/>
<path d="M26.4575 36.3818C26.0038 35.9281 25.2702 35.9281 24.8165 36.3818L22.4033 38.795L19.99 36.3818C19.5364 35.9281 18.8027 35.9281 18.3491 36.3818C17.8954 36.8355 17.8954 37.5691 18.3491 38.0228L20.7623 40.436L18.3491 42.8492C17.8954 43.3029 17.8954 44.0365 18.3491 44.4902C18.5711 44.7122 18.8703 44.8281 19.1696 44.8281C19.4688 44.8281 19.7584 44.7122 19.99 44.4902L22.4033 42.077L24.8165 44.4902C25.0385 44.7122 25.3378 44.8281 25.637 44.8281C25.9362 44.8281 26.2258 44.7122 26.4575 44.4902C26.9112 44.0365 26.9112 43.3029 26.4575 42.8492L24.0443 40.436L26.4575 38.0228C26.9015 37.5691 26.9015 36.8355 26.4575 36.3818Z" fill="#007FD8"/>
<path d="M18.9572 27.6751C19.5943 27.6751 20.1155 27.1538 20.1155 26.5167C20.1155 25.8797 19.5943 25.3584 18.9572 25.3584C18.3201 25.3584 17.7988 25.8797 17.7988 26.5167C17.7988 27.1538 18.3104 27.6751 18.9572 27.6751Z" fill="#007FD8"/>
<path d="M10.3754 31.0922C10.5685 31.2176 10.7905 31.2852 11.0125 31.2852C11.389 31.2852 11.7558 31.1018 11.9778 30.764C12.3253 30.2331 12.1805 29.5091 11.6496 29.1616C11.1187 28.8141 10.3947 28.9589 10.0472 29.4898C9.69008 30.0207 9.83487 30.7447 10.3754 31.0922Z" fill="#007FD8"/>
<path d="M13.9955 26.14C13.4066 26.4007 13.146 27.086 13.4066 27.6652C13.5997 28.0996 14.0244 28.3506 14.4685 28.3506C14.6229 28.3506 14.787 28.3216 14.9415 28.254C15.5303 27.9934 15.7909 27.308 15.5303 26.7289C15.2599 26.14 14.5747 25.8794 13.9955 26.14Z" fill="#007FD8"/>
<path d="M23.5421 27.6751C24.1819 27.6751 24.7005 27.1565 24.7005 26.5167C24.7005 25.877 24.1819 25.3584 23.5421 25.3584C22.9024 25.3584 22.3838 25.877 22.3838 26.5167C22.3838 27.1565 22.9024 27.6751 23.5421 27.6751Z" fill="#007FD8"/>
<path d="M9.7189 35.6194C10.0278 35.6194 10.327 35.4939 10.5394 35.2816C10.7518 35.0692 10.8772 34.77 10.8772 34.4611C10.8772 34.1522 10.7518 33.8529 10.5394 33.6406C10.327 33.4282 10.0278 33.3027 9.7189 33.3027C9.41 33.3027 9.11076 33.4282 8.8984 33.6406C8.68603 33.8529 8.56055 34.1522 8.56055 34.4611C8.56055 34.77 8.68603 35.0692 8.8984 35.2816C9.11076 35.4939 9.41 35.6194 9.7189 35.6194Z" fill="#007FD8"/>
<path d="M41.419 16.4291L36.9401 11.9501C36.4864 11.4964 35.7528 11.4964 35.2991 11.9501L30.8201 16.4291C30.3665 16.8828 30.3665 17.6164 30.8201 18.0701C31.2738 18.5238 32.0075 18.5238 32.4611 18.0701L34.9612 15.57V18.5624C34.9612 22.3077 31.8916 25.3484 28.1173 25.3484C27.4802 25.3484 26.959 25.8696 26.959 26.5067C26.959 27.1438 27.4802 27.6651 28.1173 27.6651C33.1658 27.6651 37.2779 23.5819 37.2779 18.5624V15.5603L39.778 18.0604C40.0001 18.2824 40.2993 18.3983 40.5985 18.3983C40.8978 18.3983 41.1874 18.2824 41.419 18.0604C41.8727 17.6164 41.8727 16.8828 41.419 16.4291Z" fill="#007FD8"/>
</svg>
