<svg width="64" height="64" viewBox="0 0 64 64" fill="none" xmlns="http://www.w3.org/2000/svg">
<path d="M63.2137 19.9471L42.0578 6.33548C41.6354 6.06373 41.0729 6.18598 40.8013 6.6081C40.5296 7.03035 40.6516 7.59286 41.0739 7.86461L61.9206 21.2773H57.0608L33.33 6.00898C32.5221 5.48923 31.478 5.48935 30.67 6.00898L6.93922 21.2773H2.07946L31.9989 2.02572L36.2363 4.75197C36.6586 5.0236 37.221 4.9016 37.4928 4.47935C37.7644 4.0571 37.6424 3.4946 37.2201 3.22285L32.9828 0.49659C32.3858 0.112465 31.6144 0.112465 31.0174 0.49659L0.786334 19.9471C0.142583 20.3614 -0.144918 21.1331 0.0709578 21.8676C0.286833 22.6021 0.946209 23.0956 1.71171 23.0956H6.29722V26.2294V28.9739C6.29722 29.6975 6.81047 30.3035 7.49197 30.4469V32.047C7.49197 32.877 8.16722 33.5523 8.99722 33.5523H9.12222V44.6913C9.12222 45.1934 9.52922 45.6004 10.0313 45.6004C10.5335 45.6004 10.9405 45.1934 10.9405 44.6913V32.6432C10.9405 32.141 10.5335 31.734 10.0313 31.734H9.31035V30.479H15.7495V31.7338H15.0285C14.5264 31.7338 14.1194 32.1408 14.1194 32.6429V52.73C14.1194 53.2321 14.5264 53.6391 15.0285 53.6391H15.7495V55.0035H9.31035V53.6391H10.0313C10.5335 53.6391 10.9405 53.2321 10.9405 52.73V50.4062C10.9405 49.9041 10.5335 49.4971 10.0313 49.4971C9.52922 49.4971 9.12222 49.9041 9.12222 50.4062V51.8208H8.99722C8.16722 51.8208 7.49197 52.496 7.49197 53.326V54.9261C6.81034 55.0695 6.29722 55.6755 6.29722 56.3991V58.2343H3.07671C2.07171 58.2343 1.25408 59.052 1.25408 60.057V61.9693C1.25408 62.9743 2.07171 63.792 3.07671 63.792H60.9233C61.9283 63.792 62.7459 62.9743 62.7459 61.9693V60.057C62.7459 59.052 61.9283 58.2343 60.9233 58.2343H57.7028V56.3991C57.7028 55.6755 57.1895 55.0695 56.508 54.9261V53.326C56.508 52.496 55.8328 51.8208 55.0028 51.8208H54.8778V33.552H55.0028C55.8328 33.552 56.508 32.8768 56.508 32.0468V30.4467C57.1897 30.3033 57.7028 29.6973 57.7028 28.9737V26.2291V23.0954H62.2883C63.0538 23.0954 63.7132 22.6019 63.9291 21.8674C64.1449 21.1331 63.8574 20.3613 63.2137 19.9471ZM31.6538 7.53811C31.8641 7.40273 32.1359 7.40286 32.3463 7.53811L53.7004 21.2774H10.2997L31.6538 7.53811ZM8.11547 23.0955H55.8844V25.3201H46.1467H37.3235H26.6765H17.8534H8.11547V23.0955ZM37.038 54.9263V53.3262C37.038 52.4962 36.3628 51.8211 35.5328 51.8211H35.4078V33.5523H35.5328C36.3628 33.5523 37.038 32.877 37.038 32.047V30.4469C37.7196 30.3035 38.2328 29.6975 38.2328 28.9739V27.1385H45.2375V28.9739C45.2375 29.6975 45.7508 30.3035 46.4323 30.4469V32.047C46.4323 32.877 47.1075 33.5523 47.9375 33.5523H48.0625V51.8211H47.9375C47.1075 51.8211 46.4323 52.4962 46.4323 53.3262V54.9263C45.7508 55.0697 45.2375 55.6757 45.2375 56.3993V58.2346H38.2328V56.3993C38.2328 55.6757 37.7195 55.0697 37.038 54.9263ZM17.5677 54.9263V53.3262C17.5677 52.4962 16.8925 51.8211 16.0625 51.8211H15.9375V33.5523H16.0625C16.8925 33.5523 17.5677 32.877 17.5677 32.047V30.4469C18.2492 30.3035 18.7625 29.6975 18.7625 28.9739V27.1385H25.7674V28.9739C25.7674 29.6975 26.2806 30.3035 26.9621 30.4469V32.047C26.9621 32.877 27.6374 33.5523 28.4674 33.5523H28.5924V51.8211H28.4674C27.6374 51.8211 26.9621 52.4962 26.9621 53.3262V54.9263C26.2806 55.0697 25.7674 55.6757 25.7674 56.3993V58.2346H18.7625V56.3993C18.7625 55.6757 18.2492 55.0697 17.5677 54.9263ZM34.4986 53.6391H35.2196V55.0035H28.7805V53.6391H29.5015C30.0036 53.6391 30.4106 53.2321 30.4106 52.73V32.643C30.4106 32.1409 30.0036 31.7338 29.5015 31.7338H28.7805V30.479H35.2196V31.7338H34.4986C33.9965 31.7338 33.5895 32.1408 33.5895 32.6429V52.73C33.5895 53.2321 33.9965 53.6391 34.4986 53.6391ZM27.8713 28.6608H27.8673H27.5856V27.1385H36.4144V28.6608H36.1288C36.1281 28.6608 36.1274 28.6609 36.1268 28.6609C36.1261 28.6609 36.1254 28.6608 36.1248 28.6608H27.8713ZM27.5856 56.777C27.6744 56.8058 27.7689 56.822 27.8673 56.822H36.1246C36.226 56.822 36.3233 56.8046 36.4144 56.774V58.2345H27.5856V56.777ZM8.40122 28.6608H8.1156V27.1385H16.9444V28.6608H16.9442H16.6586H8.40122ZM8.11547 56.7755C8.20535 56.8052 8.30122 56.822 8.4011 56.822H16.6586C16.7585 56.822 16.8544 56.8052 16.9442 56.7755V58.2345H8.11547V56.7755ZM60.9277 60.0571L60.9252 61.9737C60.9252 61.9737 60.9247 61.9738 60.9233 61.9738L3.07234 61.9696L3.07671 60.0528L60.9277 60.0571ZM55.5963 56.8218C55.6972 56.8218 55.7938 56.8047 55.8845 56.7745V58.2345H47.0558V56.7763C47.1449 56.8056 47.2399 56.8218 47.3389 56.8218H55.5963ZM48.9715 31.7339H48.2505V30.479H54.6897V31.7338H53.9687C53.4665 31.7338 53.0595 32.1408 53.0595 32.6429V52.73C53.0595 53.2321 53.4665 53.6392 53.9687 53.6392H54.6897V55.0036H48.2505V53.6392H48.9715C49.4737 53.6392 49.8807 53.2322 49.8807 52.7301V32.643C49.8807 32.1409 49.4737 31.7339 48.9715 31.7339ZM55.8847 28.6608H55.5989C55.5985 28.6608 55.598 28.6609 55.5977 28.6609C55.5973 28.6609 55.5968 28.6608 55.5964 28.6608H47.3415H47.339H47.0559V27.1385H55.8847V28.6608Z" fill="#007FD8"/>
</svg>
