<svg width="36" height="36" viewBox="0 0 36 36" fill="none" xmlns="http://www.w3.org/2000/svg">
<g clip-path="url(#clip0)">
<path d="M11.3883 24.1304V14.3567H9.12891V11.8521H14.5061V24.1304H11.3883Z" fill="#888888"/>
<path d="M26.2241 15.0223C26.2241 16.0907 25.6461 17.0365 24.6828 17.5621C26.0313 18.1224 26.8721 19.296 26.8721 20.6622C26.8721 22.8691 24.9103 24.2704 21.8452 24.2704C18.78 24.2704 16.8184 22.8866 16.8184 20.7148C16.8184 19.3135 17.7291 18.1224 19.1478 17.5621C18.1145 16.984 17.4489 16.0032 17.4489 14.9348C17.4489 12.9729 19.1655 11.7295 21.8277 11.7295C24.525 11.7295 26.2241 13.0081 26.2241 15.0223ZM19.7609 20.3996C19.7609 21.4331 20.4966 22.0111 21.8452 22.0111C23.1939 22.0111 23.947 21.4507 23.947 20.3996C23.947 19.3838 23.1939 18.8056 21.8452 18.8056C20.4965 18.8056 19.7609 19.3837 19.7609 20.3996ZM20.0762 15.1974C20.0762 16.0734 20.7068 16.5636 21.8452 16.5636C22.9837 16.5636 23.6142 16.0733 23.6142 15.1974C23.6142 14.2869 22.9837 13.7788 21.8452 13.7788C20.7067 13.7788 20.0762 14.2869 20.0762 15.1974Z" fill="#888888"/>
<path d="M32.0611 13.2382C32.5794 14.768 32.8424 16.3681 32.8424 18.0001C32.8424 26.183 26.185 32.8404 18.0019 32.8404C9.81883 32.8404 3.16131 26.183 3.16131 18.0001C3.16131 9.81688 9.81872 3.15969 18.0018 3.15969C19.634 3.15969 21.2341 3.42241 22.7636 3.94096V0.638418C21.2186 0.214886 19.6229 0 18.0019 0C8.07676 0 0.00195312 8.0748 0.00195312 18.0001C0.00195312 27.9253 8.07676 36.0001 18.0019 36.0001C27.927 36.0001 36.0017 27.9253 36.0017 18.0001C36.0017 16.3792 35.787 14.7833 35.3634 13.2382H32.0611Z" fill="#888888"/>
<path d="M31.1626 4.82886V1.37744H28.6807V4.82886H25.25V7.31051H28.6807V10.7618H31.1626V7.31051H34.6138V4.82886H31.1626Z" fill="#888888"/>
</g>
<defs>
<clipPath id="clip0">
<rect width="36" height="36" fill="white"/>
</clipPath>
</defs>
</svg>
