<svg width="31" height="30" viewBox="0 0 31 30" fill="none" xmlns="http://www.w3.org/2000/svg">
<path d="M24.1201 13.9411V11.314H22.8082V13.9411H20.1846V15.2546H22.8082V17.8818H24.1201V15.2546H26.7438V13.9411H24.1201Z" fill="#959595"/>
<path d="M12.3131 13.9408V16.5679H16.0243C15.4825 18.0969 14.0237 19.195 12.3131 19.195C10.1433 19.195 8.37758 17.4269 8.37758 15.2543C8.37758 13.0817 10.1433 11.3136 12.3131 11.3136C13.2537 11.3136 14.1588 11.6512 14.862 12.2647L16.5857 10.2838C15.4051 9.25398 13.8886 8.68652 12.3131 8.68652C8.69636 8.68652 5.75391 11.6328 5.75391 15.2543C5.75391 18.8758 8.69636 21.8221 12.3131 21.8221C15.9298 21.8221 18.8723 18.8758 18.8723 15.2543V13.9408H12.3131Z" fill="#959595"/>
<path fill-rule="evenodd" clip-rule="evenodd" d="M15.666 28.75C23.2599 28.75 29.416 22.5939 29.416 15C29.416 7.40608 23.2599 1.25 15.666 1.25C8.0721 1.25 1.91602 7.40608 1.91602 15C1.91602 22.5939 8.0721 28.75 15.666 28.75ZM15.666 30C23.9503 30 30.666 23.2843 30.666 15C30.666 6.71573 23.9503 0 15.666 0C7.38174 0 0.666016 6.71573 0.666016 15C0.666016 23.2843 7.38174 30 15.666 30Z" fill="#959595"/>
</svg>
