<svg width="108" height="106" viewBox="0 0 108 106" fill="none" xmlns="http://www.w3.org/2000/svg">
<path d="M89.0747 40.4831C88.2508 39.6749 86.9151 39.6749 86.0914 40.4831C85.2677 41.2918 85.2677 42.6027 86.0914 43.4112C86.1239 43.4431 86.1576 43.4756 86.1903 43.5054C86.5974 43.8795 87.1153 44.0646 87.6321 44.0646C88.1949 44.0646 88.7568 43.8445 89.1719 43.4095C89.9684 42.5754 89.9248 41.2649 89.0747 40.4831Z" fill="#007FD8"/>
<path d="M84.7892 37.0835C83.5818 36.2788 82.3422 35.561 81.1048 34.9496C74.1047 31.4925 66.6866 30.7985 59.6523 32.9425C58.5398 33.2818 57.9178 34.4418 58.2635 35.5337C58.609 36.6258 59.7905 37.2357 60.9036 36.8968C66.874 35.0768 73.2035 35.6825 79.2081 38.648C80.2672 39.1716 81.3778 39.8155 82.4198 40.5092C82.7828 40.7511 83.1948 40.8672 83.6025 40.8672C84.2779 40.8672 84.9417 40.5494 85.3497 39.9594C86.004 39.0134 85.753 37.7257 84.7892 37.0835Z" fill="#007FD8"/>
<path d="M103.98 63.8749C103.115 62.0944 101.683 59.1459 101.658 58.1705C104.124 52.2031 103.224 45.5994 99.1158 39.5589C92.7976 30.2688 79.8482 23.5259 68.3253 23.5259C62.2343 23.5259 56.2865 24.9515 50.9355 27.6729C49.4003 19.4171 42.0234 13.1377 33.1755 13.1377C23.218 13.1377 15.1172 21.0885 15.1172 30.8614C15.1172 37.0791 18.3458 42.7325 23.7529 45.9839C25.3118 46.9213 25.6644 47.7317 25.7897 49.0593V56.128V61.1739C25.7897 63.4856 27.7055 65.3663 30.0602 65.3663H30.7773C31.936 74.4293 36.4049 82.6577 43.4987 88.7127C43.5656 88.9173 43.7607 89.876 42.9224 92.7366C42.2696 94.965 41.2676 97.4405 40.384 99.6247C39.7926 101.086 39.2817 102.348 38.9729 103.303C38.7693 103.932 38.8836 104.619 39.2808 105.152C39.6782 105.685 40.3106 106 40.9833 106H71.0934C72.0827 106 73.4416 105.565 74.2969 103.494C74.6693 102.592 74.9123 101.508 75.1698 100.36C75.4204 99.2408 76.0081 96.6205 76.5924 96.3039C76.5928 96.3039 76.6269 96.2983 76.7094 96.3107C76.8176 96.3277 76.9271 96.3358 77.0368 96.3358C80.1901 96.3358 82.7667 96.4761 85.0399 96.5997C91.7074 96.9629 95.7321 97.1821 99.2626 92.191C101.058 89.6524 100.854 85.9501 100.639 82.0304C100.528 80.0102 100.414 77.925 100.617 76.1915C100.985 75.8356 101.907 75.2145 102.485 74.8251C104.473 73.4846 106.351 72.219 106.351 70.2947C106.352 68.832 105.451 66.9023 103.98 63.8749ZM25.9572 42.4528C21.8113 39.9601 19.3361 35.627 19.3361 30.8612C19.3361 23.3712 25.5446 17.2781 33.1757 17.2781C40.807 17.2781 47.0152 23.3714 47.0152 30.8612C47.0152 35.627 44.5403 39.9604 40.3941 42.4532C38.4238 43.6385 37.2527 45.0208 36.6969 46.8886L33.1751 46.8874L29.6549 46.8886C29.0987 45.021 27.9278 43.6385 25.9572 42.4528ZM36.3429 51.0297V54.0575H30.0089V51.0297H36.3429ZM30.0606 61.2255C30.0372 61.2255 30.0089 61.1969 30.0089 61.1737V58.1981H36.3429V61.1737C36.3429 61.1971 36.3144 61.2255 36.2906 61.2255H30.0606ZM100.097 71.4114C98.2817 72.6353 96.7136 73.692 96.4824 75.2911C96.1647 77.4848 96.2981 79.909 96.4267 82.253C96.5866 85.1611 96.7676 88.4574 95.7973 89.8294C93.6985 92.797 91.8832 92.8258 85.2739 92.4653C83.0932 92.3465 80.3873 92.1993 77.1792 92.1948C75.9471 92.0523 73.8624 92.2792 72.4713 94.9336C71.7647 96.2813 71.385 97.9751 71.05 99.4692C70.8817 100.22 70.6452 101.275 70.4237 101.859H44.0199C44.1123 101.63 44.2077 101.394 44.3055 101.153C47.3443 93.6429 49.2689 88.1351 46.3394 85.6495C40.1303 80.3787 36.1706 73.2415 35.0351 65.3661H36.2908C38.6459 65.3661 40.5618 63.4854 40.5618 61.1737V56.1278V49.0633C40.6869 47.7331 41.0386 46.9222 42.5986 45.9837C47.5917 42.9813 50.7246 37.9304 51.1755 32.2787C56.3528 29.2592 62.2582 27.6663 68.3255 27.6663C78.3762 27.6663 90.105 33.7672 95.6072 41.8576C97.9655 45.3249 100.243 50.7191 97.7021 56.7251C96.8743 58.6809 98.1016 61.3934 100.172 65.6566C100.842 67.0366 101.813 69.0345 102.07 69.9678C101.634 70.3758 100.697 71.0073 100.097 71.4114Z" fill="#007FD8"/>
<path d="M43.523 27.9356C42.9001 25.6697 41.3516 23.8548 39.0446 22.6866C38.0093 22.163 36.7371 22.5613 36.2028 23.5778C35.6689 24.5941 36.0752 25.8427 37.1107 26.3667C38.3702 27.0044 39.1355 27.8706 39.4498 29.014C39.9474 30.8243 39.1948 32.783 38.8644 33.2917C38.2382 34.2561 38.5269 35.5359 39.5093 36.1506C39.8607 36.3707 40.2532 36.4752 40.6411 36.4752C41.3379 36.4752 42.0196 36.1371 42.4217 35.5177C43.3215 34.1329 44.3572 30.9703 43.523 27.9356Z" fill="#007FD8"/>
<path d="M33.1758 0C32.0108 0 31.0664 0.927289 31.0664 2.0703V7.97233C31.0664 9.11534 32.0108 10.0426 33.1758 10.0426C34.3406 10.0426 35.2851 9.11534 35.2851 7.97233V2.0703C35.2851 0.927289 34.3406 0 33.1758 0Z" fill="#007FD8"/>
<path d="M9.77119 28.873H3.7578C2.5928 28.873 1.64844 29.8003 1.64844 30.9434C1.64844 32.0868 2.5928 33.0137 3.7578 33.0137H9.7714C10.9362 33.0137 11.8806 32.0868 11.8806 30.9434C11.8806 29.8003 10.936 28.873 9.77119 28.873Z" fill="#007FD8"/>
<path d="M23.2987 10.0126L20.2929 4.9035C19.7103 3.91327 18.42 3.57436 17.4113 4.14576C16.4026 4.71758 16.0569 5.98357 16.6395 6.9738L19.6453 12.0829C20.0362 12.7473 20.7449 13.1185 21.4739 13.1185C21.8319 13.1185 22.1947 13.029 22.5267 12.8406C23.5356 12.2688 23.8814 11.0028 23.2987 10.0126Z" fill="#007FD8"/>
<path d="M13.9594 17.6652L8.75329 14.715C7.74459 14.1436 6.45429 14.4829 5.87189 15.4727C5.28928 16.463 5.63501 17.729 6.64392 18.3008L11.85 21.251C12.1821 21.4394 12.5449 21.5288 12.9026 21.5288C13.6316 21.5288 14.3406 21.1576 14.7314 20.4932C15.3141 19.5034 14.9683 18.237 13.9594 17.6652Z" fill="#007FD8"/>
<path d="M60.4815 15.472C59.8986 14.4818 58.6088 14.1425 57.6001 14.7143L52.3939 17.6645C51.385 18.2363 51.0393 19.5027 51.6219 20.4925C52.0125 21.1569 52.7215 21.5281 53.4505 21.5281C53.8083 21.5281 54.1711 21.4387 54.5033 21.2503L59.7094 18.3001C60.7183 17.7283 61.0641 16.4623 60.4815 15.472Z" fill="#007FD8"/>
<path d="M14.7335 41.3948C14.1513 40.4046 12.8616 40.0657 11.8525 40.6367L6.64512 43.5869C5.63621 44.1583 5.29027 45.4247 5.87267 46.4149C6.26332 47.0793 6.97249 47.4505 7.70149 47.4505C8.05924 47.4505 8.42184 47.361 8.75406 47.173L13.9612 44.2229C14.9702 43.6515 15.3161 42.3851 14.7335 41.3948Z" fill="#007FD8"/>
<path d="M22.0929 49.7843C21.0844 49.2129 19.7941 49.5523 19.2115 50.5421L16.6393 54.9152C16.0569 55.9054 16.4027 57.1718 17.4116 57.7432C17.7438 57.9316 18.1064 58.0211 18.4641 58.0211C19.1931 58.0211 19.9023 57.6499 20.293 56.9855L22.8651 52.6124C23.4477 51.6222 23.102 50.3562 22.0929 49.7843Z" fill="#007FD8"/>
<path d="M48.9399 4.14595C47.9307 3.57413 46.6411 3.91345 46.0585 4.90368L43.0526 10.0128C42.47 11.003 42.8155 12.2692 43.8244 12.8408C44.1567 13.0292 44.5195 13.1186 44.8772 13.1186C45.6062 13.1186 46.3152 12.7474 46.706 12.0831L49.7119 6.97398C50.2945 5.98376 49.9488 4.71777 48.9399 4.14595Z" fill="#007FD8"/>
</svg>
