<svg width="47" height="47" viewBox="0 0 47 47" fill="none" xmlns="http://www.w3.org/2000/svg">
<path d="M44.9901 25.9374C44.5577 25.0472 43.8416 23.5729 43.8288 23.0853C45.0621 20.1016 44.6122 16.7997 42.5579 13.7795C39.3988 9.13442 32.9241 5.76293 27.1627 5.76293C24.1172 5.76293 21.1433 6.47574 18.4677 7.83644C17.7002 3.70857 14.0117 0.568848 9.58774 0.568848C4.609 0.568848 0.558594 4.54425 0.558594 9.43068C0.558594 12.5396 2.17289 15.3662 4.87647 16.992C5.65588 17.4607 5.83222 17.8658 5.89487 18.5297V22.064V24.587C5.89487 25.7428 6.85273 26.6832 8.03008 26.6832H8.38867C8.96801 31.2146 11.2025 35.3288 14.7494 38.3564C14.7828 38.4586 14.8803 38.938 14.4612 40.3683C14.1348 41.4825 13.6338 42.7202 13.192 43.8123C12.8963 44.543 12.6408 45.1742 12.4864 45.6514C12.3847 45.966 12.4418 46.3094 12.6404 46.576C12.8391 46.8424 13.1553 47 13.4916 47H28.5467C29.0414 47 29.7208 46.7826 30.1485 45.7469C30.3346 45.2962 30.4561 44.754 30.5849 44.1798C30.7102 43.6204 31.004 42.3102 31.2962 42.152C31.2964 42.152 31.3135 42.1492 31.3547 42.1554C31.4088 42.1639 31.4636 42.1679 31.5184 42.1679C33.095 42.1679 34.3833 42.2381 35.52 42.2999C38.8537 42.4814 40.8661 42.5911 42.6313 40.0955C43.529 38.8262 43.4272 36.975 43.3196 35.0152C43.2641 34.0051 43.2068 32.9625 43.3085 32.0958C43.4925 31.9178 43.9534 31.6073 44.2424 31.4126C45.2367 30.7423 46.1757 30.1095 46.1757 29.1473C46.176 28.416 45.7253 27.4511 44.9901 25.9374ZM5.97861 15.2264C3.90563 13.9801 2.66807 11.8135 2.66807 9.43058C2.66807 5.6856 5.77232 2.63905 9.58784 2.63905C13.4035 2.63905 16.5076 5.68571 16.5076 9.43058C16.5076 11.8135 15.2702 13.9802 13.1971 15.2266C12.2119 15.8192 11.6263 16.5104 11.3484 17.4443L9.58753 17.4437L7.82747 17.4443C7.54935 16.5105 6.9639 15.8192 5.97861 15.2264ZM11.1715 19.5148V21.0287H8.00445V19.5148H11.1715ZM8.03029 24.6127C8.01858 24.6127 8.00445 24.5985 8.00445 24.5869V23.099H11.1715V24.5869C11.1715 24.5986 11.1572 24.6127 11.1453 24.6127H8.03029ZM43.0486 29.7057C42.1409 30.3177 41.3568 30.846 41.2412 31.6456C41.0824 32.7424 41.149 33.9545 41.2134 35.1265C41.2933 36.5806 41.3838 38.2287 40.8987 38.9147C39.8492 40.3985 38.9416 40.4129 35.6369 40.2327C34.5466 40.1733 33.1937 40.0997 31.5896 40.0974C30.9736 40.0262 29.9312 40.1396 29.2356 41.4668C28.8823 42.1407 28.6925 42.9875 28.525 43.7346C28.4408 44.11 28.3226 44.6376 28.2119 44.9295H15.01C15.0562 44.8151 15.1038 44.6972 15.1528 44.5763C16.6722 40.8215 17.6344 38.0675 16.1697 36.8247C13.0651 34.1894 11.0853 30.6208 10.5175 26.683H11.1454C12.323 26.683 13.2809 25.7427 13.2809 24.5869V22.0639V18.5316C13.3435 17.8666 13.5193 17.4611 14.2993 16.9918C16.7959 15.4907 18.3623 12.9652 18.5878 10.1393C21.1764 8.62958 24.1291 7.83313 27.1628 7.83313C32.1881 7.83313 38.0525 10.8836 40.8036 14.9288C41.9828 16.6625 43.1217 19.3596 41.851 22.3625C41.4372 23.3404 42.0508 24.6967 43.0861 26.8283C43.4212 27.5183 43.9064 28.5172 44.0349 28.9839C43.817 29.1879 43.3485 29.5036 43.0486 29.7057Z" fill="#007FD8"/>
</svg>
