<svg width="624" height="218" viewBox="0 0 624 218" fill="none" xmlns="http://www.w3.org/2000/svg">
<path d="M6 202.036L1 199.624V217.308H623V1L616.5 4.83696L610.5 9.63315L606 7.71468L601 9.63315L595 13.4701L588 21.144L581 17.7867L568.5 21.144L560.5 27.8587L552 24.981L546 30.7364L538.5 34.5734L532 49.4416L525 46.0843L519.5 57.1155L506.5 70.5449L499.5 80.6571L491.5 77.8437L484.5 83.9742L468.5 80.6571L460 83.9742L453 87.4896L446 94.5258L438 91.9107L431 93.5666L425.5 104.118H418L410.5 110.353L405.5 105.557L400.5 101.241L396 105.557L390.5 118.507L386 113.231L382 122.858L373 110.353L364 116.588L359 119.466L354.5 126.66L351 120.447L342 123.662L336.5 115.149L327.5 117.068L318.635 126.181L311.5 122.858L306 126.66L297.5 137.212L292 132.504L285 126.181L279 128.083L271 137.692L264 136.121L256.5 137.692L251.5 136.121L246.483 137.692L233.5 139.13L227 142.954L224.5 142.008L219 142.954L216 147.284L212.5 149.787L207 152.08L203 148.179L201 152.56L193.405 142.954L187.5 139.13L175 144.406H169.5L165 143.447L158.5 146.169L149.5 140.09L144 143.447L137.5 149.385L127.5 149.787L126 145.366L118.5 140.543L114.5 146.169L97.5 149.385L87 164.55H81.5L78.5 158.315L75 178.939L70 177.5L65.5 175.102L62.5 181.337L54.9067 180.138L49 190.45L44 186.133L37.5 189.491L29 191.184L24.5 194.118L18.5 200.042L10 202.84L6 202.036Z" fill="#E8F1D2"/>
<path d="M1 199.624L6 202.036L10 202.84L18.5 200.042L24.5 194.118L29 191.184L37.5 189.491L44 186.133L49 190.45L54.9067 180.138L62.5 181.337L65.5 175.102L70 177.5L75 178.939L78.5 158.315L81.5 164.55H87L97.5 149.385L114.5 146.17L118.5 140.543L126 145.366L127.5 149.787L137.5 149.385L144 143.447L149.5 140.09L158.5 146.17L165 143.447L169.5 144.406H175L187.5 139.131L193.405 142.954L201 152.56L203 148.179L207 152.08L212.5 149.787L216 147.284L219 142.954L224.5 142.008L227 142.954L233.5 139.131L246.483 137.692L251.5 136.122L256.5 137.692L264 136.122L271 137.692L279 128.083L285 126.181L292 132.504L297.5 137.212L306 126.66L311.5 122.858L318.635 126.181L327.5 117.068L336.5 115.15L342 123.662L351 120.447L354.5 126.66L359 119.466L364 116.588L373 110.353L382 123.287L386 112.751L390.5 119.268L396 105.557L400.5 101.241L405.5 105.557L410.5 110.353L418 103.995H425.5L431 93.5667L438 91.9108L446 94.5259L453 87.4897L460 83.9743L468.5 80.6571L484.5 83.9743L491.5 77.8437L499.5 80.6571L506.5 70.5449L519.5 57.1156L525 46.0843L532 49.4416L538.5 34.5734L546 30.7365L552 24.981L560.5 27.8587L568.5 21.144L581 17.7867L588 21.144L595 13.4701L601 9.63316L606 7.71468L610.5 9.63316L616.5 4.83696L623 1" stroke="#B8D837" stroke-linejoin="round"/>
<path d="M6 202.036L1 199.624V217.309H623V77.0401L616.5 74.6286L610.5 75.4324L606 73.4229L601 74.2267L595 79.4516L588 80.6573L581 77.8439L568.5 79.8535L560.5 87.4899L552 86.6861L546 90.7052L538.5 91.911L532 102.361L525 99.9493L519.5 108.791L506.5 122.055L499.5 128.083L491.5 124.064L484.5 128.083L468.5 119.241L460 120.447L453 119.241L446 123.662L438 120.447L431 122.858L425.5 132.504L418 132.103L410.5 134.514L405.5 130.378L400.5 128.083L396 132.504L390.5 145.366L386 138.533L382 148.179L373 133.71L364 134.916L359 138.533L354.5 145.366L351 138.533L342 140.945L336.5 134.514L327.5 136.122L318.635 142.954L311.5 138.533L306 142.954L297.5 154.208L292 149.385L285 140.543L279 142.954L271 150.591L264 148.179L256.5 149.787L251.5 147.777L246.5 149.385L233.5 150.591L227 154.208L224.5 153.404L219 154.208L216 157.423L212.5 159.433L207 161.442L203 157.423L201 165.15L193.405 149.787L187.5 145.366L175 149.385H169.5L165 148.179L158.5 153.806L149.5 146.17L144 150.591L137.5 154.61H127.5L126 152.6L118.5 146.17L114.5 151.395L97.5 153.806L87 169.347H81.5L78.5 163.05L75 183.548L70 180.138L65.5 178.34L62.5 184.934L54.9067 182.536L49 193.596L44 187.165L37.5 191.184L29 192.792L24.5 197.615L18.5 201.232L10 202.84L6 202.036Z" fill="#DCEAFB"/>
<path d="M1 200.104L6 202.524L10 203.331L18.5 201.717L24.5 198.086L29 193.245L37.5 191.631L44 187.597L49 194.052L55.5 182.951L62.5 185.358L65.5 178.738L70 180.543L75 183.966L78.5 163.39L81.5 169.711H87L97.5 154.111L114.5 151.691L118.5 146.446L126 152.901L127.5 154.918H137.5L144 150.884L149.5 146.446L158.5 154.111L165 148.463L169.5 149.673H175L187.5 145.639L193.5 150.453L201 164.897L203 158.277L207 161.888L212.5 160.082L216 158.277L219 154.666L224.5 154.111L227 154.666L233.5 150.884L246.5 149.673L251.5 148.463L256.5 150.077L264 148.463L271 150.884L279 143.232L285 141.201L292 149.673L297.5 154.666L306 143.232L311.5 138.78L319 143.232L327.5 136.36L336.5 134.746L342 141.201L351 138.78L354.5 145.639L359 138.78L364 135.149L373 133.939L382 148.463L386 138.78L390.5 145.639L396 132.325L400.5 128.291L405.5 129.992L410.5 134.746L418 132.325L425.5 132.729L431 123.046L438 120.626L446 123.853L453 119.415L460 120.626L468.5 119.415L484.5 128.291L491.5 124.257L499.5 128.291L506.5 122.239L519.5 108.926L525 100.05L532 102.471L538.5 91.9812L546 90.7709L552 86.7364L560.5 87.5433L568.5 79.8779L581 77.8607L588 80.6848L595 79.4745L601 74.2297L606 73.4229L610.5 75.4401L616.5 74.6332L623 77.0538" stroke="#007FD8" stroke-opacity="0.5" stroke-linejoin="round"/>
</svg>
