<svg width="624" height="151" viewBox="0 0 624 151" fill="none" xmlns="http://www.w3.org/2000/svg">
<path d="M6 135.078L1 132.564V151H623V4.77095L616.5 2.25698L610.5 3.09497L606 1L601 1.83799L595 7.28492L588 8.5419L581 5.60894L568.5 7.70391L560.5 15.6648L552 14.8268L546 19.0168L538.5 20.2737L532 31.1676L525 28.6536L519.5 37.8715L506.5 51.6983L499.5 57.9832L491.5 53.7933L484.5 57.9832L468.5 48.7654L460 50.0224L453 48.7654L446 53.3743L438 50.0224L431 52.5363L425.5 62.5922L418 62.1732L410.5 64.6872L405.5 60.375L400.5 57.9832L396 62.5922L390.5 76L386 68.8771L382 78.933L373 63.8492L364 65.1061L359 68.8771L354.5 76L351 68.8771L342 71.3911L336.5 64.6872L327.5 66.3631L318.635 73.486L311.5 68.8771L306 73.486L297.5 85.2179L292 80.1899L285 70.9721L279 73.486L271 81.4469L264 78.933L256.5 80.6089L251.5 78.514L246.5 80.1899L233.5 81.4469L227 85.2179L224.5 84.3799L219 85.2179L216 88.5698L212.5 90.6648L207 92.7598L203 88.5698L201 96.625L193.405 80.6089L187.5 76L175 80.1899H169.5L165 78.933L158.5 84.7989L149.5 76.838L144 81.4469L137.5 85.6369H127.5L126 83.5419L118.5 76.838L114.5 82.2849L97.5 84.7989L87 101H81.5L78.5 94.4358L75 115.804L70 112.25L65.5 110.375L62.5 117.25L54.9067 114.75L49 126.279L44 119.575L37.5 123.765L29 125.441L24.5 130.469L18.5 134.24L10 135.916L6 135.078Z" fill="#DCEAFB"/>
<path d="M1 133.064L6 135.587L10 136.429L18.5 134.746L24.5 130.961L29 125.914L37.5 124.232L44 120.026L49 126.755L55.5 115.182L62.5 117.691L65.5 110.79L70 112.672L75 116.24L78.5 94.7906L81.5 101.38H87L97.5 85.1171L114.5 82.5936L118.5 77.126L126 83.8554L127.5 85.9583H137.5L144 81.7524L149.5 77.126L158.5 85.1171L165 79.2289L169.5 80.4907H175L187.5 76.2848L193.5 81.3038L201 96.3608L203 89.4597L207 93.2239L212.5 91.3418L216 89.4597L219 85.6954L224.5 85.1171L227 85.6954L233.5 81.7524L246.5 80.4907L251.5 79.2289L256.5 80.9113L264 79.2289L271 81.7524L279 73.7753L285 71.6584L292 80.4907L297.5 85.6954L306 73.7753L311.5 69.1349L319 73.7753L327.5 66.6114L336.5 64.929L342 71.6584L351 69.1349L354.5 76.2848L359 69.1349L364 65.3496L373 64.0878L382 79.2289L386 69.1349L390.5 76.2848L396 62.4055L400.5 58.1996L405.5 59.9731L410.5 64.929L418 62.4055L425.5 62.8261L431 52.732L438 50.2085L446 53.5732L453 48.9468L460 50.2085L468.5 48.9468L484.5 58.1996L491.5 53.9938L499.5 58.1996L506.5 51.8909L519.5 38.0115L525 28.7587L532 31.2822L538.5 20.3469L546 19.0852L552 14.8793L560.5 15.7205L568.5 7.72937L581 5.62644L588 8.57054L595 7.30878L601 1.84117L606 1L610.5 3.10293L616.5 2.26176L623 4.78527" stroke="#007FD8" stroke-opacity="0.5" stroke-linejoin="round"/>
</svg>
