<svg width="30" height="30" viewBox="0 0 30 30" fill="none" xmlns="http://www.w3.org/2000/svg">
<path d="M23.5935 20.0751C23.5712 20.0267 23.5503 19.9865 23.531 19.9543C23.211 19.3741 22.5994 18.662 21.6967 17.8177L21.6776 17.7984L21.6681 17.7889L21.6584 17.7792H21.6487C21.239 17.3861 20.9796 17.1217 20.8709 16.9864C20.6722 16.7286 20.6276 16.4676 20.7363 16.2032C20.813 16.0035 21.1014 15.5816 21.6006 14.937C21.8632 14.5954 22.0712 14.3216 22.2248 14.1154C23.3325 12.633 23.8127 11.6858 23.6654 11.2733L23.6082 11.1769C23.5697 11.1188 23.4705 11.0657 23.3106 11.0173C23.1504 10.969 22.9456 10.961 22.6958 10.9932L19.93 11.0124C19.8852 10.9965 19.8212 10.998 19.7379 11.0173C19.6546 11.0367 19.613 11.0464 19.613 11.0464L19.5649 11.0706L19.5266 11.0997C19.4946 11.1189 19.4594 11.1528 19.421 11.2011C19.3827 11.2493 19.3507 11.3058 19.3252 11.3703C19.024 12.1501 18.6817 12.8751 18.2974 13.5453C18.0605 13.9449 17.843 14.2913 17.6443 14.5845C17.4458 14.8777 17.2794 15.0937 17.145 15.2321C17.0105 15.3707 16.889 15.4817 16.78 15.5656C16.6711 15.6495 16.588 15.685 16.5304 15.672C16.4728 15.659 16.4184 15.6462 16.367 15.6333C16.2774 15.5752 16.2054 15.4963 16.1511 15.3964C16.0965 15.2966 16.0598 15.1708 16.0406 15.0194C16.0214 14.8678 16.0101 14.7375 16.0069 14.6279C16.0039 14.5184 16.0053 14.3636 16.0118 14.1638C16.0185 13.9639 16.0214 13.8287 16.0214 13.7578C16.0214 13.5129 16.0262 13.247 16.0357 12.9603C16.0454 12.6735 16.0532 12.4462 16.0598 12.2788C16.0663 12.1113 16.0693 11.934 16.0693 11.7471C16.0693 11.5602 16.058 11.4136 16.0357 11.3072C16.0136 11.201 15.9798 11.0978 15.9351 10.9979C15.8902 10.898 15.8245 10.8207 15.7383 10.7659C15.6518 10.7111 15.5444 10.6676 15.4166 10.6353C15.0772 10.558 14.645 10.5162 14.1199 10.5097C12.9292 10.4968 12.164 10.5742 11.8247 10.7418C11.6902 10.8126 11.5686 10.9093 11.4598 11.0317C11.3445 11.1735 11.3284 11.2509 11.4116 11.2636C11.7958 11.3216 12.0678 11.4602 12.2279 11.6793L12.2856 11.7954C12.3305 11.8791 12.3753 12.0274 12.4201 12.2401C12.4649 12.4527 12.4938 12.6879 12.5065 12.9456C12.5385 13.4161 12.5385 13.8189 12.5065 14.154C12.4744 14.4892 12.4442 14.7501 12.4153 14.937C12.3864 15.1239 12.3432 15.2754 12.2856 15.3914C12.2279 15.5074 12.1895 15.5783 12.1703 15.604C12.1511 15.6297 12.1351 15.6459 12.1224 15.6523C12.0391 15.6844 11.9526 15.7008 11.863 15.7008C11.7733 15.7008 11.6645 15.6556 11.5365 15.5653C11.4085 15.4751 11.2757 15.3511 11.138 15.1932C11.0003 15.0352 10.8451 14.8145 10.6721 14.5309C10.4993 14.2474 10.3201 13.9123 10.1344 13.5256L9.98076 13.2452C9.88472 13.0648 9.75354 12.8021 9.58707 12.4574C9.4205 12.1126 9.27327 11.779 9.14528 11.4567C9.09411 11.3214 9.01725 11.2184 8.91483 11.1475L8.86676 11.1184C8.83481 11.0927 8.78351 11.0653 8.71314 11.0362C8.64267 11.0071 8.56914 10.9863 8.49225 10.9734L5.86085 10.9927C5.59195 10.9927 5.4095 11.054 5.31344 11.1765L5.27499 11.2344C5.25578 11.2667 5.24609 11.3182 5.24609 11.3891C5.24609 11.46 5.2653 11.547 5.30375 11.6501C5.68788 12.5589 6.10562 13.4353 6.55697 14.2795C7.00831 15.1238 7.40052 15.8038 7.73336 16.3191C8.06626 16.8347 8.4056 17.3214 8.75135 17.7788C9.09711 18.2364 9.32598 18.5297 9.43795 18.6585C9.55007 18.7876 9.63813 18.8841 9.70214 18.9485L9.94228 19.1805C10.0959 19.3352 10.3216 19.5205 10.6193 19.7363C10.9171 19.9523 11.2468 20.1649 11.6085 20.3746C11.9703 20.5838 12.3912 20.7546 12.8714 20.8867C13.3516 21.0189 13.819 21.072 14.2736 21.0464H15.378C15.602 21.0269 15.7717 20.956 15.887 20.8337L15.9252 20.7852C15.9509 20.7467 15.975 20.687 15.9972 20.6066C16.0197 20.526 16.0308 20.4373 16.0308 20.3407C16.0243 20.0637 16.0452 19.814 16.0931 19.5916C16.141 19.3694 16.1956 19.2018 16.2566 19.089C16.3176 18.9762 16.3864 18.8811 16.463 18.8039C16.5397 18.7266 16.5944 18.6798 16.6265 18.6637C16.6584 18.6475 16.6839 18.6365 16.7031 18.6299C16.8567 18.5783 17.0376 18.6282 17.2458 18.7798C17.454 18.9313 17.6491 19.1183 17.8317 19.3405C18.0142 19.563 18.2335 19.8126 18.4895 20.0896C18.7457 20.3668 18.9697 20.5728 19.1617 20.7084L19.3537 20.8244C19.482 20.9018 19.6484 20.9727 19.8534 21.0371C20.0579 21.1015 20.2371 21.1176 20.391 21.0854L22.8494 21.0468C23.0926 21.0468 23.2818 21.0063 23.416 20.9259C23.5505 20.8453 23.6304 20.7566 23.6562 20.6601C23.6819 20.5634 23.6832 20.4538 23.661 20.3312C23.6383 20.209 23.6158 20.1235 23.5935 20.0751Z" fill="#959595"/>
<path fill-rule="evenodd" clip-rule="evenodd" d="M15 28.75C22.5939 28.75 28.75 22.5939 28.75 15C28.75 7.40608 22.5939 1.25 15 1.25C7.40608 1.25 1.25 7.40608 1.25 15C1.25 22.5939 7.40608 28.75 15 28.75ZM15 30C23.2843 30 30 23.2843 30 15C30 6.71573 23.2843 0 15 0C6.71573 0 0 6.71573 0 15C0 23.2843 6.71573 30 15 30Z" fill="#959595"/>
</svg>
