<svg width="31" height="30" viewBox="0 0 31 30" fill="none" xmlns="http://www.w3.org/2000/svg">
<path d="M23.7767 10.3769C23.2149 10.6279 22.6121 10.7981 21.9787 10.8741C22.6254 10.4836 23.1205 9.86437 23.3551 9.12873C22.7484 9.49029 22.0788 9.75283 21.3653 9.89515C20.7939 9.28068 19.9812 8.89795 19.0798 8.89795C17.3504 8.89795 15.9482 10.3115 15.9482 12.054C15.9482 12.3011 15.9758 12.5424 16.0293 12.7733C13.4271 12.6415 11.1196 11.3847 9.57528 9.4749C9.30533 9.94033 9.15175 10.4827 9.15175 11.0616C9.15175 12.1569 9.70501 13.1233 10.5444 13.6887C10.0312 13.6714 9.54857 13.5291 9.12601 13.2925V13.3319C9.12601 14.8609 10.2058 16.1369 11.6376 16.4274C11.3753 16.4985 11.0986 16.5379 10.8125 16.5379C10.6103 16.5379 10.4147 16.5178 10.223 16.4793C10.6217 17.7342 11.7778 18.6467 13.1476 18.6718C12.0764 19.518 10.7257 20.0209 9.25861 20.0209C9.00584 20.0209 8.75686 20.0055 8.51172 19.9776C9.89772 20.8748 11.5432 21.398 13.3117 21.398C19.0722 21.398 22.221 16.588 22.221 12.4165L22.2105 12.0078C22.8257 11.5654 23.358 11.0096 23.7767 10.3769Z" fill="#959595"/>
<path fill-rule="evenodd" clip-rule="evenodd" d="M15.666 28.75C23.2599 28.75 29.416 22.5939 29.416 15C29.416 7.40608 23.2599 1.25 15.666 1.25C8.0721 1.25 1.91602 7.40608 1.91602 15C1.91602 22.5939 8.0721 28.75 15.666 28.75ZM15.666 30C23.9503 30 30.666 23.2843 30.666 15C30.666 6.71573 23.9503 0 15.666 0C7.38174 0 0.666016 6.71573 0.666016 15C0.666016 23.2843 7.38174 30 15.666 30Z" fill="#959595"/>
</svg>
