<svg width="15" height="18" viewBox="0 0 15 18" fill="none" xmlns="http://www.w3.org/2000/svg">
<path d="M5.182 7.89341C5.07742 7.78446 4.94079 7.69334 4.77212 7.6197C4.60344 7.54719 4.39555 7.51074 4.14928 7.51074H2.28711V10.7634H3.40079V9.77942H4.05862C4.2644 9.77942 4.45416 9.75589 4.62832 9.70805C4.80163 9.66136 4.95218 9.58961 5.07826 9.49432C5.20435 9.39865 5.3026 9.27907 5.37176 9.13443C5.44091 8.99017 5.47549 8.81933 5.47549 8.62154C5.47549 8.50576 5.45272 8.38352 5.40718 8.25216C5.36163 8.12233 5.287 8.00237 5.182 7.89341ZM4.37025 8.8516C4.33483 8.89906 4.28928 8.93398 4.23362 8.95676C4.17796 8.97916 4.1147 8.9932 4.04386 8.99738C3.97302 9.00156 3.90217 9.00421 3.83133 9.00421H3.40121V8.34365H3.89711C3.96458 8.34365 4.03037 8.34593 4.09446 8.35125C4.15856 8.3558 4.21507 8.36833 4.26398 8.38997C4.3129 8.41085 4.35169 8.44274 4.38037 8.48564C4.40862 8.52778 4.42338 8.58586 4.42338 8.65837C4.42338 8.74037 4.40567 8.80491 4.37025 8.8516Z" fill="#919191"/>
<path d="M8.94143 8.01413C8.81323 7.8638 8.64582 7.74194 8.43877 7.64931C8.2313 7.55668 7.9766 7.51074 7.67636 7.51074H5.84961V10.7634H7.45877C7.77251 10.7634 8.04576 10.7255 8.27895 10.6492C8.5113 10.5736 8.70402 10.4647 8.85498 10.3238C9.00679 10.1822 9.1198 10.011 9.19486 9.80979C9.26908 9.60745 9.30619 9.38195 9.30619 9.13291C9.30619 8.93019 9.27751 8.72936 9.22016 8.53385C9.16239 8.33796 9.07004 8.16485 8.94143 8.01413ZM8.1651 9.3736C8.14654 9.46774 8.10901 9.55582 8.05377 9.63744C7.99769 9.71982 7.91799 9.78853 7.81341 9.8451C7.70883 9.90166 7.57052 9.929 7.39889 9.929H6.96371V8.34403H7.31793C7.51992 8.34403 7.67974 8.3744 7.79612 8.43515C7.91209 8.49589 8.00022 8.56878 8.05926 8.65381C8.11829 8.73923 8.15582 8.82427 8.17058 8.9112C8.18576 8.99814 8.1942 9.06685 8.1942 9.11886C8.19293 9.19441 8.18365 9.27945 8.1651 9.3736Z" fill="#919191"/>
<path d="M9.78613 10.7634H10.8998V9.52469H12.342V8.74986H10.8998V8.34403H12.5794V7.51074H9.78613V10.7634Z" fill="#919191"/>
<path d="M11.9135 0H0V17.1052H14.6322V2.3731L11.9135 0ZM13.3671 15.9659H1.26506V1.13891H11.2616V2.94597H13.3667L13.3671 15.9659Z" fill="#919191"/>
</svg>
