<svg width="218" height="66" viewBox="0 0 218 66" fill="none" xmlns="http://www.w3.org/2000/svg">
<path d="M45.2686 12.8473L51.5638 19.5819L61.8011 8.69835C63.7199 6.65861 64.5204 4.31822 61.9742 2.02472C59.2306 -0.446647 57.7312 0.469055 55.5965 2.58938L45.2686 12.8473Z" fill="#959595"/>
<path d="M9.61307 20.9208L28.4766 1.74114C30.9699 -0.404975 32.102 -0.669284 34.5988 1.52195L60.8205 28.6818C62.7474 30.6776 64.3768 33.1182 61.9961 35.7882C59.601 38.4753 56.9167 37.1356 54.9383 35.1324L45.3759 25.4506L35.6534 35.5289C33.754 37.498 31.0625 38.3835 28.8441 35.9166C26.541 33.3561 27.4732 31.0998 29.4293 29.0616L38.8878 19.2098L31.1021 11.6553L15.8232 27.125C13.6689 29.3065 10.5291 31.7064 7.92205 28.104C5.65943 24.9786 7.52324 23.0452 9.61307 20.9208Z" fill="#959595"/>
<path d="M1.7101 36.2271C10.8051 45.5116 19.9004 54.7955 28.9952 64.0802C30.7768 65.684 32.5587 65.684 34.3403 64.0802C41.1701 57.1649 47.9999 50.2501 54.8297 43.3347C56.6527 41.4895 56.6767 39.0864 54.5846 37.1112C52.0823 34.7479 50.3789 35.695 48.4245 37.6609L31.8459 54.3389C23.9924 46.4604 16.139 38.5827 8.28551 30.7045C6.21738 28.6296 3.82366 27.0818 1.22823 29.9628C-0.811541 32.2267 -0.0726745 34.4071 1.7101 36.2271Z" fill="#959595"/>
<path d="M59.3895 54.0425L67.1471 31.9268C68.8891 29.6312 71.708 29.7443 72.5284 31.9866L65.9562 50.6762L76.9359 50.9039C78.8619 51.9867 77.3031 54.4946 75.9811 55.3482L60.7069 55.4675C59.7857 55.517 59.1443 54.6678 59.3895 54.0425Z" fill="#959595"/>
<path d="M108.619 55.5985C106.173 55.5985 104.404 55.0526 103.321 53.9602C102.232 52.8622 101.891 51.2852 102.297 49.2287C102.395 48.7947 102.523 48.3262 102.681 47.8248C102.833 47.3229 103.014 46.8215 103.221 46.3087C104.446 43.355 106.19 41.0478 108.454 39.3813C110.724 37.7152 113.246 36.8848 116.039 36.8848C118.392 36.8848 120.066 37.431 121.057 38.5178C122.047 39.6043 122.336 41.2098 121.919 43.3219C121.816 43.8403 121.669 44.4029 121.481 44.9995C120.845 47.0181 120.441 47.5476 118.571 47.6502L107.698 47.4354L107.623 47.6637C107.511 47.9921 107.427 48.2989 107.369 48.5943C107.168 49.6697 107.302 50.4782 107.766 51.0182C108.236 51.5588 109.047 51.8264 110.206 51.8264C111.047 51.8264 111.845 51.6538 112.6 51.3136C113.356 50.9681 113.933 50.5224 114.331 49.9648C116.28 48.6975 120.052 48.9574 119.17 50.4483L119.171 50.5025C117.958 52.2357 116.539 53.0673 114.612 54.0774C112.682 55.0889 110.689 55.5985 108.619 55.5985ZM116.77 44.3806L116.909 43.762C117.112 42.7365 117.01 41.9734 116.596 41.4773C116.182 40.9812 115.455 40.736 114.408 40.736C113.09 40.736 111.901 41.2209 110.839 42.1906C110.221 42.759 109.647 43.4892 109.112 44.3809H116.77V44.3806Z" fill="#959595"/>
<path d="M122.987 51.4585C125.427 44.5358 127.591 38.0673 130.099 31.069C130.336 30.4088 131.215 30.2081 131.925 30.2749L143.79 30.4709C145.571 30.5002 147.801 30.1547 146.971 32.9097C146.283 35.1968 144.333 34.7593 142.476 34.7593H133.797L131.908 40.0692C134.256 40.0692 136.342 40.0692 138.559 40.0692C140.422 40.0692 142.367 39.8275 141.798 42.593C141.34 44.8264 139.475 44.3169 137.769 44.3169H130.378L127.56 52.2658C126.875 54.1985 126.276 56.2878 123.576 55.6487C121.366 55.126 122.51 52.8099 122.987 51.4585Z" fill="#959595"/>
<path d="M149.72 55.3331C147.435 55.3331 145.739 54.7206 144.64 53.4958C143.54 52.2713 143.176 50.6083 143.555 48.5021C143.621 48.1423 143.719 47.7326 143.854 47.2775C143.988 46.8225 144.136 46.3841 144.301 45.9686C145.433 43.0586 147.147 40.7501 149.444 39.0371C151.736 37.3241 154.274 36.4702 157.06 36.4702C159.345 36.4702 161.04 37.0879 162.136 38.3295C163.232 39.5707 163.586 41.2559 163.192 43.3847C163.124 43.7557 163.019 44.1718 162.878 44.6318C162.743 45.0925 162.588 45.5417 162.42 45.9689C161.305 48.8446 159.604 51.1197 157.311 52.8051C155.025 54.49 152.494 55.3331 149.72 55.3331ZM151.264 51.3673C152.679 51.3673 153.92 50.8955 154.993 49.952C156.066 49.0078 156.967 47.587 157.713 45.6885C157.831 45.3793 157.938 45.0708 158.027 44.7666C158.118 44.4578 158.186 44.1768 158.233 43.9242C158.438 42.8174 158.303 41.9583 157.832 41.3517C157.357 40.7393 156.587 40.436 155.516 40.436C154.107 40.436 152.865 40.9133 151.788 41.8739C150.712 42.8344 149.795 44.284 149.038 46.2159C148.928 46.5078 148.829 46.8058 148.735 47.1035C148.641 47.4012 148.579 47.6763 148.545 47.9234C148.341 49.0243 148.473 49.8723 148.945 50.4683C149.416 51.0702 150.188 51.3673 151.264 51.3673Z" fill="#959595"/>
<path d="M162.891 54.3141L168.636 37.91L169.259 37.3583C170.558 36.2413 172.154 36.333 173.13 37.3975L172.015 41.0073C172.35 40.5561 172.558 39.8672 172.851 39.3719C174.187 37.1054 176.325 36.8742 177.861 36.8786C178.203 36.8795 178.545 36.89 178.887 36.8956C180.697 37.535 181.209 38.6476 180.424 40.2328C179.805 41.5131 178.846 41.9881 177.604 41.7958C177.257 41.7507 176.874 40.9396 176.187 40.8608C174.918 40.7149 173.787 41.2951 172.816 42.158C171.845 43.0213 171.069 44.2845 170.482 45.9369L167.156 55.3391C166.59 56.7289 162.56 55.5264 162.891 54.3141Z" fill="#959595"/>
<path d="M88.8754 30.064C87.3954 30.064 86.0221 31.3421 85.8184 32.9092C85.6149 34.476 86.6562 35.7542 88.1363 35.7542C89.6166 35.7542 90.9901 34.476 91.1936 32.9092C91.3971 31.3421 90.3557 30.064 88.8754 30.064Z" fill="#959595"/>
<path d="M84.4768 38.2794L79.9504 52.9848C79.5646 56.458 84.2238 56.2758 85.0107 53.6632C86.3388 48.9285 87.8852 44.1487 89.2133 39.4143C89.7371 36.6015 85.2327 36.3718 84.4768 38.2794Z" fill="#959595"/>
<path d="M95.5755 37.3697L93.1566 37.4587C92.2039 37.5625 91.3096 39.8932 92.1891 40.4868H94.1247L90.65 52.5102C90.1661 54.0838 90.6208 55.0633 92.0134 55.4493L98.3469 55.4935C100.238 55.3452 101.602 51.7826 99.7543 51.5749L96.2915 51.3522L99.2267 40.798H103.009C103.8 40.4121 104.695 37.9182 103.537 37.3691L100.362 37.3245L102.177 31.6853C102.408 30.3974 98.5993 29.4243 97.4671 31.1347L95.5755 37.3697Z" fill="#959595"/>
<path d="M185.302 55.5985C182.855 55.5985 181.087 55.0526 180.004 53.9602C178.915 52.8622 178.574 51.2852 178.98 49.2287C179.078 48.7947 179.205 48.3262 179.363 47.8248C179.515 47.3229 179.696 46.8215 179.904 46.3087C181.128 43.355 182.872 41.0478 185.137 39.3813C187.407 37.7152 189.929 36.8848 192.722 36.8848C195.074 36.8848 196.748 37.431 197.739 38.5178C198.73 39.6043 199.018 41.2098 198.601 43.3219C198.499 43.8403 198.352 44.4029 198.163 44.9995C197.528 47.0181 197.123 47.5476 195.253 47.6502L184.38 47.4354L184.305 47.6637C184.193 47.9921 184.109 48.2989 184.051 48.5943C183.85 49.6697 183.985 50.4782 184.448 51.0182C184.917 51.5588 185.729 51.8264 186.887 51.8264C187.729 51.8264 188.527 51.6538 189.282 51.3136C190.039 50.9681 190.615 50.5224 191.013 49.9648C192.962 48.6975 196.734 48.9574 195.852 50.4483L195.853 50.5025C194.64 52.2357 193.221 53.0673 191.294 54.0774C189.365 55.0889 187.372 55.5985 185.302 55.5985ZM193.452 44.3806L193.592 43.762C193.795 42.7365 193.693 41.9734 193.279 41.4773C192.865 40.9812 192.138 40.736 191.091 40.736C189.773 40.736 188.584 41.2209 187.522 42.1906C186.904 42.759 186.33 43.4892 185.795 44.3809H193.452V44.3806Z" fill="#959595"/>
<path d="M196.836 53.2496L204.528 45.8836L202.313 38.7118C202.162 37.0559 204.658 34.7299 207.193 37.6476L208.746 42.4977L213.867 37.2924C216.292 35.3409 218.912 38.114 217.678 39.2639L210.402 46.254L212.351 51.8671C213.088 53.9919 213.856 55.1769 210.94 55.796C208.737 56.2649 208.614 55.5578 208.054 53.7504L206.734 49.4901L200.81 55.1024C199.291 56.9819 195.552 54.9978 196.836 53.2496Z" fill="#959595"/>
</svg>
