<svg width="250" height="43" viewBox="0 0 250 43" fill="none" xmlns="http://www.w3.org/2000/svg">
<path d="M188.504 14.7981C187.906 14.0582 187.009 13.6512 186.037 13.6512C184.991 13.6512 184.168 14.0212 183.57 14.7241C182.674 15.7969 182.524 17.2398 182.524 18.6086H189.326C189.363 17.3137 189.363 15.9079 188.504 14.7981ZM25.5623 32.2228L24.4038 16.0559C24.2917 14.3541 24.2169 12.6893 24.1796 10.9876C23.8806 12.5784 23.4695 14.0952 23.021 15.649L18.2001 32.2228H12.968L8.59552 16.3149C8.10969 14.5391 7.66123 12.7633 7.36225 10.9506C7.32488 12.7633 7.25014 14.5761 7.13802 16.3889L6.09161 32.1858H0L2.87763 1.96075H10.7631L14.7619 17.1288C15.2103 18.7196 15.3972 20.3473 15.8083 21.9011C16.1073 20.2364 16.5931 18.6456 16.8921 16.9808L21.0403 1.96075H28.8511L31.5792 32.2228H25.5623ZM41.707 22.9C41.707 26.0446 43.1271 28.3753 46.5279 28.3753C48.6581 28.3753 50.5267 27.4504 52.1711 26.1556L54.4508 29.6331C52.059 31.5939 49.0692 32.7407 45.9674 32.7407C41.5201 32.7407 37.9324 30.447 36.2133 26.3776C34.98 23.4179 34.9427 18.8675 36.1012 15.8339C37.6334 11.8385 40.9595 9.39677 45.2199 9.39677C53.367 9.39677 54.7124 16.4628 54.7124 22.9H41.707ZM48.5086 16.5368C48.3218 14.8721 47.0138 13.6512 45.332 13.6512C43.5382 13.6512 42.2675 14.946 42.0059 16.6478C41.8938 17.3137 41.8191 17.9796 41.8191 18.6456H48.6208C48.6208 17.9426 48.5834 17.2397 48.5086 16.5368ZM70.1469 31.7419C67.2693 33.0737 62.7847 33.3696 60.3181 31.0389C58.898 29.6701 58.8606 27.8574 58.8606 26.0446V13.9472H56.6183V9.91471H58.8606C58.8606 8.17594 58.7859 6.40017 59.0849 4.66139L65.0644 3.18159C64.8775 5.43829 64.728 7.65801 64.728 9.91471H69.9975L68.5026 13.9102H64.728V25.0827C64.728 26.8585 64.8775 28.6343 67.0451 28.6343C67.7551 28.6343 68.7268 28.5233 69.3621 28.1903L70.1469 31.7419ZM88.7207 33.3696C87.4127 32.7777 86.2542 31.9268 85.5441 30.669C83.825 32.3708 82.1433 33.0737 79.6394 33.0737C75.1174 33.0737 71.9034 30.669 71.9034 26.1186C71.9034 24.6758 72.2024 23.3809 72.8003 22.2711C74.7063 18.7196 80.4989 18.0536 84.0493 18.4976V17.5727C84.0493 15.575 83.7129 14.2061 81.4706 14.2061C79.1162 14.2061 76.7617 15.39 74.9305 16.7588L72.3892 12.5784C75.2295 10.8026 78.6303 9.39677 82.0312 9.39677C87.7864 9.39677 89.7298 12.2454 89.7298 17.3137V24.7868C89.7298 26.9325 89.8793 28.3753 91.86 29.7441L88.7207 33.3696ZM79.2283 23.307C78.4435 23.8989 78.1445 25.0087 78.2193 26.0816C78.3314 27.5244 79.2283 28.8192 80.7979 28.8192C81.9938 28.8192 83.0776 28.1903 83.8624 27.3024L83.9371 22.4931C82.5544 22.4561 80.3868 22.3821 79.2283 23.307ZM114.657 6.9551H107.369V32.2228H101.128V6.9551H93.6538V1.96075H115.703L114.657 6.9551ZM127.326 15.02L128.97 9.87771C126.167 8.4349 123.215 10.3586 121.496 12.5784C121.421 11.4685 121.159 10.3586 120.562 9.39677L115.292 10.8026C116.04 12.8743 116.114 15.168 116.114 17.3507V32.2228H122.019V16.4628C123.252 15.02 125.532 13.8732 127.326 15.02ZM146.199 33.3696C144.891 32.7777 143.732 31.9268 143.022 30.669C141.266 32.4078 139.546 33.0737 137.117 33.0737C134.015 33.0737 131.474 32.1118 130.017 29.3372C129.568 28.4863 129.344 27.4134 129.344 26.1186C129.344 23.196 130.54 20.9023 133.268 19.6444C135.622 18.5716 138.948 18.2016 141.49 18.4976C141.49 16.4998 141.639 14.2431 138.911 14.2431C136.557 14.2431 134.202 15.427 132.371 16.7958L129.867 12.5784C132.707 10.8026 136.108 9.39677 139.509 9.39677C145.152 9.39677 147.208 12.0604 147.208 17.3137V24.7868C147.208 27.0065 147.395 28.3753 149.338 29.7441L146.199 33.3696ZM136.706 23.307C135.921 23.8989 135.697 24.8238 135.697 25.7486C135.697 27.3024 136.557 28.7822 138.276 28.7822C139.472 28.7822 140.555 28.1533 141.34 27.2654L141.415 22.4561C140.032 22.4561 137.865 22.3821 136.706 23.307ZM166.828 32.2228C166.604 31.8158 166.492 31.3719 166.492 30.928C164.959 32.1488 163.278 32.7407 161.297 32.7407C158.531 32.7407 156.065 31.7049 154.346 29.5221C152.477 27.2654 151.917 24.3058 151.917 21.4572C151.917 18.4236 152.552 15.094 154.495 12.6523C156.214 10.5436 158.83 9.39677 161.558 9.39677C163.053 9.39677 164.511 9.76672 165.557 10.8766C165.37 9.80372 165.37 8.73086 165.37 7.658V0L171.163 0.924879V24.0839C171.163 26.7105 170.976 29.7441 171.985 32.2228H166.828ZM165.52 15.7229C164.586 14.8721 163.502 14.2801 162.231 14.2801C158.718 14.2801 158.531 19.0155 158.531 21.4942C158.531 24.1948 158.681 27.8574 162.418 27.8574C163.651 27.8574 164.735 27.3764 165.557 26.4145V15.7229H165.52ZM210.852 15.02C209.058 13.8732 206.778 15.02 205.545 16.4628V32.2228H199.64V17.3137C199.64 15.168 199.528 12.8373 198.818 10.7656L204.088 9.35978C204.686 10.3217 204.947 11.4315 205.022 12.5414C206.741 10.3216 209.693 8.3979 212.496 9.84072L210.852 15.02ZM182.449 22.9C182.449 26.0446 183.869 28.3753 187.27 28.3753C189.363 28.3753 191.306 27.4504 192.913 26.1556L195.193 29.6331C192.801 31.5939 189.812 32.7407 186.71 32.7407C183.869 32.7407 181.104 31.7788 179.086 29.7811C176.806 27.4134 176.059 24.1948 176.059 21.0133C176.059 18.9045 176.32 17.1658 176.844 15.8339C178.376 11.8755 181.664 9.39677 185.962 9.39677C191.942 9.39677 194.969 13.6142 195.38 19.3485C195.455 20.5323 195.455 21.7162 195.455 22.9H182.449Z" fill="#959595"/>
<path d="M217.845 28.4642L236.085 1.76247L242.64 2.60568V27.902H249.195V32.6802H242.64V41.9555H236.769V32.6802H218.415L217.845 28.4642ZM236.769 9.35137L224.115 27.902H236.769V9.35137Z" fill="#959595"/>
<path fill-rule="evenodd" clip-rule="evenodd" d="M217.007 28.2658L235.699 0.902344L243.444 1.8986V27.0981H249.999V33.4841H243.444V42.7594H235.965V33.4841H217.712L217.007 28.2658ZM236.769 32.6802V41.9555H242.64V32.6802H249.195V27.902H242.64V2.60568L236.085 1.76247L217.845 28.4642L218.415 32.6802H236.769ZM224.115 27.902H236.769V9.35137L224.115 27.902ZM225.636 27.0981H235.965V11.9563L225.636 27.0981Z" fill="#959595"/>
</svg>
