<svg width="246" height="41" viewBox="0 0 246 41" fill="none" xmlns="http://www.w3.org/2000/svg">
<path d="M188.503 14.798C187.905 14.0581 187.008 13.6512 186.037 13.6512C184.99 13.6512 184.168 14.0212 183.57 14.7241C182.673 15.7969 182.524 17.2397 182.524 18.6085H189.325C189.363 17.3137 189.363 15.9079 188.503 14.798ZM25.5623 32.2227L24.4038 16.0559C24.2917 14.3541 24.2169 12.6893 24.1795 10.9876C23.8806 12.5783 23.4695 14.0951 23.021 15.6489L18.2001 32.2227H12.968L8.59551 16.3148C8.10968 14.5391 7.66121 12.7633 7.36224 10.9506C7.32487 12.7633 7.25012 14.5761 7.13801 16.3888L6.0916 32.1857H0L2.87763 1.96075H10.7631L14.7619 17.1287C15.2103 18.7195 15.3972 20.3473 15.8083 21.9011C16.1072 20.2363 16.5931 18.6455 16.892 16.9808L21.0403 1.96075H28.851L31.5792 32.2227H25.5623ZM41.7069 22.9C41.7069 26.0446 43.127 28.3752 46.5279 28.3752C48.6581 28.3752 50.5266 27.4504 52.171 26.1555L54.4507 29.6331C52.0589 31.5938 49.0691 32.7407 45.9673 32.7407C41.52 32.7407 37.9324 30.447 36.2132 26.3775C34.98 23.4179 34.9426 18.8675 36.1011 15.8339C37.6334 11.8384 40.9595 9.39675 45.2198 9.39675C53.3669 9.39675 54.7123 16.4628 54.7123 22.9H41.7069ZM48.5086 16.5368C48.3217 14.872 47.0137 13.6512 45.332 13.6512C43.5381 13.6512 42.2675 14.946 42.0059 16.6478C41.8938 17.3137 41.819 17.9796 41.819 18.6455H48.6207C48.6207 17.9426 48.5833 17.2397 48.5086 16.5368ZM70.1468 31.7418C67.2692 33.0736 62.7846 33.3696 60.318 31.0389C58.8979 29.6701 58.8605 27.8573 58.8605 26.0446V13.9472H56.6182V9.91469H58.8605C58.8605 8.17593 58.7858 6.40016 59.0848 4.66139L65.0643 3.18158C64.8774 5.43828 64.7279 7.65799 64.7279 9.91469H69.9973L68.5025 13.9102H64.7279V25.0827C64.7279 26.8585 64.8774 28.6342 67.045 28.6342C67.755 28.6342 68.7267 28.5232 69.362 28.1903L70.1468 31.7418ZM88.7206 33.3696C87.4126 32.7777 86.2541 31.9268 85.544 30.6689C83.8249 32.3707 82.1432 33.0736 79.6393 33.0736C75.1173 33.0736 71.9033 30.6689 71.9033 26.1185C71.9033 24.6757 72.2023 23.3809 72.8002 22.2711C74.7062 18.7195 80.4988 18.0536 84.0491 18.4976V17.5727C84.0491 15.5749 83.7128 14.2061 81.4705 14.2061C79.1161 14.2061 76.7616 15.39 74.9304 16.7588L72.3891 12.5783C75.2294 10.8026 78.6302 9.39675 82.031 9.39675C87.7863 9.39675 89.7296 12.2454 89.7296 17.3137V24.7867C89.7296 26.9324 89.8791 28.3752 91.8598 29.7441L88.7206 33.3696ZM79.2282 23.3069C78.4434 23.8988 78.1444 25.0087 78.2191 26.0815C78.3312 27.5244 79.2282 28.8192 80.7978 28.8192C81.9937 28.8192 83.0775 28.1903 83.8623 27.3024L83.937 22.493C82.5543 22.456 80.3867 22.382 79.2282 23.3069ZM114.657 6.95509H107.369V32.2227H101.128V6.95509H93.6537V1.96075H115.703L114.657 6.95509ZM127.326 15.02L128.97 9.8777C126.167 8.43489 123.215 10.3586 121.496 12.5783C121.421 11.4685 121.159 10.3586 120.561 9.39675L115.292 10.8026C116.039 12.8743 116.114 15.168 116.114 17.3507V32.2227H122.019V16.4628C123.252 15.02 125.532 13.8732 127.326 15.02ZM146.198 33.3696C144.89 32.7777 143.732 31.9268 143.022 30.6689C141.265 32.4077 139.546 33.0736 137.117 33.0736C134.015 33.0736 131.474 32.1118 130.016 29.3371C129.568 28.4862 129.344 27.4134 129.344 26.1185C129.344 23.1959 130.54 20.9022 133.268 19.6444C135.622 18.5715 138.948 18.2016 141.49 18.4976C141.49 16.4998 141.639 14.2431 138.911 14.2431C136.556 14.2431 134.202 15.427 132.371 16.7958L129.867 12.5783C132.707 10.8026 136.108 9.39675 139.509 9.39675C145.152 9.39675 147.207 12.0604 147.207 17.3137V24.7867C147.207 27.0064 147.394 28.3752 149.338 29.7441L146.198 33.3696ZM136.706 23.3069C135.921 23.8988 135.697 24.8237 135.697 25.7486C135.697 27.3024 136.556 28.7822 138.276 28.7822C139.471 28.7822 140.555 28.1533 141.34 27.2654L141.415 22.456C140.032 22.456 137.864 22.382 136.706 23.3069ZM166.828 32.2227C166.603 31.8158 166.491 31.3719 166.491 30.9279C164.959 32.1487 163.277 32.7407 161.297 32.7407C158.531 32.7407 156.065 31.7048 154.345 29.5221C152.477 27.2654 151.916 24.3058 151.916 21.4572C151.916 18.4236 152.552 15.094 154.495 12.6523C156.214 10.5436 158.83 9.39675 161.558 9.39675C163.053 9.39675 164.511 9.76671 165.557 10.8766C165.37 9.8037 165.37 8.73085 165.37 7.65799V0L171.163 0.924878V24.0838C171.163 26.7105 170.976 29.7441 171.985 32.2227H166.828ZM165.52 15.7229C164.585 14.872 163.502 14.2801 162.231 14.2801C158.718 14.2801 158.531 19.0155 158.531 21.4942C158.531 24.1948 158.681 27.8573 162.418 27.8573C163.651 27.8573 164.735 27.3764 165.557 26.4145V15.7229H165.52ZM210.852 15.02C209.058 13.8732 206.778 15.02 205.545 16.4628V32.2227H199.64V17.3137C199.64 15.168 199.528 12.8373 198.818 10.7656L204.087 9.35977C204.685 10.3216 204.947 11.4315 205.022 12.5413C206.741 10.3216 209.693 8.39789 212.496 9.8407L210.852 15.02ZM182.449 22.9C182.449 26.0446 183.869 28.3752 187.27 28.3752C189.363 28.3752 191.306 27.4504 192.913 26.1555L195.193 29.6331C192.801 31.5938 189.811 32.7407 186.709 32.7407C183.869 32.7407 181.104 31.7788 179.086 29.7811C176.806 27.4134 176.058 24.1948 176.058 21.0132C176.058 18.9045 176.32 17.1657 176.843 15.8339C178.375 11.8754 181.664 9.39675 185.962 9.39675C191.941 9.39675 194.969 13.6142 195.38 19.3484C195.454 20.5323 195.454 21.7161 195.454 22.9H182.449Z" fill="#959595"/>
<path d="M245.981 25.7116C245.981 29.929 244.075 33.7025 240.787 36.3662C237.05 39.3258 232.154 40.5466 227.445 40.5466C225.165 40.5466 222.811 40.1397 220.681 39.2518L221.129 34.2575C222.96 34.8864 224.941 35.1823 226.772 35.1823C231.93 35.1823 237.423 32.2597 237.423 26.6735C237.423 23.3809 235.33 21.0132 232.079 20.5693C228.902 20.1253 225.053 21.3092 222.4 22.1231L224.343 0H244.412L243.776 6.65912H231.668L230.846 14.6871C238.432 13.2812 245.981 17.8316 245.981 25.7116Z" fill="#959595"/>
</svg>
