<svg width="106" height="106" viewBox="0 0 106 106" fill="none" xmlns="http://www.w3.org/2000/svg">
<g clip-path="url(#clip0)">
<path d="M100.65 3.93359H23.0961C20.1459 3.93359 17.7465 6.33386 17.7465 9.28406V17.406H5.35046C2.40027 17.406 0 19.8063 0 22.7565V91.6024C0 97.3241 4.63637 101.984 10.3508 102.025H10.3718C10.3904 102.026 10.4074 102.028 10.426 102.028H65.3531C66.2104 102.028 66.9059 101.333 66.9059 100.475C66.9059 99.6176 66.2104 98.9221 65.3531 98.9221H17.8427C19.7019 97.0386 20.8519 94.4523 20.8519 91.6024V55.2919C20.8519 54.4347 20.1564 53.7392 19.2992 53.7392C18.4411 53.7392 17.7465 54.4347 17.7465 55.2919V91.6024C17.7465 95.625 14.4841 98.8995 10.4656 98.9213C10.4527 98.9213 10.4397 98.9197 10.426 98.9197C6.38966 98.9189 3.10547 95.6363 3.10547 91.6024V22.7565C3.10547 21.5191 4.11232 20.5115 5.35046 20.5115H17.7465V49.495C17.7465 50.3531 18.4411 51.0478 19.2992 51.0478C20.1564 51.0478 20.8519 50.3531 20.8519 49.495V9.28406C20.8519 8.04591 21.8588 7.03906 23.0961 7.03906H100.65C101.888 7.03906 102.895 8.04591 102.895 9.28406V91.6024C102.895 95.6387 99.6103 98.9221 95.574 98.9221H71.15C70.292 98.9221 69.5973 99.6176 69.5973 100.475C69.5973 101.333 70.292 102.028 71.15 102.028H95.574C101.323 102.028 106 97.3508 106 91.6024V9.28406C106 6.33386 103.6 3.93359 100.65 3.93359V3.93359Z" fill="#007FD8"/>
<path d="M34.0187 65.89H55.3146C57.3405 65.89 58.9886 64.2418 58.9886 62.216V40.9201C58.9886 38.8943 57.3405 37.2461 55.3146 37.2461H34.0187C31.9929 37.2461 30.3447 38.8943 30.3447 40.9201V62.216C30.3447 64.2418 31.9929 65.89 34.0187 65.89ZM33.4502 40.9201C33.4502 40.6063 33.7049 40.3516 34.0187 40.3516H55.3146C55.6276 40.3516 55.8832 40.6063 55.8832 40.9201V62.216C55.8832 62.529 55.6276 62.7845 55.3146 62.7845H34.0187C33.7049 62.7845 33.4502 62.529 33.4502 62.216V40.9201Z" fill="#007FD8"/>
<path d="M64.6338 40.3516H93.4524C94.3096 40.3516 95.0051 39.6569 95.0051 38.7988C95.0051 37.9408 94.3096 37.2461 93.4524 37.2461H64.6338C63.7766 37.2461 63.0811 37.9408 63.0811 38.7988C63.0811 39.6569 63.7766 40.3516 64.6338 40.3516Z" fill="#007FD8"/>
<path d="M64.6338 53.1211H93.4524C94.3096 53.1211 95.0051 52.4256 95.0051 51.5684C95.0051 50.7103 94.3096 50.0156 93.4524 50.0156H64.6338C63.7766 50.0156 63.0811 50.7103 63.0811 51.5684C63.0811 52.4256 63.7766 53.1211 64.6338 53.1211Z" fill="#007FD8"/>
<path d="M64.6338 65.8896H93.4524C94.3096 65.8896 95.0051 65.1942 95.0051 64.3369C95.0051 63.4789 94.3096 62.7842 93.4524 62.7842H64.6338C63.7766 62.7842 63.0811 63.4789 63.0811 64.3369C63.0811 65.1942 63.7766 65.8896 64.6338 65.8896Z" fill="#007FD8"/>
<path d="M31.8975 78.6592H93.4512C94.3085 78.6592 95.004 77.9645 95.004 77.1064C95.004 76.2492 94.3085 75.5537 93.4512 75.5537H31.8975C31.0402 75.5537 30.3447 76.2492 30.3447 77.1064C30.3447 77.9645 31.0402 78.6592 31.8975 78.6592Z" fill="#007FD8"/>
<path d="M31.8975 91.4287H93.4512C94.3085 91.4287 95.004 90.734 95.004 89.876C95.004 89.0179 94.3085 88.3232 93.4512 88.3232H31.8975C31.0402 88.3232 30.3447 89.0179 30.3447 89.876C30.3447 90.734 31.0402 91.4287 31.8975 91.4287Z" fill="#007FD8"/>
<path d="M30.3857 29.3004V12.8932C30.3857 12.556 30.5459 12.2988 30.8661 12.1225C31.1864 11.9454 31.5746 11.8564 32.0291 11.8564C32.6364 11.8564 33.099 11.9664 33.42 12.1856C33.7395 12.4048 34.0937 12.877 34.4819 13.6008L39.3609 23.0313V12.8681C39.3609 12.5309 39.521 12.2786 39.8412 12.1096C40.1607 11.9414 40.5489 11.8564 41.0042 11.8564C41.4595 11.8564 41.8469 11.9414 42.1671 12.1096C42.4874 12.2786 42.6475 12.5309 42.6475 12.8681V29.3004C42.6475 29.6215 42.4825 29.8738 42.1542 30.059C41.8258 30.245 41.4425 30.3372 41.0042 30.3372C40.1105 30.3372 39.4781 29.9919 39.1077 29.3004L33.6724 19.1373V29.3004C33.6724 29.6215 33.5082 29.8738 33.1799 30.059C32.8515 30.245 32.4674 30.3372 32.0291 30.3372C31.5746 30.3372 31.1864 30.245 30.8669 30.059C30.5459 29.8738 30.3857 29.6215 30.3857 29.3004Z" fill="#007FD8"/>
<path d="M45.6797 29.3004V12.8932C45.6797 12.573 45.8228 12.3206 46.1099 12.1346C46.3962 11.9494 46.7326 11.8564 47.1208 11.8564H56.121C56.4575 11.8564 56.7154 12.0004 56.8917 12.2867C57.0688 12.573 57.1578 12.9021 57.1578 13.2725C57.1578 13.6769 57.0648 14.023 56.8796 14.3093C56.6936 14.5964 56.4405 14.7387 56.121 14.7387H48.9663V19.7948H52.8093C53.1288 19.7948 53.3819 19.9258 53.5679 20.187C53.7531 20.4482 53.8461 20.7556 53.8461 21.1098C53.8461 21.43 53.7572 21.7204 53.58 21.9824C53.4029 22.2436 53.1466 22.3738 52.8093 22.3738H48.9663V27.4558H56.121C56.4405 27.4558 56.6936 27.5989 56.8796 27.8852C57.0648 28.1723 57.1578 28.5176 57.1578 28.922C57.1578 29.2924 57.0688 29.6215 56.8917 29.9078C56.7154 30.1949 56.4575 30.3372 56.121 30.3372H47.1208C46.7326 30.3372 46.3962 30.245 46.1099 30.0598C45.8228 29.8738 45.6797 29.6215 45.6797 29.3004Z" fill="#007FD8"/>
<path d="M58.8008 13.1714C58.8008 12.8172 59.028 12.5099 59.4833 12.2487C59.9378 11.9875 60.4101 11.8564 60.8986 11.8564C61.5059 11.8564 61.8682 12.0756 61.9855 12.5139L65.9806 26.2168L68.1293 17.4188C68.2805 16.8114 68.82 16.5082 69.7467 16.5082C70.6574 16.5082 71.1879 16.8114 71.3399 17.4188L73.4887 26.2168L77.4829 12.5139C77.601 12.0756 77.9633 11.8564 78.5706 11.8564C79.0591 11.8564 79.5306 11.9875 79.9859 12.2487C80.4412 12.5099 80.6685 12.8172 80.6685 13.1714C80.6685 13.2725 80.6515 13.3736 80.6183 13.4747L75.6124 29.3765C75.3592 30.1189 74.6427 30.4893 73.4636 30.4893C72.9582 30.4893 72.5029 30.3922 72.0985 30.1981C71.6941 30.0048 71.4491 29.7307 71.365 29.3765L69.7476 22.5509L68.1042 29.3765C68.0193 29.7307 67.7751 30.0048 67.3707 30.1981C66.9664 30.3922 66.5111 30.4893 66.0056 30.4893C65.4832 30.4893 65.0198 30.3922 64.6154 30.1981C64.2103 30.0048 63.958 29.7307 63.8569 29.3765L58.8509 13.4747C58.817 13.3736 58.8008 13.2725 58.8008 13.1714Z" fill="#007FD8"/>
<path d="M81.5039 27.4299C81.5039 27.0425 81.6511 26.6503 81.9463 26.254C82.2406 25.8586 82.5738 25.6604 82.945 25.6604C83.1634 25.6604 83.4125 25.7656 83.6907 25.9758C83.9689 26.1853 84.2382 26.4182 84.4994 26.6713C84.7606 26.9253 85.1358 27.1574 85.6251 27.3676C86.1136 27.5779 86.653 27.6822 87.2426 27.6822C88.0521 27.6822 88.7257 27.497 89.2652 27.1258C89.8046 26.7554 90.0739 26.2079 90.0739 25.4833C90.0739 24.9771 89.9267 24.5266 89.6315 24.1303C89.3371 23.7349 88.9489 23.4057 88.4686 23.1445C87.989 22.8833 87.4617 22.6302 86.8891 22.3859C86.3158 22.1417 85.7383 21.8676 85.1569 21.5643C84.5754 21.261 84.0449 20.9197 83.5645 20.5405C83.0841 20.1612 82.696 19.6557 82.4016 19.0233C82.1064 18.3917 81.9592 17.6711 81.9592 16.8624C81.9592 15.9558 82.1404 15.1552 82.5027 14.463C82.865 13.7699 83.3494 13.2313 83.9559 12.8463C84.5625 12.4614 85.2111 12.1791 85.9025 11.9996C86.5932 11.8201 87.3267 11.7295 88.1022 11.7295C88.5397 11.7295 89.0031 11.7602 89.4924 11.8209C89.9809 11.8815 90.4993 11.981 91.0476 12.1193C91.5951 12.2576 92.0415 12.4743 92.3868 12.7679C92.7321 13.0623 92.9052 13.4084 92.9052 13.8071C92.9052 14.1823 92.7871 14.5705 92.5518 14.9716C92.3156 15.3728 91.9954 15.5725 91.591 15.5725C91.439 15.5725 91.0257 15.4124 90.3521 15.0921C89.6776 14.7719 88.9279 14.6118 88.1022 14.6118C87.1916 14.6118 86.488 14.7848 85.9915 15.1301C85.4941 15.4763 85.245 15.9518 85.245 16.5583C85.245 17.0476 85.4472 17.473 85.8524 17.8353C86.2567 18.1976 86.7581 18.4928 87.3566 18.72C87.9542 18.9473 88.6036 19.2344 89.3032 19.5797C90.0019 19.925 90.6513 20.3003 91.2497 20.7046C91.8474 21.109 92.3496 21.6945 92.754 22.4612C93.1583 23.2286 93.3605 24.1263 93.3605 25.1542C93.3605 26.8824 92.8081 28.2168 91.705 29.1557C90.6003 30.0946 89.1471 30.5645 87.3436 30.5645C85.7424 30.5645 84.3692 30.2353 83.2232 29.5779C82.0765 28.922 81.5039 28.2055 81.5039 27.4299Z" fill="#007FD8"/>
</g>
<defs>
<clipPath id="clip0">
<rect width="106" height="106" fill="white"/>
</clipPath>
</defs>
</svg>
