<svg width="53" height="53" viewBox="0 0 53 53" fill="none" xmlns="http://www.w3.org/2000/svg">
<g clip-path="url(#clip0)">
<path d="M50.3248 1.9668H11.5481C10.073 1.9668 8.87323 3.16693 8.87323 4.64203V8.703H2.67523C1.20013 8.703 0 9.90313 0 11.3782V45.8012C0 48.662 2.31818 50.992 5.17538 51.0126H5.18589C5.19519 51.013 5.20368 51.0138 5.21298 51.0138H32.6766C33.1052 51.0138 33.4529 50.6665 33.4529 50.2374C33.4529 49.8088 33.1052 49.4611 32.6766 49.4611H8.92135C9.85097 48.5193 10.426 47.2262 10.426 45.8012V27.646C10.426 27.2173 10.0782 26.8696 9.6496 26.8696C9.22057 26.8696 8.87323 27.2173 8.87323 27.646V45.8012C8.87323 47.8125 7.24205 49.4497 5.2328 49.4607C5.22633 49.4607 5.21986 49.4598 5.21298 49.4598C3.19483 49.4594 1.55273 47.8182 1.55273 45.8012V11.3782C1.55273 10.7596 2.05616 10.2557 2.67523 10.2557H8.87323V24.7475C8.87323 25.1765 9.22057 25.5239 9.6496 25.5239C10.0782 25.5239 10.426 25.1765 10.426 24.7475V4.64203C10.426 4.02296 10.9294 3.51953 11.5481 3.51953H50.3248C50.9438 3.51953 51.4473 4.02296 51.4473 4.64203V45.8012C51.4473 47.8194 49.8052 49.4611 47.787 49.4611H35.575C35.146 49.4611 34.7986 49.8088 34.7986 50.2374C34.7986 50.6665 35.146 51.0138 35.575 51.0138H47.787C50.6616 51.0138 53 48.6754 53 45.8012V4.64203C53 3.16693 51.7999 1.9668 50.3248 1.9668V1.9668Z" fill="#007FD8"/>
<path d="M17.0098 32.945H27.6578C28.6707 32.945 29.4948 32.1209 29.4948 31.108V20.46C29.4948 19.4471 28.6707 18.623 27.6578 18.623H17.0098C15.9969 18.623 15.1729 19.4471 15.1729 20.46V31.108C15.1729 32.1209 15.9969 32.945 17.0098 32.945ZM16.7256 20.46C16.7256 20.3032 16.853 20.1758 17.0098 20.1758H27.6578C27.8143 20.1758 27.9421 20.3032 27.9421 20.46V31.108C27.9421 31.2645 27.8143 31.3923 27.6578 31.3923H17.0098C16.853 31.3923 16.7256 31.2645 16.7256 31.108V20.46Z" fill="#007FD8"/>
<path d="M32.3164 20.1758H46.7257C47.1543 20.1758 47.5021 19.8284 47.5021 19.3994C47.5021 18.9704 47.1543 18.623 46.7257 18.623H32.3164C31.8878 18.623 31.54 18.9704 31.54 19.3994C31.54 19.8284 31.8878 20.1758 32.3164 20.1758Z" fill="#007FD8"/>
<path d="M32.3164 26.5605H46.7257C47.1543 26.5605 47.5021 26.2128 47.5021 25.7842C47.5021 25.3552 47.1543 25.0078 46.7257 25.0078H32.3164C31.8878 25.0078 31.54 25.3552 31.54 25.7842C31.54 26.2128 31.8878 26.5605 32.3164 26.5605Z" fill="#007FD8"/>
<path d="M32.3164 32.9448H46.7257C47.1543 32.9448 47.5021 32.5971 47.5021 32.1685C47.5021 31.7394 47.1543 31.3921 46.7257 31.3921H32.3164C31.8878 31.3921 31.54 31.7394 31.54 32.1685C31.54 32.5971 31.8878 32.9448 32.3164 32.9448Z" fill="#007FD8"/>
<path d="M15.9492 39.3296H46.7261C47.1547 39.3296 47.5025 38.9822 47.5025 38.5532C47.5025 38.1246 47.1547 37.7769 46.7261 37.7769H15.9492C15.5206 37.7769 15.1729 38.1246 15.1729 38.5532C15.1729 38.9822 15.5206 39.3296 15.9492 39.3296Z" fill="#007FD8"/>
<path d="M15.9492 45.7144H46.7261C47.1547 45.7144 47.5025 45.367 47.5025 44.938C47.5025 44.509 47.1547 44.1616 46.7261 44.1616H15.9492C15.5206 44.1616 15.1729 44.509 15.1729 44.938C15.1729 45.367 15.5206 45.7144 15.9492 45.7144Z" fill="#007FD8"/>
<path d="M15.1924 14.6502V6.44661C15.1924 6.27799 15.2724 6.14941 15.4326 6.06126C15.5927 5.9727 15.7868 5.92822 16.014 5.92822C16.3177 5.92822 16.549 5.98322 16.7095 6.0928C16.8693 6.20238 17.0464 6.43852 17.2405 6.80042L19.6799 11.5156V6.43407C19.6799 6.26546 19.76 6.1393 19.9201 6.05479C20.0799 5.97068 20.2739 5.92822 20.5016 5.92822C20.7293 5.92822 20.9229 5.97068 21.0831 6.05479C21.2432 6.1393 21.3233 6.26546 21.3233 6.43407V14.6502C21.3233 14.8108 21.2408 14.9369 21.0766 15.0295C20.9124 15.1225 20.7208 15.1686 20.5016 15.1686C20.0548 15.1686 19.7386 14.9959 19.5534 14.6502L16.8357 9.56866V14.6502C16.8357 14.8108 16.7536 14.9369 16.5894 15.0295C16.4253 15.1225 16.2332 15.1686 16.014 15.1686C15.7868 15.1686 15.5927 15.1225 15.433 15.0295C15.2724 14.9369 15.1924 14.8108 15.1924 14.6502Z" fill="#007FD8"/>
<path d="M22.8398 14.6502V6.44661C22.8398 6.28648 22.9114 6.16032 23.055 6.06732C23.1981 5.97472 23.3663 5.92822 23.5604 5.92822H28.0605C28.2287 5.92822 28.3577 6.0002 28.4459 6.14334C28.5344 6.28648 28.5789 6.45106 28.5789 6.63625C28.5789 6.83843 28.5324 7.0115 28.4398 7.15464C28.3468 7.29819 28.2202 7.36935 28.0605 7.36935H24.4832V9.8974H26.4047C26.5644 9.8974 26.691 9.96291 26.784 10.0935C26.8766 10.2241 26.9231 10.3778 26.9231 10.5549C26.9231 10.715 26.8786 10.8602 26.79 10.9912C26.7015 11.1218 26.5733 11.1869 26.4047 11.1869H24.4832V13.7279H28.0605C28.2202 13.7279 28.3468 13.7995 28.4398 13.9426C28.5324 14.0861 28.5789 14.2588 28.5789 14.461C28.5789 14.6462 28.5344 14.8108 28.4459 14.9539C28.3577 15.0974 28.2287 15.1686 28.0605 15.1686H23.5604C23.3663 15.1686 23.1981 15.1225 23.055 15.0299C22.9114 14.9369 22.8398 14.8108 22.8398 14.6502Z" fill="#007FD8"/>
<path d="M29.4004 6.58571C29.4004 6.4086 29.514 6.25494 29.7417 6.12434C29.9689 5.99373 30.2051 5.92822 30.4493 5.92822C30.753 5.92822 30.9341 6.0378 30.9928 6.25697L32.9903 13.1084L34.0647 8.7094C34.1403 8.40572 34.41 8.25409 34.8734 8.25409C35.3287 8.25409 35.5939 8.40572 35.67 8.7094L36.7443 13.1084L38.7415 6.25697C38.8005 6.0378 38.9817 5.92822 39.2853 5.92822C39.5296 5.92822 39.7653 5.99373 39.993 6.12434C40.2206 6.25494 40.3342 6.4086 40.3342 6.58571C40.3342 6.63625 40.3257 6.6868 40.3092 6.73734L37.8062 14.6882C37.6796 15.0594 37.3214 15.2446 36.7318 15.2446C36.4791 15.2446 36.2514 15.1961 36.0492 15.0991C35.8471 15.0024 35.7245 14.8653 35.6825 14.6882L34.8738 11.2755L34.0521 14.6882C34.0097 14.8653 33.8876 15.0024 33.6854 15.0991C33.4832 15.1961 33.2555 15.2446 33.0028 15.2446C32.7416 15.2446 32.5099 15.1961 32.3077 15.0991C32.1051 15.0024 31.979 14.8653 31.9284 14.6882L29.4255 6.73734C29.4085 6.6868 29.4004 6.63625 29.4004 6.58571Z" fill="#007FD8"/>
<path d="M40.752 13.715C40.752 13.5213 40.8255 13.3251 40.9731 13.127C41.1203 12.9293 41.2869 12.8302 41.4725 12.8302C41.5817 12.8302 41.7062 12.8828 41.8453 12.9879C41.9844 13.0926 42.1191 13.2091 42.2497 13.3357C42.3803 13.4626 42.5679 13.5787 42.8126 13.6838C43.0568 13.7889 43.3265 13.8411 43.6213 13.8411C44.026 13.8411 44.3629 13.7485 44.6326 13.5629C44.9023 13.3777 45.0369 13.104 45.0369 12.7417C45.0369 12.4885 44.9633 12.2633 44.8158 12.0652C44.6686 11.8674 44.4745 11.7029 44.2343 11.5723C43.9945 11.4417 43.7309 11.3151 43.4446 11.193C43.1579 11.0709 42.8692 10.9338 42.5784 10.7821C42.2877 10.6305 42.0224 10.4599 41.7823 10.2702C41.5421 10.0806 41.348 9.82786 41.2008 9.51165C41.0532 9.19585 40.9796 8.83556 40.9796 8.43121C40.9796 7.97792 41.0702 7.57761 41.2513 7.23148C41.4325 6.88494 41.6747 6.61564 41.978 6.42316C42.2812 6.23069 42.6055 6.08957 42.9513 5.9998C43.2966 5.91003 43.6633 5.86475 44.0511 5.86475C44.2699 5.86475 44.5016 5.88011 44.7462 5.91044C44.9904 5.94077 45.2496 5.9905 45.5238 6.05965C45.7975 6.12879 46.0207 6.23716 46.1934 6.38394C46.3661 6.53113 46.4526 6.70419 46.4526 6.90354C46.4526 7.09116 46.3936 7.28526 46.2759 7.48582C46.1578 7.68638 45.9977 7.78625 45.7955 7.78625C45.7195 7.78625 45.5129 7.70619 45.176 7.54607C44.8388 7.38594 44.464 7.30588 44.0511 7.30588C43.5958 7.30588 43.244 7.39241 42.9957 7.56507C42.7471 7.73814 42.6225 7.9759 42.6225 8.27917C42.6225 8.5238 42.7236 8.7365 42.9262 8.91765C43.1284 9.0988 43.3791 9.24639 43.6783 9.36002C43.9771 9.47364 44.3018 9.61719 44.6516 9.78985C45.0009 9.96251 45.3256 10.1501 45.6249 10.3523C45.9237 10.5545 46.1748 10.8472 46.377 11.2306C46.5792 11.6143 46.6802 12.0631 46.6802 12.5771C46.6802 13.4412 46.4041 14.1084 45.8525 14.5779C45.3002 15.0473 44.5735 15.2822 43.6718 15.2822C42.8712 15.2822 42.1846 15.1177 41.6116 14.7889C41.0382 14.461 40.752 14.1027 40.752 13.715Z" fill="#007FD8"/>
</g>
<defs>
<clipPath id="clip0">
<rect width="53" height="53" fill="white"/>
</clipPath>
</defs>
</svg>
