<svg width="80" height="147" viewBox="0 0 80 147" fill="none" xmlns="http://www.w3.org/2000/svg">
<path d="M27.8633 104.961C27.9935 97.2135 28.8724 91.0938 30.5 86.6016C32.1276 82.1094 35.4479 77.1289 40.4609 71.6602L53.2539 58.4766C58.7227 52.2917 61.457 45.651 61.457 38.5547C61.457 31.7188 59.6667 26.3802 56.0859 22.5391C52.5052 18.6328 47.2969 16.6797 40.4609 16.6797C33.8203 16.6797 28.4818 18.4375 24.4453 21.9531C20.4089 25.4688 18.3906 30.1888 18.3906 36.1133H0.324219C0.454427 25.5664 4.19792 17.0703 11.5547 10.625C18.9766 4.11458 28.612 0.859375 40.4609 0.859375C52.7656 0.859375 62.3359 4.17969 69.1719 10.8203C76.0729 17.3958 79.5234 26.4453 79.5234 37.9688C79.5234 49.362 74.25 60.5924 63.7031 71.6602L53.0586 82.207C48.306 87.4805 45.9297 95.0651 45.9297 104.961H27.8633ZM27.082 135.918C27.082 132.988 27.9609 130.547 29.7188 128.594C31.5417 126.576 34.2109 125.566 37.7266 125.566C41.2422 125.566 43.9115 126.576 45.7344 128.594C47.5573 130.547 48.4688 132.988 48.4688 135.918C48.4688 138.848 47.5573 141.289 45.7344 143.242C43.9115 145.13 41.2422 146.074 37.7266 146.074C34.2109 146.074 31.5417 145.13 29.7188 143.242C27.9609 141.289 27.082 138.848 27.082 135.918Z" fill="#B6B6B6"/>
</svg>
