<svg width="14" height="20" viewBox="0 0 14 20" fill="none" xmlns="http://www.w3.org/2000/svg">
<path d="M2.50477 19.0874L2.50466 19.0875C2.32992 19.2513 2.07437 19.2957 1.85446 19.2004C1.63451 19.105 1.49219 18.8882 1.49219 18.6485V1.3514C1.49219 1.01924 1.76142 0.75 2.09359 0.75H12.4071C12.7393 0.75 13.0085 1.0192 13.0086 1.3514C13.0086 1.35142 13.0086 1.35145 13.0086 1.35147V18.6485C13.0086 18.8882 12.8663 19.105 12.6463 19.2004C12.5693 19.2338 12.4882 19.2499 12.4075 19.2499H12.4073C12.257 19.25 12.1096 19.1938 11.9962 19.0875L11.996 19.0874L7.76318 15.1217L7.2504 14.6413L6.73763 15.1217L2.50477 19.0874Z" stroke="#AAAAAA" stroke-width="1.5"/>
</svg>
