<svg width="17" height="17" viewBox="0 0 17 17" fill="none" xmlns="http://www.w3.org/2000/svg">
<path d="M16.7067 15.4843L12.6606 11.2762C13.701 10.0396 14.2709 8.48359 14.2709 6.86374C14.2709 3.07913 11.1918 0 7.4072 0C3.62259 0 0.543457 3.07913 0.543457 6.86374C0.543457 10.6484 3.62259 13.7275 7.4072 13.7275C8.828 13.7275 10.1819 13.299 11.3395 12.4854L15.4163 16.7255C15.5867 16.9024 15.8159 17 16.0615 17C16.294 17 16.5145 16.9114 16.6819 16.7502C17.0376 16.4079 17.049 15.8403 16.7067 15.4843ZM7.4072 1.79054C10.2046 1.79054 12.4804 4.06632 12.4804 6.86374C12.4804 9.66117 10.2046 11.9369 7.4072 11.9369C4.60978 11.9369 2.334 9.66117 2.334 6.86374C2.334 4.06632 4.60978 1.79054 7.4072 1.79054Z" fill="#AAAAAA"/>
</svg>
