<svg width="65" height="65" viewBox="0 0 65 65" fill="none" xmlns="http://www.w3.org/2000/svg">
<g clip-path="url(#clip0)">
<path d="M49.7062 22.065C49.178 21.5369 48.3194 21.5369 47.7913 22.065L29.7918 40.0646L19.9144 30.19C19.3863 29.6619 18.5277 29.6619 17.9996 30.19C17.4715 30.7182 17.4715 31.5768 17.9996 32.1049L28.8329 42.9382C29.0984 43.2008 29.4449 43.3336 29.7916 43.3336C30.1384 43.3336 30.4849 43.201 30.7477 42.9382L49.706 23.9799C50.2343 23.4516 50.2343 22.5932 49.7062 22.065Z" fill="#007FD8"/>
<path d="M59.9706 8.18184L32.8873 0.0568433C32.6328 -0.0189478 32.3647 -0.0189478 32.11 0.0568433L5.02671 8.18184C4.45517 8.35247 4.0625 8.88059 4.0625 9.47918V39.2709C4.0625 51.2471 22.322 61.899 32.0992 64.9404C32.2292 64.9811 32.3647 65 32.5 65C32.6353 65 32.7708 64.9811 32.9008 64.9404C42.678 61.8962 60.9375 51.247 60.9375 39.2708V9.47918C60.9375 8.88059 60.5448 8.35513 59.9706 8.18184ZM58.2292 39.2708C58.2292 48.7797 43.1628 58.7789 32.5 62.2266C21.8373 58.7789 6.77079 48.7797 6.77079 39.2708V10.4867L32.5 2.76793L58.2292 10.4867V39.2708Z" fill="#007FD8"/>
</g>
<defs>
<clipPath id="clip0">
<rect width="65" height="65" fill="white"/>
</clipPath>
</defs>
</svg>
