<svg width="31" height="30" viewBox="0 0 31 30" fill="none" xmlns="http://www.w3.org/2000/svg">
<path d="M18.7488 7.20312H11.814C9.45895 7.20312 7.54297 9.11784 7.54297 11.4712V18.4011C7.54297 20.7546 9.45895 22.6692 11.814 22.6692H18.7488C21.104 22.6692 23.02 20.7545 23.02 18.4011V11.4712C23.0201 9.11784 21.104 7.20312 18.7488 7.20312ZM21.6469 18.4011C21.6469 19.998 20.3468 21.297 18.7489 21.297H11.814C10.2161 21.2971 8.91617 19.998 8.91617 18.4011V11.4712C8.91617 9.87449 10.2161 8.57535 11.814 8.57535H18.7488C20.3468 8.57535 21.6468 9.87449 21.6468 11.4712V18.4011H21.6469Z" fill="#959595"/>
<path d="M15.281 10.9507C13.082 10.9507 11.293 12.7384 11.293 14.9359C11.293 17.1333 13.082 18.9209 15.281 18.9209C17.48 18.9209 19.269 17.1333 19.269 14.9359C19.269 12.7384 17.48 10.9507 15.281 10.9507ZM15.281 17.5486C13.8392 17.5486 12.6662 16.3766 12.6662 14.9358C12.6662 13.495 13.8392 12.3228 15.281 12.3228C16.7229 12.3228 17.8959 13.495 17.8959 14.9358C17.8959 16.3766 16.7228 17.5486 15.281 17.5486Z" fill="#959595"/>
<path d="M19.4367 9.78711C19.1721 9.78711 18.9122 9.89414 18.7254 10.0817C18.5376 10.2683 18.4297 10.5281 18.4297 10.7934C18.4297 11.0579 18.5377 11.3176 18.7254 11.5051C18.9121 11.6918 19.1721 11.7997 19.4367 11.7997C19.7022 11.7997 19.9613 11.6918 20.1489 11.5051C20.3366 11.3176 20.4437 11.0578 20.4437 10.7934C20.4437 10.5281 20.3366 10.2683 20.1489 10.0817C19.9622 9.89414 19.7022 9.78711 19.4367 9.78711Z" fill="#959595"/>
<path fill-rule="evenodd" clip-rule="evenodd" d="M15.334 28.75C22.9279 28.75 29.084 22.5939 29.084 15C29.084 7.40608 22.9279 1.25 15.334 1.25C7.74007 1.25 1.58398 7.40608 1.58398 15C1.58398 22.5939 7.74007 28.75 15.334 28.75ZM15.334 30C23.6183 30 30.334 23.2843 30.334 15C30.334 6.71573 23.6183 0 15.334 0C7.04971 0 0.333984 6.71573 0.333984 15C0.333984 23.2843 7.04971 30 15.334 30Z" fill="#959595"/>
</svg>
