<svg width="31" height="30" viewBox="0 0 31 30" fill="none" xmlns="http://www.w3.org/2000/svg">
<path d="M22.1715 15.3835V20.4657H19.2178V15.7239C19.2178 14.5327 18.7906 13.7198 17.7215 13.7198C16.9053 13.7198 16.4196 14.2676 16.206 14.7976C16.128 14.987 16.108 15.2507 16.108 15.5159V20.4657H13.1533C13.1533 20.4657 13.1931 12.4346 13.1533 11.6025H16.1077V12.8589C16.1017 12.8683 16.0939 12.8784 16.0883 12.8875H16.1077V12.8589C16.5002 12.2558 17.2012 11.3943 18.7703 11.3943C20.7142 11.3943 22.1715 12.6611 22.1715 15.3835ZM10.0626 7.33008C9.05177 7.33008 8.39062 7.99142 8.39062 8.86112C8.39062 9.71186 9.03264 10.3933 10.0233 10.3933H10.0431C11.0735 10.3933 11.7143 9.71199 11.7143 8.86112C11.6948 7.99142 11.0735 7.33008 10.0626 7.33008ZM8.56611 20.4657H11.5197V11.6025H8.56611V20.4657Z" fill="#959595"/>
<path fill-rule="evenodd" clip-rule="evenodd" d="M15.334 28.75C22.9279 28.75 29.084 22.5939 29.084 15C29.084 7.40608 22.9279 1.25 15.334 1.25C7.74007 1.25 1.58398 7.40608 1.58398 15C1.58398 22.5939 7.74007 28.75 15.334 28.75ZM15.334 30C23.6183 30 30.334 23.2843 30.334 15C30.334 6.71573 23.6183 0 15.334 0C7.04971 0 0.333984 6.71573 0.333984 15C0.333984 23.2843 7.04971 30 15.334 30Z" fill="#959595"/>
</svg>
