<svg width="76" height="75" viewBox="0 0 76 75" fill="none" xmlns="http://www.w3.org/2000/svg">
<path d="M73.9176 75H18.9552C18.4131 75 17.9736 74.5581 17.9736 74.0131V38.4869C17.9736 37.9419 18.4131 37.5 18.9552 37.5H73.9177C74.4597 37.5 74.8992 37.9419 74.8992 38.4869V74.0131C74.8991 74.5582 74.4596 75 73.9176 75Z" fill="#F5F5F5"/>
<path d="M75.0005 40.4108H17.9746V38.516C17.9746 37.9719 18.4149 37.5308 18.9579 37.5308H74.0173C74.5602 37.5308 75.0005 37.9719 75.0005 38.516V40.4108Z" fill="#FF4B55"/>
<path d="M75.0014 49.0503H17.9756V51.9302H75.0014V49.0503Z" fill="#FF4B55"/>
<path d="M75.0014 43.2905H17.9756V46.1704H75.0014V43.2905Z" fill="#FF4B55"/>
<path d="M75.0014 57.6901H18.9588C18.4159 57.6901 17.9756 57.2489 17.9756 56.7048V54.8101H75.0014V57.6901Z" fill="#FF4B55"/>
<path d="M75.0014 66.3301H17.9756V69.21H75.0014V66.3301Z" fill="#FF4B55"/>
<path d="M74.0181 74.9693H18.9588C18.4159 74.9693 17.9756 74.5281 17.9756 73.984V72.0894H75.0014V73.9841C75.0014 74.5282 74.5611 74.9693 74.0181 74.9693Z" fill="#FF4B55"/>
<path d="M75.0014 60.5703H17.9756V63.4502H75.0014V60.5703Z" fill="#FF4B55"/>
<path d="M43.4462 37.5H18.9534C18.4123 37.5 17.9736 37.9404 17.9736 38.4836V56.6434C17.9736 57.1866 18.4123 57.6271 18.9534 57.6271H43.4463C43.9873 57.6271 44.426 57.1866 44.426 56.6434V38.4836C44.4259 37.9404 43.9872 37.5 43.4462 37.5Z" fill="#41479B"/>
<path d="M20.6564 39.7898L20.8739 40.441L21.5616 40.4462C21.6506 40.447 21.6875 40.5603 21.6159 40.6131L21.0627 41.0209L21.2702 41.6752C21.2972 41.7599 21.2004 41.8301 21.1279 41.7784L20.5685 41.3793L20.0091 41.7785C19.9366 41.8301 19.8401 41.76 19.8668 41.6754L20.0744 41.021L19.5212 40.6132C19.4496 40.5603 19.4864 40.4471 19.5755 40.4463L20.2632 40.4411L20.4807 39.7899C20.5087 39.7055 20.6281 39.7055 20.6564 39.7898Z" fill="#F5F5F5"/>
<path d="M20.6564 43.196L20.8739 43.8471L21.5616 43.8523C21.6506 43.8531 21.6875 43.9665 21.6159 44.0192L21.0627 44.427L21.2702 45.0814C21.2972 45.1661 21.2004 45.2363 21.1279 45.1845L20.5685 44.7855L20.0091 45.1846C19.9366 45.2363 19.8401 45.1662 19.8668 45.0815L20.0744 44.4272L19.5212 44.0194C19.4496 43.9665 19.4864 43.8532 19.5755 43.8525L20.2632 43.8472L20.4807 43.1961C20.5087 43.1117 20.6281 43.1117 20.6564 43.196Z" fill="#F5F5F5"/>
<path d="M20.6564 46.6022L20.8739 47.2534L21.5616 47.2586C21.6506 47.2594 21.6875 47.3727 21.6159 47.4255L21.0627 47.8333L21.2702 48.4877C21.2972 48.5723 21.2004 48.6426 21.1279 48.5908L20.5685 48.1918L20.0091 48.5909C19.9366 48.6426 19.8401 48.5724 19.8668 48.4878L20.0744 47.8334L19.5212 47.4256C19.4496 47.3727 19.4864 47.2595 19.5755 47.2587L20.2632 47.2535L20.4807 46.6023C20.5087 46.518 20.6281 46.518 20.6564 46.6022Z" fill="#F5F5F5"/>
<path d="M20.6564 50.0086L20.8739 50.6597L21.5616 50.6649C21.6506 50.6657 21.6875 50.779 21.6159 50.8318L21.0627 51.2396L21.2702 51.894C21.2972 51.9787 21.2004 52.0489 21.1279 51.9971L20.5685 51.5981L20.0091 51.9972C19.9366 52.0489 19.8401 51.9788 19.8668 51.8941L20.0744 51.2397L19.5212 50.8319C19.4496 50.779 19.4864 50.6658 19.5755 50.665L20.2632 50.6598L20.4807 50.0087C20.5087 49.9242 20.6281 49.9242 20.6564 50.0086Z" fill="#F5F5F5"/>
<path d="M20.6564 53.4144L20.8739 54.0655L21.5616 54.0708C21.6506 54.0715 21.6875 54.1849 21.6159 54.2377L21.0627 54.6455L21.2702 55.2998C21.2972 55.3845 21.2004 55.4547 21.1279 55.403L20.5685 55.0039L20.0091 55.4031C19.9366 55.4547 19.8401 55.3846 19.8668 55.3L20.0744 54.6456L19.5212 54.2378C19.4496 54.1849 19.4864 54.0717 19.5755 54.0709L20.2632 54.0657L20.4807 53.4145C20.5087 53.3299 20.6281 53.3299 20.6564 53.4144Z" fill="#F5F5F5"/>
<path d="M23.3048 41.4597L23.5223 42.1108L24.21 42.116C24.2991 42.1168 24.3359 42.2301 24.2643 42.2829L23.7111 42.6907L23.9187 43.3451C23.9456 43.4298 23.8489 43.5 23.7764 43.4482L23.217 43.0491L22.6576 43.4482C22.5851 43.4999 22.4886 43.4298 22.5153 43.3451L22.7228 42.6907L22.1696 42.2829C22.098 42.23 22.1349 42.1168 22.2239 42.116L22.9116 42.1108L23.1291 41.4597C23.1571 41.3754 23.2766 41.3754 23.3048 41.4597Z" fill="#F5F5F5"/>
<path d="M23.3048 44.866L23.5223 45.5171L24.21 45.5224C24.2991 45.5231 24.3359 45.6365 24.2643 45.6893L23.7111 46.0971L23.9187 46.7514C23.9456 46.8361 23.8489 46.9063 23.7764 46.8546L23.217 46.4554L22.6576 46.8546C22.5851 46.9062 22.4886 46.8362 22.5153 46.7514L22.7228 46.0971L22.1696 45.6893C22.098 45.6364 22.1349 45.5231 22.2239 45.5224L22.9116 45.5171L23.1291 44.866C23.1571 44.7816 23.2766 44.7816 23.3048 44.866Z" fill="#F5F5F5"/>
<path d="M23.3048 48.2722L23.5223 48.9234L24.21 48.9286C24.2991 48.9294 24.3359 49.0427 24.2643 49.0955L23.7111 49.5033L23.9187 50.1577C23.9456 50.2424 23.8489 50.3126 23.7764 50.2608L23.217 49.8617L22.6576 50.2608C22.5851 50.3125 22.4886 50.2424 22.5153 50.1577L22.7228 49.5033L22.1696 49.0955C22.098 49.0426 22.1349 48.9294 22.2239 48.9286L22.9116 48.9234L23.1291 48.2722C23.1571 48.1879 23.2766 48.1879 23.3048 48.2722Z" fill="#F5F5F5"/>
<path d="M23.3048 51.6784L23.5223 52.3296L24.21 52.3348C24.2991 52.3356 24.3359 52.4489 24.2643 52.5017L23.7111 52.9095L23.9187 53.5639C23.9456 53.6485 23.8489 53.7187 23.7764 53.667L23.217 53.2678L22.6576 53.667C22.5851 53.7186 22.4886 53.6485 22.5153 53.5639L22.7228 52.9095L22.1696 52.5017C22.098 52.4488 22.1349 52.3356 22.2239 52.3348L22.9116 52.3296L23.1291 51.6784C23.1571 51.5942 23.2766 51.5942 23.3048 51.6784Z" fill="#F5F5F5"/>
<path d="M25.9532 39.7898L26.1708 40.441L26.8584 40.4462C26.9475 40.447 26.9843 40.5603 26.9128 40.6131L26.3596 41.0209L26.5671 41.6753C26.594 41.7599 26.4973 41.8302 26.4248 41.7784L25.8654 41.3792L25.306 41.7784C25.2335 41.83 25.137 41.7599 25.1637 41.6753L25.3712 41.0209L24.8181 40.6131C24.7465 40.5602 24.7833 40.447 24.8724 40.4462L25.56 40.441L25.7776 39.7898C25.8056 39.7055 25.9251 39.7055 25.9532 39.7898Z" fill="#F5F5F5"/>
<path d="M25.9532 43.196L26.1708 43.8471L26.8584 43.8524C26.9475 43.8531 26.9843 43.9665 26.9128 44.0193L26.3596 44.4271L26.5671 45.0814C26.594 45.1661 26.4973 45.2363 26.4248 45.1845L25.8654 44.7854L25.306 45.1845C25.2335 45.2362 25.137 45.1661 25.1637 45.0814L25.3712 44.4271L24.8181 44.0193C24.7465 43.9664 24.7833 43.8531 24.8724 43.8524L25.56 43.8471L25.7776 43.196C25.8056 43.1118 25.9251 43.1118 25.9532 43.196Z" fill="#F5F5F5"/>
<path d="M25.9532 46.6022L26.1708 47.2534L26.8584 47.2586C26.9475 47.2594 26.9843 47.3727 26.9128 47.4255L26.3596 47.8333L26.5671 48.4877C26.594 48.5723 26.4973 48.6426 26.4248 48.5908L25.8654 48.1917L25.306 48.5908C25.2335 48.6425 25.137 48.5723 25.1637 48.4877L25.3712 47.8333L24.8181 47.4255C24.7465 47.3726 24.7833 47.2594 24.8724 47.2586L25.56 47.2534L25.7776 46.6022C25.8056 46.518 25.9251 46.518 25.9532 46.6022Z" fill="#F5F5F5"/>
<path d="M25.9532 50.0086L26.1708 50.6597L26.8584 50.6649C26.9475 50.6657 26.9843 50.7791 26.9128 50.8318L26.3596 51.2396L26.5671 51.894C26.594 51.9787 26.4973 52.0489 26.4248 51.9971L25.8654 51.598L25.306 51.9971C25.2335 52.0488 25.137 51.9787 25.1637 51.894L25.3712 51.2396L24.8181 50.8318C24.7465 50.7789 24.7833 50.6657 24.8724 50.6649L25.56 50.6597L25.7776 50.0086C25.8056 49.9242 25.9251 49.9242 25.9532 50.0086Z" fill="#F5F5F5"/>
<path d="M25.9532 53.4144L26.1708 54.0656L26.8584 54.0708C26.9475 54.0716 26.9843 54.1849 26.9128 54.2377L26.3596 54.6455L26.5671 55.2999C26.594 55.3845 26.4973 55.4548 26.4248 55.403L25.8654 55.0038L25.306 55.403C25.2335 55.4546 25.137 55.3845 25.1637 55.2999L25.3712 54.6455L24.8181 54.2377C24.7465 54.1848 24.7833 54.0716 24.8724 54.0708L25.56 54.0656L25.7776 53.4144C25.8056 53.33 25.9251 53.33 25.9532 53.4144Z" fill="#F5F5F5"/>
<path d="M28.6017 41.4597L28.8192 42.1108L29.5069 42.116C29.5959 42.1168 29.6328 42.2301 29.5612 42.2829L29.008 42.6907L29.2155 43.3451C29.2425 43.4298 29.1457 43.5 29.0733 43.4482L28.5138 43.0491L27.9544 43.4482C27.882 43.4999 27.7854 43.4298 27.8122 43.3451L28.0197 42.6907L27.4665 42.2829C27.3949 42.23 27.4318 42.1168 27.5208 42.116L28.2085 42.1108L28.426 41.4597C28.4539 41.3754 28.5735 41.3754 28.6017 41.4597Z" fill="#F5F5F5"/>
<path d="M28.6017 44.866L28.8192 45.5171L29.5069 45.5224C29.5959 45.5231 29.6328 45.6365 29.5612 45.6893L29.008 46.0971L29.2155 46.7514C29.2425 46.8361 29.1457 46.9063 29.0733 46.8546L28.5138 46.4554L27.9544 46.8546C27.882 46.9062 27.7854 46.8362 27.8122 46.7514L28.0197 46.0971L27.4665 45.6893C27.3949 45.6364 27.4318 45.5231 27.5208 45.5224L28.2085 45.5171L28.426 44.866C28.4539 44.7816 28.5735 44.7816 28.6017 44.866Z" fill="#F5F5F5"/>
<path d="M28.6017 48.2722L28.8192 48.9234L29.5069 48.9286C29.5959 48.9294 29.6328 49.0427 29.5612 49.0955L29.008 49.5033L29.2155 50.1577C29.2425 50.2424 29.1457 50.3126 29.0733 50.2608L28.5138 49.8617L27.9544 50.2608C27.882 50.3125 27.7854 50.2424 27.8122 50.1577L28.0197 49.5033L27.4665 49.0955C27.3949 49.0426 27.4318 48.9294 27.5208 48.9286L28.2085 48.9234L28.426 48.2722C28.4539 48.1879 28.5735 48.1879 28.6017 48.2722Z" fill="#F5F5F5"/>
<path d="M28.6017 51.6784L28.8192 52.3296L29.5069 52.3348C29.5959 52.3356 29.6328 52.4489 29.5612 52.5017L29.008 52.9095L29.2155 53.5639C29.2425 53.6485 29.1457 53.7187 29.0733 53.667L28.5138 53.2678L27.9544 53.667C27.882 53.7186 27.7854 53.6485 27.8122 53.5639L28.0197 52.9095L27.4665 52.5017C27.3949 52.4488 27.4318 52.3356 27.5208 52.3348L28.2085 52.3296L28.426 51.6784C28.4539 51.5942 28.5735 51.5942 28.6017 51.6784Z" fill="#F5F5F5"/>
<path d="M31.2502 39.7898L31.4678 40.441L32.1554 40.4462C32.2445 40.447 32.2813 40.5603 32.2097 40.6131L31.6566 41.0209L31.8641 41.6753C31.891 41.7599 31.7943 41.8302 31.7218 41.7784L31.1623 41.3792L30.6029 41.7784C30.5304 41.83 30.4339 41.7599 30.4606 41.6753L30.6681 41.0209L30.1149 40.6131C30.0433 40.5602 30.0802 40.447 30.1693 40.4462L30.8569 40.441L31.0744 39.7898C31.1026 39.7055 31.2221 39.7055 31.2502 39.7898Z" fill="#F5F5F5"/>
<path d="M31.2502 43.196L31.4678 43.8471L32.1554 43.8524C32.2445 43.8531 32.2813 43.9665 32.2097 44.0193L31.6566 44.4271L31.8641 45.0814C31.891 45.1661 31.7943 45.2363 31.7218 45.1845L31.1623 44.7854L30.6029 45.1845C30.5304 45.2362 30.4339 45.1661 30.4606 45.0814L30.6681 44.4271L30.1149 44.0193C30.0433 43.9664 30.0802 43.8531 30.1693 43.8524L30.8569 43.8471L31.0744 43.196C31.1026 43.1118 31.2221 43.1118 31.2502 43.196Z" fill="#F5F5F5"/>
<path d="M31.2502 46.6022L31.4678 47.2534L32.1554 47.2586C32.2445 47.2594 32.2813 47.3727 32.2097 47.4255L31.6566 47.8333L31.8641 48.4877C31.891 48.5723 31.7943 48.6426 31.7218 48.5908L31.1623 48.1917L30.6029 48.5908C30.5304 48.6425 30.4339 48.5723 30.4606 48.4877L30.6681 47.8333L30.1149 47.4255C30.0433 47.3726 30.0802 47.2594 30.1693 47.2586L30.8569 47.2534L31.0744 46.6022C31.1026 46.518 31.2221 46.518 31.2502 46.6022Z" fill="#F5F5F5"/>
<path d="M31.2502 50.0086L31.4678 50.6597L32.1554 50.6649C32.2445 50.6657 32.2813 50.7791 32.2097 50.8318L31.6566 51.2396L31.8641 51.894C31.891 51.9787 31.7943 52.0489 31.7218 51.9971L31.1623 51.598L30.6029 51.9971C30.5304 52.0488 30.4339 51.9787 30.4606 51.894L30.6681 51.2396L30.1149 50.8318C30.0433 50.7789 30.0802 50.6657 30.1693 50.6649L30.8569 50.6597L31.0744 50.0086C31.1026 49.9242 31.2221 49.9242 31.2502 50.0086Z" fill="#F5F5F5"/>
<path d="M31.2502 53.4144L31.4678 54.0656L32.1554 54.0708C32.2445 54.0716 32.2813 54.1849 32.2097 54.2377L31.6566 54.6455L31.8641 55.2999C31.891 55.3845 31.7943 55.4548 31.7218 55.403L31.1623 55.0038L30.6029 55.403C30.5304 55.4546 30.4339 55.3845 30.4606 55.2999L30.6681 54.6455L30.1149 54.2377C30.0433 54.1848 30.0802 54.0716 30.1693 54.0708L30.8569 54.0656L31.0744 53.4144C31.1026 53.33 31.2221 53.33 31.2502 53.4144Z" fill="#F5F5F5"/>
<path d="M33.9015 41.4597L34.119 42.1108L34.8067 42.116C34.8957 42.1168 34.9326 42.2301 34.861 42.2829L34.3078 42.6907L34.5153 43.3451C34.5423 43.4298 34.4455 43.5 34.3731 43.4482L33.8136 43.0491L33.2542 43.4482C33.1818 43.4999 33.0852 43.4298 33.112 43.3451L33.3195 42.6907L32.7663 42.2829C32.6947 42.23 32.7316 42.1168 32.8206 42.116L33.5083 42.1108L33.7258 41.4597C33.754 41.3754 33.8733 41.3754 33.9015 41.4597Z" fill="#F5F5F5"/>
<path d="M33.9015 44.866L34.119 45.5171L34.8067 45.5224C34.8957 45.5231 34.9326 45.6365 34.861 45.6893L34.3078 46.0971L34.5153 46.7514C34.5423 46.8361 34.4455 46.9063 34.3731 46.8546L33.8136 46.4554L33.2542 46.8546C33.1818 46.9062 33.0852 46.8362 33.112 46.7514L33.3195 46.0971L32.7663 45.6893C32.6947 45.6364 32.7316 45.5231 32.8206 45.5224L33.5083 45.5171L33.7258 44.866C33.754 44.7816 33.8733 44.7816 33.9015 44.866Z" fill="#F5F5F5"/>
<path d="M33.9015 48.2722L34.119 48.9234L34.8067 48.9286C34.8957 48.9294 34.9326 49.0427 34.861 49.0955L34.3078 49.5033L34.5153 50.1577C34.5423 50.2424 34.4455 50.3126 34.3731 50.2608L33.8136 49.8617L33.2542 50.2608C33.1818 50.3125 33.0852 50.2424 33.112 50.1577L33.3195 49.5033L32.7663 49.0955C32.6947 49.0426 32.7316 48.9294 32.8206 48.9286L33.5083 48.9234L33.7258 48.2722C33.754 48.1879 33.8733 48.1879 33.9015 48.2722Z" fill="#F5F5F5"/>
<path d="M33.9015 51.6784L34.119 52.3296L34.8067 52.3348C34.8957 52.3356 34.9326 52.4489 34.861 52.5017L34.3078 52.9095L34.5153 53.5639C34.5423 53.6485 34.4455 53.7187 34.3731 53.667L33.8136 53.2678L33.2542 53.667C33.1818 53.7186 33.0852 53.6485 33.112 53.5639L33.3195 52.9095L32.7663 52.5017C32.6947 52.4488 32.7316 52.3356 32.8206 52.3348L33.5083 52.3296L33.7258 51.6784C33.754 51.5942 33.8733 51.5942 33.9015 51.6784Z" fill="#F5F5F5"/>
<path d="M36.5499 39.7898L36.7675 40.441L37.4551 40.4462C37.5442 40.447 37.581 40.5603 37.5094 40.6131L36.9563 41.0209L37.1638 41.6753C37.1907 41.7599 37.094 41.8302 37.0215 41.7784L36.4621 41.3792L35.9027 41.7784C35.8302 41.83 35.7337 41.7599 35.7604 41.6753L35.9679 41.0209L35.4147 40.6131C35.3432 40.5602 35.38 40.447 35.4691 40.4462L36.1567 40.441L36.3742 39.7898C36.4022 39.7055 36.5218 39.7055 36.5499 39.7898Z" fill="#F5F5F5"/>
<path d="M36.5499 43.196L36.7675 43.8471L37.4551 43.8524C37.5442 43.8531 37.581 43.9665 37.5094 44.0193L36.9563 44.4271L37.1638 45.0814C37.1907 45.1661 37.094 45.2363 37.0215 45.1845L36.4621 44.7854L35.9027 45.1845C35.8302 45.2362 35.7337 45.1661 35.7604 45.0814L35.9679 44.4271L35.4147 44.0193C35.3432 43.9664 35.38 43.8531 35.4691 43.8524L36.1567 43.8471L36.3742 43.196C36.4022 43.1118 36.5218 43.1118 36.5499 43.196Z" fill="#F5F5F5"/>
<path d="M36.5499 46.6022L36.7675 47.2534L37.4551 47.2586C37.5442 47.2594 37.581 47.3727 37.5094 47.4255L36.9563 47.8333L37.1638 48.4877C37.1907 48.5723 37.094 48.6426 37.0215 48.5908L36.4621 48.1917L35.9027 48.5908C35.8302 48.6425 35.7337 48.5723 35.7604 48.4877L35.9679 47.8333L35.4147 47.4255C35.3432 47.3726 35.38 47.2594 35.4691 47.2586L36.1567 47.2534L36.3742 46.6022C36.4022 46.518 36.5218 46.518 36.5499 46.6022Z" fill="#F5F5F5"/>
<path d="M36.5499 50.0086L36.7675 50.6597L37.4551 50.6649C37.5442 50.6657 37.581 50.7791 37.5094 50.8318L36.9563 51.2396L37.1638 51.894C37.1907 51.9787 37.094 52.0489 37.0215 51.9971L36.4621 51.598L35.9027 51.9971C35.8302 52.0488 35.7337 51.9787 35.7604 51.894L35.9679 51.2396L35.4147 50.8318C35.3432 50.7789 35.38 50.6657 35.4691 50.6649L36.1567 50.6597L36.3742 50.0086C36.4022 49.9242 36.5218 49.9242 36.5499 50.0086Z" fill="#F5F5F5"/>
<path d="M36.5499 53.4144L36.7675 54.0656L37.4551 54.0708C37.5442 54.0716 37.581 54.1849 37.5094 54.2377L36.9563 54.6455L37.1638 55.2999C37.1907 55.3845 37.094 55.4548 37.0215 55.403L36.4621 55.0038L35.9027 55.403C35.8302 55.4546 35.7337 55.3845 35.7604 55.2999L35.9679 54.6455L35.4147 54.2377C35.3432 54.1848 35.38 54.0716 35.4691 54.0708L36.1567 54.0656L36.3742 53.4144C36.4022 53.33 36.5218 53.33 36.5499 53.4144Z" fill="#F5F5F5"/>
<path d="M39.1984 41.4597L39.4159 42.1108L40.1035 42.116C40.1926 42.1168 40.2295 42.2301 40.1579 42.2829L39.6047 42.6907L39.8122 43.3451C39.8391 43.4298 39.7424 43.5 39.6699 43.4482L39.1105 43.0491L38.5511 43.4482C38.4786 43.4999 38.3821 43.4298 38.4088 43.3451L38.6163 42.6907L38.0632 42.2829C37.9916 42.23 38.0284 42.1168 38.1175 42.116L38.8052 42.1108L39.0227 41.4597C39.0507 41.3754 39.1703 41.3754 39.1984 41.4597Z" fill="#F5F5F5"/>
<path d="M39.1984 44.866L39.4159 45.5171L40.1035 45.5224C40.1926 45.5231 40.2295 45.6365 40.1579 45.6893L39.6047 46.0971L39.8122 46.7514C39.8391 46.8361 39.7424 46.9063 39.6699 46.8546L39.1105 46.4554L38.5511 46.8546C38.4786 46.9062 38.3821 46.8362 38.4088 46.7514L38.6163 46.0971L38.0632 45.6893C37.9916 45.6364 38.0284 45.5231 38.1175 45.5224L38.8052 45.5171L39.0227 44.866C39.0507 44.7816 39.1703 44.7816 39.1984 44.866Z" fill="#F5F5F5"/>
<path d="M39.1984 48.2722L39.4159 48.9234L40.1035 48.9286C40.1926 48.9294 40.2295 49.0427 40.1579 49.0955L39.6047 49.5033L39.8122 50.1577C39.8391 50.2424 39.7424 50.3126 39.6699 50.2608L39.1105 49.8617L38.5511 50.2608C38.4786 50.3125 38.3821 50.2424 38.4088 50.1577L38.6163 49.5033L38.0632 49.0955C37.9916 49.0426 38.0284 48.9294 38.1175 48.9286L38.8052 48.9234L39.0227 48.2722C39.0507 48.1879 39.1703 48.1879 39.1984 48.2722Z" fill="#F5F5F5"/>
<path d="M39.1984 51.6784L39.4159 52.3296L40.1035 52.3348C40.1926 52.3356 40.2295 52.4489 40.1579 52.5017L39.6047 52.9095L39.8122 53.5639C39.8391 53.6485 39.7424 53.7187 39.6699 53.667L39.1105 53.2678L38.5511 53.667C38.4786 53.7186 38.3821 53.6485 38.4088 53.5639L38.6163 52.9095L38.0632 52.5017C37.9916 52.4488 38.0284 52.3356 38.1175 52.3348L38.8052 52.3296L39.0227 51.6784C39.0507 51.5942 39.1703 51.5942 39.1984 51.6784Z" fill="#F5F5F5"/>
<path d="M41.8468 39.7898L42.0643 40.441L42.752 40.4462C42.841 40.447 42.8779 40.5603 42.8063 40.6131L42.2531 41.0209L42.4606 41.6753C42.4876 41.7599 42.3908 41.8302 42.3184 41.7784L41.759 41.3792L41.1995 41.7784C41.1271 41.83 41.0306 41.7599 41.0573 41.6753L41.2648 41.0209L40.7116 40.6131C40.64 40.5602 40.6769 40.447 40.7659 40.4462L41.4536 40.441L41.6711 39.7898C41.6992 39.7055 41.8185 39.7055 41.8468 39.7898Z" fill="#F5F5F5"/>
<path d="M41.8468 43.196L42.0643 43.8471L42.752 43.8524C42.841 43.8531 42.8779 43.9665 42.8063 44.0193L42.2531 44.4271L42.4606 45.0814C42.4876 45.1661 42.3908 45.2363 42.3184 45.1845L41.759 44.7854L41.1995 45.1845C41.1271 45.2362 41.0306 45.1661 41.0573 45.0814L41.2648 44.4271L40.7116 44.0193C40.64 43.9664 40.6769 43.8531 40.7659 43.8524L41.4536 43.8471L41.6711 43.196C41.6992 43.1118 41.8185 43.1118 41.8468 43.196Z" fill="#F5F5F5"/>
<path d="M41.8468 46.6022L42.0643 47.2534L42.752 47.2586C42.841 47.2594 42.8779 47.3727 42.8063 47.4255L42.2531 47.8333L42.4606 48.4877C42.4876 48.5723 42.3908 48.6426 42.3184 48.5908L41.759 48.1917L41.1995 48.5908C41.1271 48.6425 41.0306 48.5723 41.0573 48.4877L41.2648 47.8333L40.7116 47.4255C40.64 47.3726 40.6769 47.2594 40.7659 47.2586L41.4536 47.2534L41.6711 46.6022C41.6992 46.518 41.8185 46.518 41.8468 46.6022Z" fill="#F5F5F5"/>
<path d="M41.8468 50.0086L42.0643 50.6597L42.752 50.6649C42.841 50.6657 42.8779 50.7791 42.8063 50.8318L42.2531 51.2396L42.4606 51.894C42.4876 51.9787 42.3908 52.0489 42.3184 51.9971L41.759 51.598L41.1995 51.9971C41.1271 52.0488 41.0306 51.9787 41.0573 51.894L41.2648 51.2396L40.7116 50.8318C40.64 50.7789 40.6769 50.6657 40.7659 50.6649L41.4536 50.6597L41.6711 50.0086C41.6992 49.9242 41.8185 49.9242 41.8468 50.0086Z" fill="#F5F5F5"/>
<path d="M41.8468 53.4144L42.0643 54.0656L42.752 54.0708C42.841 54.0716 42.8779 54.1849 42.8063 54.2377L42.2531 54.6455L42.4606 55.2999C42.4876 55.3845 42.3908 55.4548 42.3184 55.403L41.759 55.0038L41.1995 55.403C41.1271 55.4546 41.0306 55.3845 41.0573 55.2999L41.2648 54.6455L40.7116 54.2377C40.64 54.1848 40.6769 54.0716 40.7659 54.0708L41.4536 54.0656L41.6711 53.4144C41.6992 53.33 41.8185 53.33 41.8468 53.4144Z" fill="#F5F5F5"/>
<path d="M56.4031 37.5H0.989575C0.443112 37.5 0 37.0581 0 36.5131V0.986886C0 0.441908 0.443112 0 0.989575 0H56.4032C56.9497 0 57.3928 0.441908 57.3928 0.986886V36.5131C57.3927 37.0582 56.9496 37.5 56.4031 37.5Z" fill="#F6F5F3"/>
<path fill-rule="evenodd" clip-rule="evenodd" d="M0 0.986886C0 0.441799 0.44322 0 0.989575 0H56.4032C56.9496 0 57.3928 0.441799 57.3928 0.986886V36.5131C57.3927 37.0583 56.9495 37.5 56.4031 37.5H0.989575C0.443221 37.5 0 37.0582 0 36.5131V0.986886ZM0.989575 0.218872C0.564001 0.218872 0.219196 0.562956 0.219196 0.986886V36.5131C0.219196 36.937 0.564001 37.2811 0.989575 37.2811H56.4031C56.8287 37.2811 57.1735 36.9371 57.1736 36.5131V0.986886C57.1736 0.562956 56.8288 0.218872 56.4032 0.218872H0.989575Z" fill="#A9A9A9"/>
<path d="M41.4773 18.1684C41.4755 25.5561 35.4702 31.547 28.0636 31.5487C20.66 31.5502 14.6575 25.562 14.6602 18.1745C14.661 10.7862 20.6661 4.79493 28.0706 4.79329C35.4766 4.79124 41.4789 10.7803 41.4773 18.1684Z" fill="#F7931A"/>
<path d="M33.2421 14.482C33.0858 12.7538 31.5438 12.1877 29.5918 12.0399L29.6139 9.64057L28.1005 9.6542L28.079 11.9903C27.6811 11.9939 27.2744 12.0051 26.8702 12.0165L26.8922 9.66491L25.3796 9.67835L25.3569 12.077C25.0291 12.0864 24.7073 12.0951 24.3935 12.0981L24.3934 12.0907L22.306 12.1086L22.292 13.6684C22.292 13.6684 23.4098 13.6379 23.391 13.6579C24.0041 13.6527 24.2004 13.9943 24.2557 14.2901L24.2306 17.0235C24.2729 17.0234 24.328 17.0246 24.3904 17.0323C24.34 17.0328 24.2861 17.0329 24.2306 17.0339L24.1948 20.8631C24.1662 21.0495 24.05 21.3473 23.6217 21.3519C23.6409 21.3682 22.5216 21.3614 22.5216 21.3614L22.2047 23.1082L24.1742 23.0906C24.5408 23.0878 24.9013 23.0906 25.2553 23.0896L25.2335 25.5162L26.7453 25.503L26.7675 23.102C27.1825 23.1066 27.5842 23.1062 27.9764 23.1023L27.9536 25.4923L29.467 25.4787L29.4899 23.0563C32.0356 22.8927 33.8221 22.2583 34.0646 19.9506C34.2603 18.0924 33.3629 17.272 31.9217 16.9502C32.8031 16.5112 33.3587 15.7466 33.2421 14.482ZM31.0768 19.6897C31.0609 21.5031 27.845 21.3255 26.8194 21.3356L26.8495 18.1204C27.8755 18.1115 31.0944 17.7982 31.0768 19.6897ZM30.4149 15.1597C30.3991 16.8096 27.7174 16.641 26.863 16.6487L26.8901 13.7327C27.7444 13.725 30.4306 13.4389 30.4149 15.1597Z" fill="white"/>
</svg>
