<svg width="75" height="75" viewBox="0 0 75 75" fill="none" xmlns="http://www.w3.org/2000/svg">
<path d="M74.0171 75H18.9828C18.4401 75 18 74.5581 18 74.0131V38.4869C18 37.9419 18.4401 37.5 18.9828 37.5H74.0172C74.5599 37.5 75 37.9419 75 38.4869V74.0131C74.9999 74.5582 74.5598 75 74.0171 75Z" fill="#F5F5F5"/>
<path d="M74.9999 40.3848H18V38.4869C18 37.9419 18.4401 37.5 18.9828 37.5H74.0172C74.5599 37.5 75 37.9419 75 38.4869L74.9999 40.3848Z" fill="#FF4B55"/>
<path d="M74.9999 49.0386H18V51.9232H74.9999V49.0386Z" fill="#FF4B55"/>
<path d="M74.9999 43.2695H18V46.1542H74.9999V43.2695Z" fill="#FF4B55"/>
<path d="M74.9999 57.6924H18.9828C18.4401 57.6924 18 57.2505 18 56.7055V54.8076H74.9999V57.6924Z" fill="#FF4B55"/>
<path d="M74.9999 66.3472H18V69.2318H74.9999V66.3472Z" fill="#FF4B55"/>
<path d="M74.0171 74.9999H18.9828C18.4401 74.9999 18 74.558 18 74.013V72.1152H74.9999V74.0131C74.9999 74.5581 74.5598 74.9999 74.0171 74.9999Z" fill="#FF4B55"/>
<path d="M74.9999 60.5771H18V63.4618H74.9999V60.5771Z" fill="#FF4B55"/>
<path d="M43.5516 37.5015H18.9828C18.4401 37.5015 18 37.9433 18 38.4882V56.7067C18 57.2517 18.4401 57.6936 18.9828 57.6936H43.5518C44.0945 57.6936 44.5346 57.2517 44.5346 56.7067V38.4882C44.5345 37.9433 44.0944 37.5015 43.5516 37.5015Z" fill="#41479B"/>
<path d="M20.7609 39.7653L20.9784 40.4204L21.6661 40.4256C21.7552 40.4264 21.792 40.5404 21.7204 40.5935L21.1672 41.0038L21.3747 41.6621C21.4017 41.7473 21.3049 41.818 21.2325 41.7659L20.673 41.3644L20.1136 41.766C20.0411 41.818 19.9446 41.7474 19.9713 41.6623L20.1789 41.0039L19.6257 40.5937C19.5541 40.5404 19.5909 40.4265 19.68 40.4257L20.3677 40.4205L20.5852 39.7654C20.6133 39.6804 20.7326 39.6804 20.7609 39.7653Z" fill="#F5F5F5"/>
<path d="M20.7609 43.1924L20.9784 43.8475L21.6661 43.8528C21.7552 43.8536 21.792 43.9676 21.7204 44.0207L21.1672 44.431L21.3747 45.0893C21.4017 45.1745 21.3049 45.2451 21.2325 45.193L20.673 44.7916L20.1136 45.1932C20.0411 45.2451 19.9446 45.1746 19.9713 45.0894L20.1789 44.4311L19.6257 44.0208C19.5541 43.9676 19.5909 43.8537 19.68 43.8529L20.3677 43.8476L20.5852 43.1926C20.6133 43.1077 20.7326 43.1077 20.7609 43.1924Z" fill="#F5F5F5"/>
<path d="M20.7609 46.6192L20.9784 47.2743L21.6661 47.2795C21.7552 47.2803 21.792 47.3944 21.7204 47.4475L21.1672 47.8577L21.3747 48.5161C21.4017 48.6012 21.3049 48.6719 21.2325 48.6198L20.673 48.2184L20.1136 48.6199C20.0411 48.6719 19.9446 48.6014 19.9713 48.5162L20.1789 47.8578L19.6257 47.4476C19.5541 47.3944 19.5909 47.2804 19.68 47.2797L20.3677 47.2744L20.5852 46.6193C20.6133 46.5345 20.7326 46.5345 20.7609 46.6192Z" fill="#F5F5F5"/>
<path d="M20.7609 50.0456L20.9784 50.7006L21.6661 50.7059C21.7552 50.7067 21.792 50.8207 21.7204 50.8738L21.1672 51.2841L21.3747 51.9424C21.4017 52.0276 21.3049 52.0983 21.2325 52.0462L20.673 51.6447L20.1136 52.0463C20.0411 52.0983 19.9446 52.0277 19.9713 51.9425L20.1789 51.2842L19.6257 50.8739C19.5541 50.8207 19.5909 50.7068 19.68 50.706L20.3677 50.7008L20.5852 50.0457C20.6133 49.9607 20.7326 49.9607 20.7609 50.0456Z" fill="#F5F5F5"/>
<path d="M20.7609 53.4729L20.9784 54.128L21.6661 54.1332C21.7552 54.134 21.792 54.248 21.7204 54.3011L21.1672 54.7114L21.3747 55.3697C21.4017 55.4549 21.3049 55.5256 21.2325 55.4735L20.673 55.072L20.1136 55.4736C20.0411 55.5256 19.9446 55.455 19.9713 55.3699L20.1789 54.7115L19.6257 54.3013C19.5541 54.248 19.5909 54.1341 19.68 54.1333L20.3677 54.1281L20.5852 53.473C20.6133 53.3879 20.7326 53.3879 20.7609 53.4729Z" fill="#F5F5F5"/>
<path d="M23.4093 41.4454L23.6269 42.1005L24.3145 42.1057C24.4036 42.1065 24.4404 42.2205 24.3689 42.2736L23.8157 42.6839L24.0232 43.3422C24.0501 43.4274 23.9534 43.4981 23.8809 43.446L23.3215 43.0444L22.7621 43.446C22.6896 43.498 22.5931 43.4274 22.6198 43.3422L22.8273 42.6839L22.2741 42.2736C22.2025 42.2204 22.2394 42.1065 22.3284 42.1057L23.0161 42.1005L23.2336 41.4454C23.2616 41.3607 23.3812 41.3607 23.4093 41.4454Z" fill="#F5F5F5"/>
<path d="M23.4093 44.8722L23.6269 45.5273L24.3145 45.5326C24.4036 45.5334 24.4404 45.6474 24.3689 45.7005L23.8157 46.1108L24.0232 46.7691C24.0501 46.8543 23.9534 46.9249 23.8809 46.8728L23.3215 46.4713L22.7621 46.8728C22.6896 46.9248 22.5931 46.8544 22.6198 46.7691L22.8273 46.1108L22.2741 45.7005C22.2025 45.6473 22.2394 45.5334 22.3284 45.5326L23.0161 45.5273L23.2336 44.8722C23.2616 44.7874 23.3812 44.7874 23.4093 44.8722Z" fill="#F5F5F5"/>
<path d="M23.4093 48.2995L23.6269 48.9546L24.3145 48.9598C24.4036 48.9606 24.4404 49.0746 24.3689 49.1277L23.8157 49.538L24.0232 50.1963C24.0501 50.2815 23.9534 50.3522 23.8809 50.3001L23.3215 49.8985L22.7621 50.3001C22.6896 50.3521 22.5931 50.2815 22.6198 50.1963L22.8273 49.538L22.2741 49.1277C22.2025 49.0745 22.2394 48.9606 22.3284 48.9598L23.0161 48.9546L23.2336 48.2995C23.2616 48.2146 23.3812 48.2146 23.4093 48.2995Z" fill="#F5F5F5"/>
<path d="M23.4093 51.7257L23.6269 52.3808L24.3145 52.386C24.4036 52.3868 24.4404 52.5008 24.3689 52.5539L23.8157 52.9642L24.0232 53.6225C24.0501 53.7077 23.9534 53.7784 23.8809 53.7263L23.3215 53.3247L22.7621 53.7263C22.6896 53.7782 22.5931 53.7077 22.6198 53.6225L22.8273 52.9642L22.2741 52.5539C22.2025 52.5007 22.2394 52.3868 22.3284 52.386L23.0161 52.3808L23.2336 51.7257C23.2616 51.6409 23.3812 51.6409 23.4093 51.7257Z" fill="#F5F5F5"/>
<path d="M26.0578 39.7653L26.2753 40.4204L26.963 40.4256C27.052 40.4264 27.0889 40.5405 27.0173 40.5936L26.4641 41.0038L26.6716 41.6622C26.6986 41.7473 26.6018 41.818 26.5293 41.7659L25.9699 41.3643L25.4105 41.7659C25.338 41.8179 25.2415 41.7473 25.2682 41.6622L25.4757 41.0038L24.9225 40.5936C24.851 40.5403 24.8878 40.4264 24.9769 40.4256L25.6645 40.4204L25.8821 39.7653C25.9101 39.6804 26.0296 39.6804 26.0578 39.7653Z" fill="#F5F5F5"/>
<path d="M26.0578 43.1925L26.2753 43.8476L26.963 43.8528C27.052 43.8536 27.0889 43.9676 27.0173 44.0207L26.4641 44.431L26.6716 45.0893C26.6986 45.1745 26.6018 45.2452 26.5293 45.1931L25.9699 44.7915L25.4105 45.1931C25.338 45.245 25.2415 45.1745 25.2682 45.0893L25.4757 44.431L24.9225 44.0207C24.851 43.9675 24.8878 43.8536 24.9769 43.8528L25.6645 43.8476L25.8821 43.1925C25.9101 43.1077 26.0296 43.1077 26.0578 43.1925Z" fill="#F5F5F5"/>
<path d="M26.0578 46.6192L26.2753 47.2743L26.963 47.2796C27.052 47.2803 27.0889 47.3944 27.0173 47.4475L26.4641 47.8577L26.6716 48.5161C26.6986 48.6013 26.6018 48.6719 26.5293 48.6198L25.9699 48.2183L25.4105 48.6198C25.338 48.6718 25.2415 48.6013 25.2682 48.5161L25.4757 47.8577L24.9225 47.4475C24.851 47.3943 24.8878 47.2803 24.9769 47.2796L25.6645 47.2743L25.8821 46.6192C25.9101 46.5345 26.0296 46.5345 26.0578 46.6192Z" fill="#F5F5F5"/>
<path d="M26.0578 50.0456L26.2753 50.7007L26.963 50.7059C27.052 50.7067 27.0889 50.8207 27.0173 50.8738L26.4641 51.2841L26.6716 51.9424C26.6986 52.0276 26.6018 52.0983 26.5293 52.0462L25.9699 51.6446L25.4105 52.0462C25.338 52.0982 25.2415 52.0276 25.2682 51.9424L25.4757 51.2841L24.9225 50.8738C24.851 50.8206 24.8878 50.7067 24.9769 50.7059L25.6645 50.7007L25.8821 50.0456C25.9101 49.9607 26.0296 49.9607 26.0578 50.0456Z" fill="#F5F5F5"/>
<path d="M26.0578 53.4729L26.2753 54.128L26.963 54.1332C27.052 54.134 27.0889 54.2481 27.0173 54.3012L26.4641 54.7114L26.6716 55.3698C26.6986 55.4549 26.6018 55.5256 26.5293 55.4735L25.9699 55.072L25.4105 55.4735C25.338 55.5255 25.2415 55.4549 25.2682 55.3698L25.4757 54.7114L24.9225 54.3012C24.851 54.2479 24.8878 54.134 24.9769 54.1332L25.6645 54.128L25.8821 53.4729C25.9101 53.3879 26.0296 53.3879 26.0578 53.4729Z" fill="#F5F5F5"/>
<path d="M28.7062 41.4454L28.9237 42.1005L29.6114 42.1057C29.7005 42.1065 29.7373 42.2205 29.6657 42.2736L29.1125 42.6839L29.3201 43.3422C29.347 43.4274 29.2503 43.4981 29.1778 43.446L28.6184 43.0444L28.0589 43.446C27.9865 43.498 27.8899 43.4274 27.9167 43.3422L28.1242 42.6839L27.571 42.2736C27.4994 42.2204 27.5362 42.1065 27.6253 42.1057L28.313 42.1005L28.5305 41.4454C28.5585 41.3607 28.678 41.3607 28.7062 41.4454Z" fill="#F5F5F5"/>
<path d="M28.7062 44.8722L28.9237 45.5273L29.6114 45.5326C29.7005 45.5334 29.7373 45.6474 29.6657 45.7005L29.1125 46.1108L29.3201 46.7691C29.347 46.8543 29.2503 46.9249 29.1778 46.8728L28.6184 46.4713L28.0589 46.8728C27.9865 46.9248 27.8899 46.8544 27.9167 46.7691L28.1242 46.1108L27.571 45.7005C27.4994 45.6473 27.5362 45.5334 27.6253 45.5326L28.313 45.5273L28.5305 44.8722C28.5585 44.7874 28.678 44.7874 28.7062 44.8722Z" fill="#F5F5F5"/>
<path d="M28.7062 48.2995L28.9237 48.9546L29.6114 48.9598C29.7005 48.9606 29.7373 49.0746 29.6657 49.1277L29.1125 49.538L29.3201 50.1963C29.347 50.2815 29.2503 50.3522 29.1778 50.3001L28.6184 49.8985L28.0589 50.3001C27.9865 50.3521 27.8899 50.2815 27.9167 50.1963L28.1242 49.538L27.571 49.1277C27.4994 49.0745 27.5362 48.9606 27.6253 48.9598L28.313 48.9546L28.5305 48.2995C28.5585 48.2146 28.678 48.2146 28.7062 48.2995Z" fill="#F5F5F5"/>
<path d="M28.7062 51.7257L28.9237 52.3808L29.6114 52.386C29.7005 52.3868 29.7373 52.5008 29.6657 52.5539L29.1125 52.9642L29.3201 53.6225C29.347 53.7077 29.2503 53.7784 29.1778 53.7263L28.6184 53.3247L28.0589 53.7263C27.9865 53.7782 27.8899 53.7077 27.9167 53.6225L28.1242 52.9642L27.571 52.5539C27.4994 52.5007 27.5362 52.3868 27.6253 52.386L28.313 52.3808L28.5305 51.7257C28.5585 51.6409 28.678 51.6409 28.7062 51.7257Z" fill="#F5F5F5"/>
<path d="M31.3577 39.7653L31.5752 40.4204L32.2629 40.4256C32.3519 40.4264 32.3888 40.5405 32.3172 40.5936L31.764 41.0038L31.9715 41.6622C31.9985 41.7473 31.9017 41.818 31.8293 41.7659L31.2697 41.3643L30.7103 41.7659C30.6378 41.8179 30.5413 41.7473 30.568 41.6622L30.7755 41.0038L30.2224 40.5936C30.1508 40.5403 30.1876 40.4264 30.2767 40.4256L30.9644 40.4204L31.1819 39.7653C31.2101 39.6804 31.3295 39.6804 31.3577 39.7653Z" fill="#F5F5F5"/>
<path d="M31.3577 43.1925L31.5752 43.8476L32.2629 43.8528C32.3519 43.8536 32.3888 43.9676 32.3172 44.0207L31.764 44.431L31.9715 45.0893C31.9985 45.1745 31.9017 45.2452 31.8293 45.1931L31.2697 44.7915L30.7103 45.1931C30.6378 45.245 30.5413 45.1745 30.568 45.0893L30.7755 44.431L30.2224 44.0207C30.1508 43.9675 30.1876 43.8536 30.2767 43.8528L30.9644 43.8476L31.1819 43.1925C31.2101 43.1077 31.3295 43.1077 31.3577 43.1925Z" fill="#F5F5F5"/>
<path d="M31.3577 46.6192L31.5752 47.2743L32.2629 47.2796C32.3519 47.2803 32.3888 47.3944 32.3172 47.4475L31.764 47.8577L31.9715 48.5161C31.9985 48.6013 31.9017 48.6719 31.8293 48.6198L31.2697 48.2183L30.7103 48.6198C30.6378 48.6718 30.5413 48.6013 30.568 48.5161L30.7755 47.8577L30.2224 47.4475C30.1508 47.3943 30.1876 47.2803 30.2767 47.2796L30.9644 47.2743L31.1819 46.6192C31.2101 46.5345 31.3295 46.5345 31.3577 46.6192Z" fill="#F5F5F5"/>
<path d="M31.3577 50.0456L31.5752 50.7007L32.2629 50.7059C32.3519 50.7067 32.3888 50.8207 32.3172 50.8738L31.764 51.2841L31.9715 51.9424C31.9985 52.0276 31.9017 52.0983 31.8293 52.0462L31.2697 51.6446L30.7103 52.0462C30.6378 52.0982 30.5413 52.0276 30.568 51.9424L30.7755 51.2841L30.2224 50.8738C30.1508 50.8206 30.1876 50.7067 30.2767 50.7059L30.9644 50.7007L31.1819 50.0456C31.2101 49.9607 31.3295 49.9607 31.3577 50.0456Z" fill="#F5F5F5"/>
<path d="M31.3577 53.4729L31.5752 54.128L32.2629 54.1332C32.3519 54.134 32.3888 54.2481 32.3172 54.3012L31.764 54.7114L31.9715 55.3698C31.9985 55.4549 31.9017 55.5256 31.8293 55.4735L31.2697 55.072L30.7103 55.4735C30.6378 55.5255 30.5413 55.4549 30.568 55.3698L30.7755 54.7114L30.2224 54.3012C30.1508 54.2479 30.1876 54.134 30.2767 54.1332L30.9644 54.128L31.1819 53.4729C31.2101 53.3879 31.3295 53.3879 31.3577 53.4729Z" fill="#F5F5F5"/>
<path d="M34.006 41.4454L34.2235 42.1005L34.9112 42.1057C35.0003 42.1065 35.0371 42.2205 34.9655 42.2736L34.4123 42.6839L34.6199 43.3422C34.6468 43.4274 34.5501 43.4981 34.4776 43.446L33.9182 43.0444L33.3587 43.446C33.2863 43.498 33.1897 43.4274 33.2165 43.3422L33.424 42.6839L32.8708 42.2736C32.7992 42.2204 32.8361 42.1065 32.9251 42.1057L33.6128 42.1005L33.8303 41.4454C33.8585 41.3607 33.9778 41.3607 34.006 41.4454Z" fill="#F5F5F5"/>
<path d="M34.006 44.8722L34.2235 45.5273L34.9112 45.5326C35.0003 45.5334 35.0371 45.6474 34.9655 45.7005L34.4123 46.1108L34.6199 46.7691C34.6468 46.8543 34.5501 46.9249 34.4776 46.8728L33.9182 46.4713L33.3587 46.8728C33.2863 46.9248 33.1897 46.8544 33.2165 46.7691L33.424 46.1108L32.8708 45.7005C32.7992 45.6473 32.8361 45.5334 32.9251 45.5326L33.6128 45.5273L33.8303 44.8722C33.8585 44.7874 33.9778 44.7874 34.006 44.8722Z" fill="#F5F5F5"/>
<path d="M34.006 48.2995L34.2235 48.9546L34.9112 48.9598C35.0003 48.9606 35.0371 49.0746 34.9655 49.1277L34.4123 49.538L34.6199 50.1963C34.6468 50.2815 34.5501 50.3522 34.4776 50.3001L33.9182 49.8985L33.3587 50.3001C33.2863 50.3521 33.1897 50.2815 33.2165 50.1963L33.424 49.538L32.8708 49.1277C32.7992 49.0745 32.8361 48.9606 32.9251 48.9598L33.6128 48.9546L33.8303 48.2995C33.8585 48.2146 33.9778 48.2146 34.006 48.2995Z" fill="#F5F5F5"/>
<path d="M34.006 51.7257L34.2235 52.3808L34.9112 52.386C35.0003 52.3868 35.0371 52.5008 34.9655 52.5539L34.4123 52.9642L34.6199 53.6225C34.6468 53.7077 34.5501 53.7784 34.4776 53.7263L33.9182 53.3247L33.3587 53.7263C33.2863 53.7782 33.1897 53.7077 33.2165 53.6225L33.424 52.9642L32.8708 52.5539C32.7992 52.5007 32.8361 52.3868 32.9251 52.386L33.6128 52.3808L33.8303 51.7257C33.8585 51.6409 33.9778 51.6409 34.006 51.7257Z" fill="#F5F5F5"/>
<path d="M36.6544 39.7653L36.872 40.4204L37.5596 40.4256C37.6487 40.4264 37.6856 40.5405 37.614 40.5936L37.0608 41.0038L37.2683 41.6622C37.2952 41.7473 37.1985 41.818 37.126 41.7659L36.5666 41.3643L36.0072 41.7659C35.9347 41.8179 35.8382 41.7473 35.8649 41.6622L36.0724 41.0038L35.5192 40.5936C35.4476 40.5403 35.4845 40.4264 35.5736 40.4256L36.2612 40.4204L36.4788 39.7653C36.5067 39.6804 36.6263 39.6804 36.6544 39.7653Z" fill="#F5F5F5"/>
<path d="M36.6544 43.1925L36.872 43.8476L37.5596 43.8528C37.6487 43.8536 37.6856 43.9676 37.614 44.0207L37.0608 44.431L37.2683 45.0893C37.2952 45.1745 37.1985 45.2452 37.126 45.1931L36.5666 44.7915L36.0072 45.1931C35.9347 45.245 35.8382 45.1745 35.8649 45.0893L36.0724 44.431L35.5192 44.0207C35.4476 43.9675 35.4845 43.8536 35.5736 43.8528L36.2612 43.8476L36.4788 43.1925C36.5067 43.1077 36.6263 43.1077 36.6544 43.1925Z" fill="#F5F5F5"/>
<path d="M36.6544 46.6192L36.872 47.2743L37.5596 47.2796C37.6487 47.2803 37.6856 47.3944 37.614 47.4475L37.0608 47.8577L37.2683 48.5161C37.2952 48.6013 37.1985 48.6719 37.126 48.6198L36.5666 48.2183L36.0072 48.6198C35.9347 48.6718 35.8382 48.6013 35.8649 48.5161L36.0724 47.8577L35.5192 47.4475C35.4476 47.3943 35.4845 47.2803 35.5736 47.2796L36.2612 47.2743L36.4788 46.6192C36.5067 46.5345 36.6263 46.5345 36.6544 46.6192Z" fill="#F5F5F5"/>
<path d="M36.6544 50.0456L36.872 50.7007L37.5596 50.7059C37.6487 50.7067 37.6856 50.8207 37.614 50.8738L37.0608 51.2841L37.2683 51.9424C37.2952 52.0276 37.1985 52.0983 37.126 52.0462L36.5666 51.6446L36.0072 52.0462C35.9347 52.0982 35.8382 52.0276 35.8649 51.9424L36.0724 51.2841L35.5192 50.8738C35.4476 50.8206 35.4845 50.7067 35.5736 50.7059L36.2612 50.7007L36.4788 50.0456C36.5067 49.9607 36.6263 49.9607 36.6544 50.0456Z" fill="#F5F5F5"/>
<path d="M36.6544 53.4729L36.872 54.128L37.5596 54.1332C37.6487 54.134 37.6856 54.2481 37.614 54.3012L37.0608 54.7114L37.2683 55.3698C37.2952 55.4549 37.1985 55.5256 37.126 55.4735L36.5666 55.072L36.0072 55.4735C35.9347 55.5255 35.8382 55.4549 35.8649 55.3698L36.0724 54.7114L35.5192 54.3012C35.4476 54.2479 35.4845 54.134 35.5736 54.1332L36.2612 54.128L36.4788 53.4729C36.5067 53.3879 36.6263 53.3879 36.6544 53.4729Z" fill="#F5F5F5"/>
<path d="M39.3029 41.4454L39.5204 42.1005L40.2081 42.1057C40.2971 42.1065 40.334 42.2205 40.2624 42.2736L39.7092 42.6839L39.9167 43.3422C39.9437 43.4274 39.8469 43.4981 39.7745 43.446L39.215 43.0444L38.6556 43.446C38.5831 43.498 38.4866 43.4274 38.5133 43.3422L38.7209 42.6839L38.1677 42.2736C38.0961 42.2204 38.1329 42.1065 38.222 42.1057L38.9097 42.1005L39.1272 41.4454C39.1553 41.3607 39.2748 41.3607 39.3029 41.4454Z" fill="#F5F5F5"/>
<path d="M39.3029 44.8722L39.5204 45.5273L40.2081 45.5326C40.2971 45.5334 40.334 45.6474 40.2624 45.7005L39.7092 46.1108L39.9167 46.7691C39.9437 46.8543 39.8469 46.9249 39.7745 46.8728L39.215 46.4713L38.6556 46.8728C38.5831 46.9248 38.4866 46.8544 38.5133 46.7691L38.7209 46.1108L38.1677 45.7005C38.0961 45.6473 38.1329 45.5334 38.222 45.5326L38.9097 45.5273L39.1272 44.8722C39.1553 44.7874 39.2748 44.7874 39.3029 44.8722Z" fill="#F5F5F5"/>
<path d="M39.3029 48.2995L39.5204 48.9546L40.2081 48.9598C40.2971 48.9606 40.334 49.0746 40.2624 49.1277L39.7092 49.538L39.9167 50.1963C39.9437 50.2815 39.8469 50.3522 39.7745 50.3001L39.215 49.8985L38.6556 50.3001C38.5831 50.3521 38.4866 50.2815 38.5133 50.1963L38.7209 49.538L38.1677 49.1277C38.0961 49.0745 38.1329 48.9606 38.222 48.9598L38.9097 48.9546L39.1272 48.2995C39.1553 48.2146 39.2748 48.2146 39.3029 48.2995Z" fill="#F5F5F5"/>
<path d="M39.3029 51.7257L39.5204 52.3808L40.2081 52.386C40.2971 52.3868 40.334 52.5008 40.2624 52.5539L39.7092 52.9642L39.9167 53.6225C39.9437 53.7077 39.8469 53.7784 39.7745 53.7263L39.215 53.3247L38.6556 53.7263C38.5831 53.7782 38.4866 53.7077 38.5133 53.6225L38.7209 52.9642L38.1677 52.5539C38.0961 52.5007 38.1329 52.3868 38.222 52.386L38.9097 52.3808L39.1272 51.7257C39.1553 51.6409 39.2748 51.6409 39.3029 51.7257Z" fill="#F5F5F5"/>
<path d="M41.9513 39.7653L42.1688 40.4204L42.8565 40.4256C42.9456 40.4264 42.9824 40.5405 42.9108 40.5936L42.3577 41.0038L42.5652 41.6622C42.5921 41.7473 42.4954 41.818 42.4229 41.7659L41.8635 41.3643L41.3041 41.7659C41.2316 41.8179 41.1351 41.7473 41.1618 41.6622L41.3693 41.0038L40.8161 40.5936C40.7445 40.5403 40.7814 40.4264 40.8704 40.4256L41.5581 40.4204L41.7756 39.7653C41.8037 39.6804 41.923 39.6804 41.9513 39.7653Z" fill="#F5F5F5"/>
<path d="M41.9513 43.1925L42.1688 43.8476L42.8565 43.8528C42.9456 43.8536 42.9824 43.9676 42.9108 44.0207L42.3577 44.431L42.5652 45.0893C42.5921 45.1745 42.4954 45.2452 42.4229 45.1931L41.8635 44.7915L41.3041 45.1931C41.2316 45.245 41.1351 45.1745 41.1618 45.0893L41.3693 44.431L40.8161 44.0207C40.7445 43.9675 40.7814 43.8536 40.8704 43.8528L41.5581 43.8476L41.7756 43.1925C41.8037 43.1077 41.923 43.1077 41.9513 43.1925Z" fill="#F5F5F5"/>
<path d="M41.9513 46.6192L42.1688 47.2743L42.8565 47.2796C42.9456 47.2803 42.9824 47.3944 42.9108 47.4475L42.3577 47.8577L42.5652 48.5161C42.5921 48.6013 42.4954 48.6719 42.4229 48.6198L41.8635 48.2183L41.3041 48.6198C41.2316 48.6718 41.1351 48.6013 41.1618 48.5161L41.3693 47.8577L40.8161 47.4475C40.7445 47.3943 40.7814 47.2803 40.8704 47.2796L41.5581 47.2743L41.7756 46.6192C41.8037 46.5345 41.923 46.5345 41.9513 46.6192Z" fill="#F5F5F5"/>
<path d="M41.9513 50.0456L42.1688 50.7007L42.8565 50.7059C42.9456 50.7067 42.9824 50.8207 42.9108 50.8738L42.3577 51.2841L42.5652 51.9424C42.5921 52.0276 42.4954 52.0983 42.4229 52.0462L41.8635 51.6446L41.3041 52.0462C41.2316 52.0982 41.1351 52.0276 41.1618 51.9424L41.3693 51.2841L40.8161 50.8738C40.7445 50.8206 40.7814 50.7067 40.8704 50.7059L41.5581 50.7007L41.7756 50.0456C41.8037 49.9607 41.923 49.9607 41.9513 50.0456Z" fill="#F5F5F5"/>
<path d="M41.9513 53.4729L42.1688 54.128L42.8565 54.1332C42.9456 54.134 42.9824 54.2481 42.9108 54.3012L42.3577 54.7114L42.5652 55.3698C42.5921 55.4549 42.4954 55.5256 42.4229 55.4735L41.8635 55.072L41.3041 55.4735C41.2316 55.5255 41.1351 55.4549 41.1618 55.3698L41.3693 54.7114L40.8161 54.3012C40.7445 54.2479 40.7814 54.134 40.8704 54.1332L41.5581 54.128L41.7756 53.4729C41.8037 53.3879 41.923 53.3879 41.9513 53.4729Z" fill="#F5F5F5"/>
<path d="M56.0171 37.5H0.982803C0.440079 37.5 0 37.0581 0 36.5131V0.986886C0 0.441907 0.440079 1.0917e-07 0.982803 1.0917e-07H56.0172C56.5599 1.0917e-07 57 0.441907 57 0.986886V36.5131C56.9999 37.0582 56.5598 37.5 56.0171 37.5Z" fill="#41479B"/>
<path d="M28.8992 4.29342L29.2933 5.47985L30.5387 5.48958C30.7 5.49081 30.7668 5.6974 30.6371 5.79365L29.6352 6.53661L30.0108 7.72897C30.0595 7.88324 29.8844 8.01113 29.7532 7.91689L28.74 7.18958L27.7268 7.91689C27.5957 8.01101 27.4205 7.88335 27.4692 7.72897L27.8448 6.53661L26.8429 5.79365C26.7132 5.6974 26.78 5.49081 26.9413 5.48958L28.1867 5.47985L28.5808 4.29342C28.6317 4.13982 28.8482 4.13982 28.8992 4.29342Z" fill="#FFE15A"/>
<path d="M28.8992 29.7666L29.2933 30.953L30.5387 30.9627C30.7 30.964 30.7668 31.1705 30.6371 31.2668L29.6352 32.0098L30.0108 33.2021C30.0595 33.3564 29.8844 33.4843 29.7532 33.39L28.74 32.6627L27.7268 33.39C27.5957 33.4842 27.4205 33.3565 27.4692 33.2021L27.8448 32.0098L26.8429 31.2668C26.7132 31.1705 26.78 30.964 26.9413 30.9627L28.1867 30.953L28.5808 29.7666C28.6317 29.613 28.8482 29.613 28.8992 29.7666Z" fill="#FFE15A"/>
<path d="M41.5847 17.0293L41.9788 18.2157L43.2243 18.2254C43.3856 18.2267 43.4524 18.4332 43.3227 18.5295L42.3207 19.2725L42.6964 20.4648C42.745 20.6191 42.57 20.747 42.4387 20.6527L41.4255 19.9254L40.4123 20.6527C40.2812 20.7469 40.1061 20.6192 40.1547 20.4648L40.5304 19.2725L39.5284 18.5295C39.3987 18.4332 39.4655 18.2267 39.6268 18.2254L40.8722 18.2157L41.2663 17.0293C41.3172 16.8757 41.5338 16.8757 41.5847 17.0293Z" fill="#FFE15A"/>
<path d="M16.2166 17.0293L16.6107 18.2157L17.8561 18.2254C18.0174 18.2267 18.0842 18.4332 17.9545 18.5295L16.9526 19.2725L17.3282 20.4648C17.3768 20.6191 17.2018 20.747 17.0706 20.6527L16.0574 19.9254L15.0442 20.6527C14.913 20.7469 14.7379 20.6192 14.7866 20.4648L15.1622 19.2725L14.1602 18.5295C14.0305 18.4332 14.0973 18.2267 14.2587 18.2254L15.5041 18.2157L15.8982 17.0293C15.9492 16.8757 16.1657 16.8757 16.2166 17.0293Z" fill="#FFE15A"/>
<path d="M18.1209 10.3784L18.515 11.5648L19.7604 11.5745C19.9217 11.5758 19.9885 11.7824 19.8588 11.8786L18.8569 12.6216L19.2325 13.8139C19.2811 13.9682 19.1061 14.0961 18.9749 14.0018L17.9617 13.2745L16.9485 14.0018C16.8173 14.096 16.6422 13.9683 16.6909 13.8139L17.0665 12.6216L16.0645 11.8786C15.9348 11.7824 16.0016 11.5758 16.163 11.5745L17.4084 11.5648L17.8025 10.3784C17.8535 10.2248 18.0698 10.2248 18.1209 10.3784Z" fill="#FFE15A"/>
<path d="M40.0906 23.1152L40.4847 24.3016L41.7301 24.3114C41.8914 24.3126 41.9582 24.5192 41.8285 24.6154L40.8266 25.3584L41.2022 26.5507C41.2509 26.705 41.0759 26.8329 40.9446 26.7387L39.9314 26.0114L38.9182 26.7387C38.7871 26.8328 38.6119 26.7051 38.6606 26.5507L39.0362 25.3584L38.0343 24.6154C37.9046 24.5192 37.9714 24.3126 38.1327 24.3114L39.3781 24.3016L39.7722 23.1152C39.8232 22.9616 40.0396 22.9616 40.0906 23.1152Z" fill="#FFE15A"/>
<path d="M35.447 5.71676L35.8411 6.90319L37.0866 6.91292C37.2479 6.91415 37.3147 7.12074 37.185 7.21699L36.183 7.95995L36.5587 9.15231C36.6073 9.30658 36.4323 9.43447 36.301 9.34023L35.2878 8.61292L34.2747 9.34023C34.1435 9.43435 33.9684 9.30669 34.017 9.15231L34.3927 7.95995L33.3907 7.21699C33.261 7.12074 33.3278 6.91415 33.4891 6.91292L34.7345 6.90319L35.1286 5.71676C35.1795 5.56316 35.3958 5.56316 35.447 5.71676Z" fill="#FFE15A"/>
<path d="M22.7644 27.7773L23.1585 28.9637L24.404 28.9735C24.5653 28.9747 24.6321 29.1813 24.5024 29.2775L23.5004 30.0205L23.876 31.2129C23.9247 31.3671 23.7497 31.495 23.6184 31.4008L22.6052 30.6735L21.592 31.4008C21.4609 31.4949 21.2858 31.3672 21.3344 31.2129L21.71 30.0205L20.7081 29.2775C20.5784 29.1813 20.6452 28.9747 20.8065 28.9735L22.0519 28.9637L22.446 27.7773C22.497 27.6237 22.7133 27.6237 22.7644 27.7773Z" fill="#FFE15A"/>
<path d="M39.7722 10.3784L39.3781 11.5648L38.1327 11.5745C37.9714 11.5758 37.9046 11.7824 38.0343 11.8786L39.0362 12.6216L38.6606 13.8139C38.6119 13.9682 38.787 14.0961 38.9182 14.0018L39.9314 13.2745L40.9446 14.0018C41.0757 14.096 41.2509 13.9683 41.2022 13.8139L40.8266 12.6216L41.8285 11.8786C41.9582 11.7824 41.8914 11.5758 41.7301 11.5745L40.4847 11.5648L40.0906 10.3784C40.0396 10.2248 39.8232 10.2248 39.7722 10.3784Z" fill="#FFE15A"/>
<path d="M17.8025 23.1152L17.4084 24.3016L16.163 24.3114C16.0016 24.3126 15.9348 24.5192 16.0645 24.6154L17.0665 25.3584L16.6909 26.5507C16.6422 26.705 16.8172 26.8329 16.9485 26.7387L17.9617 26.0114L18.9749 26.7387C19.106 26.8328 19.2811 26.7051 19.2325 26.5507L18.8569 25.3584L19.8588 24.6154C19.9885 24.5192 19.9217 24.3126 19.7604 24.3114L18.515 24.3016L18.1209 23.1152C18.0698 22.9616 17.8535 22.9616 17.8025 23.1152Z" fill="#FFE15A"/>
<path d="M22.446 5.71676L22.0519 6.90319L20.8065 6.91292C20.6452 6.91415 20.5784 7.12074 20.7081 7.21699L21.71 7.95995L21.3344 9.15231C21.2858 9.30658 21.4608 9.43447 21.592 9.34023L22.6052 8.61292L23.6184 9.34023C23.7496 9.43435 23.9247 9.30669 23.876 9.15231L23.5004 7.95995L24.5024 7.21699C24.6321 7.12074 24.5653 6.91415 24.404 6.91292L23.1585 6.90319L22.7644 5.71676C22.7133 5.56316 22.497 5.56316 22.446 5.71676Z" fill="#FFE15A"/>
<path d="M35.1286 27.7773L34.7345 28.9637L33.4891 28.9735C33.3278 28.9747 33.261 29.1813 33.3907 29.2775L34.3927 30.0205L34.017 31.2129C33.9684 31.3671 34.1434 31.495 34.2747 31.4008L35.2878 30.6735L36.301 31.4008C36.4322 31.4949 36.6073 31.3672 36.5587 31.2129L36.183 30.0205L37.185 29.2775C37.3147 29.1813 37.2479 28.9747 37.0866 28.9735L35.8411 28.9637L35.447 27.7773C35.3959 27.6237 35.1796 27.6237 35.1286 27.7773Z" fill="#FFE15A"/>
</svg>
