<svg width="75" height="75" viewBox="0 0 75 75" fill="none" xmlns="http://www.w3.org/2000/svg">
<path d="M37.5 75C58.2107 75 75 58.2107 75 37.5C75 16.7893 58.2107 0 37.5 0C16.7893 0 0 16.7893 0 37.5C0 58.2107 16.7893 75 37.5 75Z" fill="#3C5A9A"/>
<path d="M49.8783 11.5386H41.5297C36.5753 11.5386 31.0646 13.6097 31.0646 20.748C31.0888 23.2352 31.0646 25.6172 31.0646 28.298H25.333V37.3636H31.2419V63.4617H42.0999V37.1913H49.2665L49.9149 28.2726H41.9128C41.9128 28.2726 41.9307 24.3052 41.9128 23.153C41.9128 20.3321 44.8659 20.4937 45.0435 20.4937C46.4487 20.4937 49.181 20.4978 49.8824 20.4937V11.5386H49.8783Z" fill="white"/>
</svg>
