<svg width="62" height="75" viewBox="0 0 62 75" fill="none" xmlns="http://www.w3.org/2000/svg">
<path d="M60.278 65.0154H57.1295V49.0172C57.1295 48.5958 56.7874 48.254 56.3658 48.254H52.8124V36.0298L53.1843 36.1838C53.3756 36.2628 53.5732 36.3003 53.7678 36.3003C54.3667 36.3003 54.9353 35.9453 55.1787 35.3575L57.3513 30.1106C57.5059 29.7364 57.5059 29.3162 57.3509 28.9422C57.196 28.5681 56.8989 28.2711 56.5247 28.1162L23.5308 14.4551C24.7367 12.1555 25.8202 9.81263 26.7516 7.4921C27.063 6.71566 26.6918 5.83316 25.9189 5.51336L12.8856 0.116555C12.1134 -0.203569 11.2261 0.158098 10.8979 0.927534C7.67074 8.48456 5.58921 16.907 4.347 27.4333C4.26684 28.112 4.64773 28.7612 5.27935 29.0226L10.8655 31.3353C11.4961 31.5967 12.2245 31.4069 12.6479 30.8704C15.0709 27.7977 17.1627 24.9117 19.0425 22.0475L25.6372 24.7779L25.3127 27.0253L24.3295 33.8321L19.8268 65.0154H9.28651H1.52633C0.683418 65.0154 0 65.6985 0 66.5417V73.4737C0 74.3166 0.683418 75 1.52633 75H60.278C61.1209 75 61.8043 74.3166 61.8043 73.4737V66.5417C61.8043 65.6985 61.1209 65.0154 60.278 65.0154ZM49.7597 48.254H46.2063C45.7843 48.254 45.4425 48.5958 45.4425 49.0172V65.0154H41.9774L37.4743 33.8321L36.8368 29.4153L49.7592 34.766V48.254H49.7597ZM34.682 37.9154L29.3174 33.9138L33.5836 30.308L34.682 37.9154ZM32.8912 40.7556L26.0877 45.0814L27.3133 36.5945L32.8912 40.7556ZM35.4319 43.1076L37.0706 54.4582L28.2399 47.6802L35.4319 43.1076ZM28.8851 65.0154L37.6755 58.646L38.5953 65.0154H28.8851ZM31.8818 27.3634L28.1963 30.4779L28.8285 26.0992L31.8818 27.3634ZM25.4158 49.7323L34.572 56.7605L23.2126 64.991L25.4158 49.7323Z" fill="#1D476E"/>
</svg>
