<?xml version="1.0" standalone="no"?>
<!DOCTYPE svg PUBLIC "-//W3C//DTD SVG 20010904//EN"
 "http://www.w3.org/TR/2001/REC-SVG-20010904/DTD/svg10.dtd">
<svg version="1.0" xmlns="http://www.w3.org/2000/svg"
 width="1024.000000pt" height="1024.000000pt" viewBox="0 0 1024.000000 1024.000000"
 preserveAspectRatio="xMidYMid meet">
<metadata>
Created by potrace 1.11, written by Peter Selinger 2001-2013
</metadata>
<g transform="translate(0.000000,1024.000000) scale(0.100000,-0.100000)"
fill="#000000" stroke="none">
<path d="M4997 10229 c-73 -18 -251 -116 -308 -171 -8 -7 -27 -22 -44 -32 -16
-11 -192 -180 -390 -377 -198 -196 -461 -457 -585 -579 -391 -386 -1771 -1754
-2049 -2030 -146 -146 -291 -297 -323 -335 -152 -188 -209 -349 -185 -525 13
-94 91 -254 175 -360 219 -275 462 -336 771 -194 146 67 309 192 513 393 93
93 905 893 1257 1241 120 118 431 424 690 680 260 256 476 465 481 465 5 0 62
-50 127 -111 65 -61 138 -131 163 -154 25 -23 106 -99 180 -170 74 -70 155
-147 180 -170 44 -41 265 -250 424 -401 45 -43 102 -97 129 -121 l47 -45 -202
-206 c-112 -113 -431 -437 -709 -719 -676 -686 -664 -672 -724 -747 -268 -334
-260 -642 25 -945 143 -152 285 -224 455 -231 172 -8 339 52 517 185 37 28
1122 1113 1581 1582 l98 100 26 -23 c47 -43 245 -237 790 -775 565 -559 757
-747 819 -803 101 -91 275 -190 399 -227 88 -27 250 -25 332 4 229 80 434 303
486 527 13 57 15 176 3 220 -3 11 -10 37 -15 57 -13 55 -66 163 -113 232 -94
140 -129 176 -1248 1303 -228 230 -421 426 -427 434 -11 13 2 30 80 111 425
440 534 552 592 613 57 59 229 237 580 600 316 327 421 440 466 500 225 307
208 600 -49 852 -58 56 -206 173 -220 173 -6 0 -12 4 -14 8 -4 11 -116 67
-153 77 -17 4 -37 10 -45 12 -8 3 -51 5 -95 5 -167 0 -312 -87 -580 -347 -164
-159 -536 -519 -608 -589 -40 -38 -182 -176 -317 -306 -135 -131 -270 -262
-300 -290 -30 -29 -126 -122 -212 -206 -86 -85 -162 -154 -168 -154 -6 0 -187
178 -403 396 -738 745 -1372 1380 -1394 1396 -66 50 -183 127 -213 140 -94 42
-211 57 -293 37z"/>
<path d="M590 5793 c-50 -8 -162 -56 -223 -96 -34 -23 -94 -73 -133 -112 -167
-166 -234 -308 -229 -482 3 -104 8 -126 42 -213 31 -78 72 -144 140 -225 48
-58 769 -780 1590 -1592 216 -213 905 -899 1533 -1523 1451 -1443 1379 -1373
1458 -1424 231 -149 461 -139 686 28 30 23 270 253 532 511 262 259 579 571
705 695 125 124 458 452 740 730 281 278 595 588 698 688 741 730 762 751 818
847 70 118 99 286 72 405 -6 25 -12 53 -14 63 -4 18 -63 144 -77 162 -136 186
-332 337 -493 379 -71 18 -181 14 -250 -9 -61 -21 -181 -86 -215 -117 -14 -13
-45 -39 -70 -59 -58 -48 -139 -126 -602 -580 -211 -207 -442 -434 -515 -505
-73 -71 -289 -283 -480 -470 -191 -188 -414 -406 -495 -485 -81 -79 -266 -261
-412 -404 -146 -143 -269 -261 -273 -262 -9 -3 -79 63 -587 560 -398 389 -440
430 -836 817 -377 367 -452 440 -887 866 -186 183 -397 390 -470 460 -72 71
-257 251 -410 401 -266 260 -368 359 -609 593 -245 238 -442 348 -629 354 -44
1 -91 1 -105 -1z"/>
</g>
</svg>
