<svg width="336" height="127" viewBox="0 0 336 127" fill="none" xmlns="http://www.w3.org/2000/svg">
<path d="M2.70096 112.768L0 110.653V126.159H336V3.17159L332.489 1.0572L329.248 1.762L326.817 0L324.116 0.704799L320.875 5.28599L317.093 6.34319L313.312 3.87639L306.559 5.63839L302.238 12.334L297.646 11.6292L294.405 15.1532L290.354 16.2104L286.842 25.3727L283.061 23.2584L280.09 31.0111L273.068 42.6403L269.286 47.9263L264.965 44.4023L261.183 47.9263L252.54 40.1735L247.949 41.2307L244.167 40.1735L240.386 44.0499L236.064 41.2307L232.283 43.3451L229.312 51.8027L225.26 51.4503L221.209 53.5647L218.508 49.9379L215.807 47.9263L213.376 51.8027L210.405 63.0795L207.974 57.0887L205.814 65.5463L200.952 52.8599L196.09 53.9171L193.389 57.0887L190.958 63.0795L189.068 57.0887L184.206 59.2031L181.235 53.5647L176.373 54.9743L171.584 60.9651L167.73 57.0887L164.759 60.9651L160.167 70.8323L157.196 66.6035L153.415 58.8507L150.174 60.9651L145.852 67.6607L142.071 65.5463L138.019 66.9559L135.318 65.1939L132.617 66.6035L125.595 67.6607L122.084 70.8323L120.733 70.1275L117.762 70.8323L116.141 73.6514L114.251 75.4134L111.28 77.1754L109.119 73.6514L108.039 80.4263L103.936 66.9559L100.746 63.0795L93.9936 66.6035H91.0225L88.5916 65.5463L85.0804 70.4799L80.2187 63.7843L77.2476 67.6607L73.7363 71.1847H68.3344L67.5241 69.4227L63.4727 63.7843L61.3119 68.3655L52.1286 70.4799L46.4566 84.106H43.4855L41.865 78.585L39.9743 96.5574L37.2733 93.5679L34.8424 91.9909L33.2219 97.7732L29.12 95.6705L25.9293 105.367L23.2283 99.729L19.717 103.253L15.1254 104.663L12.6945 108.891L9.45338 112.063L4.86174 113.473L2.70096 112.768Z" fill="#DCEAFB"/>
</svg>
