<svg xmlns="http://www.w3.org/2000/svg" xmlns:xlink="http://www.w3.org/1999/xlink" width="1024" height="1024" version="1.1" style="">
    <rect id="backgroundrect" width="100%" height="100%" x="0" y="0" fill="none" stroke="none" class="" style="" />
    <g class="currentLayer" style="">
        <title>Layer 1</title>
        <g id="Canvas" fill="none" class="">
            <g id="lite logo">
                <g id="Group">
                    <g id="Vector">
                        <path d="M727.7039319966586,201.1500696306769 L828.9038578046112,306.58625059182873 L993.4752152980657,136.19457691031462 C1024.3209601632443,104.26034706201375 1037.1896495538062,67.61927927668873 996.2572829758755,31.712335178878476 C952.1521346762498,-6.979302970070209 928.0476421098735,7.35689731385732 893.7313921869152,40.55260866082259 L727.7039319966586,201.1500696306769 z" fill="#009FE3" id="svg_1"/>
                        <path d="M727.7039319966586,201.1500696306769 L828.9038578046112,306.58625059182873 L993.4752152980657,136.19457691031462 C1024.3209601632443,104.26034706201375 1037.1896495538062,67.61927927668873 996.2572829758755,31.712335178878476 C952.1521346762498,-6.979302970070209 928.0476421098735,7.35689731385732 893.7313921869152,40.55260866082259 L727.7039319966586,201.1500696306769 z" stroke-width="0.216" stroke-miterlimit="22.9256" stroke="#009FE3" id="svg_2"/>
                    </g>
                    <g id="Vector_2">
                        <path d="M154.5314279858017,327.53459683749435 L457.77336076676914,27.259151180497298 C497.85618260677217,-6.340256679270578 516.0563392445479,-10.478246621554655 556.1915879445039,23.827657424362325 L977.7226758589068,449.0410253573223 C1008.6966177903945,480.28569686091083 1034.8909138765118,518.4974671421337 996.6193061106594,560.3000598079394 C958.1180916588806,602.3661300072051 914.9635150389906,581.3933183437917 883.1629890381672,550.031963932528 L729.441312810361,398.4533389330085 L573.1442149220786,556.2387418278922 C542.6103524719501,587.0656132427085 499.3447992871957,600.9320594322303 463.6822888290882,562.3100169917626 C426.6578280456267,522.2237922582103 441.6434910804312,486.8989829507561 473.08927475149784,454.98808968399015 L625.1424757282384,300.74758880357206 L499.98004445159233,182.47515880872706 L254.3636496710337,424.66558954751156 C219.73092519930688,458.8198058134509 169.2564874320794,496.39546604960606 127.34718267331213,439.9924540653543 C90.97434566451001,391.06467610183824 120.93610478887175,360.7944950755752 154.5314279858017,327.53459683749435 z" fill="#009640" id="svg_3"/>
                        <path d="M154.5314279858017,327.53459683749435 L457.77336076676914,27.259151180497298 C497.85618260677217,-6.340256679270578 516.0563392445479,-10.478246621554655 556.1915879445039,23.827657424362325 L977.7226758589068,449.0410253573223 C1008.6966177903945,480.28569686091083 1034.8909138765118,518.4974671421337 996.6193061106594,560.3000598079394 C958.1180916588806,602.3661300072051 914.9635150389906,581.3933183437917 883.1629890381672,550.031963932528 L729.441312810361,398.4533389330085 L573.1442149220786,556.2387418278922 C542.6103524719501,587.0656132427085 499.3447992871957,600.9320594322303 463.6822888290882,562.3100169917626 C426.6578280456267,522.2237922582103 441.6434910804312,486.8989829507561 473.08927475149784,454.98808968399015 L625.1424757282384,300.74758880357206 L499.98004445159233,182.47515880872706 L254.3636496710337,424.66558954751156 C219.73092519930688,458.8198058134509 169.2564874320794,496.39546604960606 127.34718267331213,439.9924540653543 C90.97434566451001,391.06467610183824 120.93610478887175,360.7944950755752 154.5314279858017,327.53459683749435 z" stroke-width="0.216" stroke-miterlimit="22.9256" stroke="#009640" id="svg_4"/>
                    </g>
                    <g id="Vector_3">
                        <path d="M27.490806777668887,567.1576233629022 C173.69860420852993,712.5151674009555 319.91137645091936,857.8640543200526 466.11305103682247,1003.2246095299168 C494.7564851061561,1028.3340184686517 523.3999191754898,1028.3340184686517 552.0395264667245,1003.2246095299168 C661.8336168986884,894.9579270664522 771.6277073306526,786.700654514897 881.4217977626167,678.4339720514324 C910.7272644430384,649.545918886405 911.1137690310147,611.9232090907035 877.4802163208781,580.9984745920307 C837.2531249465515,543.9994537576765 809.868700871715,558.826463754898 778.4508526807691,589.6047800242624 L511.9425455477561,850.71628523376 C385.6933092910581,727.3696543409524 259.44330767874015,604.0373265142467 133.19445409985192,480.69555113598415 C99.94817133331127,448.21095435993306 61.467621483265724,423.9793396437438 19.744489479003818,469.08439735358445 C-13.045985748191677,504.52788447003866 -1.1682864676449216,538.6644101015885 27.490806777668887,567.1576233629022 z" fill="#F8CA1B" id="svg_5"/>
                        <path d="M27.490806777668887,567.1576233629022 C173.69860420852993,712.5151674009555 319.91137645091936,857.8640543200526 466.11305103682247,1003.2246095299168 C494.7564851061561,1028.3340184686517 523.3999191754898,1028.3340184686517 552.0395264667245,1003.2246095299168 C661.8336168986884,894.9579270664522 771.6277073306526,786.700654514897 881.4217977626167,678.4339720514324 C910.7272644430384,649.545918886405 911.1137690310147,611.9232090907035 877.4802163208781,580.9984745920307 C837.2531249465515,543.9994537576765 809.868700871715,558.826463754898 778.4508526807691,589.6047800242624 L511.9425455477561,850.71628523376 C385.6933092910581,727.3696543409524 259.44330767874015,604.0373265142467 133.19445409985192,480.69555113598415 C99.94817133331127,448.21095435993306 61.467621483265724,423.9793396437438 19.744489479003818,469.08439735358445 C-13.045985748191677,504.52788447003866 -1.1682864676449216,538.6644101015885 27.490806777668887,567.1576233629022 z" stroke-width="0.216" stroke-miterlimit="22.9256" stroke="#F8CA1B" id="svg_6"/>
                    </g>
                </g>
            </g>
        </g>
    </g>
</svg>